SeanSlab-NormalBold.ufo
<glyph name="exclam" format="1">
  <advance width="283"/>
  <unicode hex="0021"/>
  <outline>
    <contour>
      <point x="194" y="229" type="line"/>
      <point x="207" y="722" type="line"/>
      <point x="77" y="722" type="line"/>
      <point x="89" y="229" type="line"/>
    </contour>
    <contour>
      <point x="211" y="51" type="curve"/>
      <point x="211" y="92"/>
      <point x="181" y="111"/>
      <point x="141" y="111" type="curve"/>
      <point x="100" y="111"/>
      <point x="73" y="90"/>
      <point x="73" y="51" type="curve"/>
      <point x="207" y="51"/>
      <point x="76" y="51"/>
      <point x="211" y="51" type="curve"/>
      <point x="211" y="10"/>
      <point x="181" y="-9"/>
      <point x="140" y="-9" type="curve"/>
      <point x="100" y="-9"/>
      <point x="73" y="12"/>
      <point x="73" y="51" type="curve"/>
      <point x="207" y="51"/>
      <point x="76" y="51"/>
    </contour>
  </outline>
</glyph>
<glyph name="quotedbl" format="1">
  <advance width="469"/>
  <unicode hex="0022"/>
  <outline>
    <contour>
      <point x="187" y="614" type="line"/>
      <point x="195" y="832" type="line"/>
      <point x="65" y="832" type="line"/>
      <point x="73" y="614" type="line"/>
    </contour>
    <contour>
      <point x="396" y="614" type="line"/>
      <point x="404" y="832" type="line"/>
      <point x="274" y="832" type="line"/>
      <point x="282" y="614" type="line"/>
    </contour>
  </outline>
</glyph>
<glyph name="numbersign" format="1">
  <advance width="726"/>
  <unicode hex="0023"/>
  <outline>
    <contour>
      <point x="45" y="223" type="line"/>
      <point x="578" y="223" type="line"/>
      <point x="609" y="315" type="line"/>
      <point x="77" y="315" type="line"/>
    </contour>
    <contour>
      <point x="114" y="443" type="line"/>
      <point x="651" y="443" type="line"/>
      <point x="681" y="534" type="line"/>
      <point x="144" y="534" type="line"/>
    </contour>
    <contour>
      <point x="454" y="39" type="line"/>
      <point x="680" y="722" type="line"/>
      <point x="558" y="722" type="line"/>
      <point x="333" y="39" type="line"/>
    </contour>
    <contour>
      <point x="172" y="46" type="line"/>
      <point x="395" y="722" type="line"/>
      <point x="274" y="722" type="line"/>
      <point x="56" y="46" type="line"/>
    </contour>
  </outline>
</glyph>
<glyph name="dollar" format="1">
  <advance width="623"/>
  <unicode hex="0024"/>
  <outline>
    <contour>
      <point x="157" y="93" type="curve"/>
      <point x="157" y="213"/>
      <point x="157" y="105"/>
      <point x="157" y="225" type="curve"/>
      <point x="63" y="225"/>
      <point x="157" y="225"/>
      <point x="63" y="225" type="curve"/>
      <point x="63" y="105"/>
      <point x="63" y="213"/>
      <point x="63" y="93" type="curve"/>
      <point x="157" y="93"/>
      <point x="63" y="93"/>
    </contour>
    <contour>
      <point x="442" y="635" type="curve"/>
      <point x="442" y="515"/>
      <point x="442" y="623"/>
      <point x="442" y="503" type="curve"/>
      <point x="536" y="503"/>
      <point x="442" y="503"/>
      <point x="536" y="503" type="curve"/>
      <point x="536" y="623"/>
      <point x="536" y="515"/>
      <point x="536" y="635" type="curve"/>
      <point x="442" y="635"/>
      <point x="536" y="635"/>
    </contour>
    <contour>
      <point x="354" y="-41" type="curve"/>
      <point x="354" y="-10"/>
      <point x="354" y="58"/>
      <point x="354" y="89" type="curve"/>
      <point x="233" y="89"/>
      <point x="354" y="89"/>
      <point x="233" y="89" type="curve"/>
      <point x="233" y="58"/>
      <point x="233" y="-10"/>
      <point x="233" y="-41" type="curve"/>
      <point x="354" y="-41"/>
      <point x="233" y="-41"/>
    </contour>
    <contour>
      <point x="366" y="640" type="curve"/>
      <point x="366" y="671"/>
      <point x="366" y="742"/>
      <point x="366" y="773" type="curve"/>
      <point x="245" y="773"/>
      <point x="366" y="773"/>
      <point x="245" y="773" type="curve"/>
      <point x="245" y="742"/>
      <point x="245" y="671"/>
      <point x="245" y="640" type="curve"/>
      <point x="366" y="640"/>
      <point x="245" y="640"/>
    </contour>
    <contour>
      <point x="63" y="93" type="curve"/>
      <point x="126" y="66"/>
      <point x="202" y="43"/>
      <point x="288" y="43" type="curve"/>
      <point x="446" y="43"/>
      <point x="578" y="90"/>
      <point x="578" y="216" type="curve"/>
      <point x="578" y="328"/>
      <point x="464" y="370"/>
      <point x="344" y="415" type="curve"/>
      <point x="264" y="445"/>
      <point x="188" y="463"/>
      <point x="188" y="525" type="curve"/>
      <point x="188" y="576"/>
      <point x="242" y="596"/>
      <point x="308" y="596" type="curve"/>
      <point x="373" y="596"/>
      <point x="419" y="583"/>
      <point x="476" y="557" type="curve"/>
      <point x="536" y="635"/>
      <point x="476" y="557"/>
      <point x="536" y="635" type="curve"/>
      <point x="461" y="669"/>
      <point x="400" y="687"/>
      <point x="314" y="687" type="curve"/>
      <point x="175" y="687"/>
      <point x="67" y="638"/>
      <point x="67" y="525" type="curve"/>
      <point x="67" y="418"/>
      <point x="158" y="375"/>
      <point x="273" y="332" type="curve"/>
      <point x="360" y="301"/>
      <point x="457" y="282"/>
      <point x="457" y="212" type="curve"/>
      <point x="457" y="149"/>
      <point x="383" y="134"/>
      <point x="299" y="134" type="curve"/>
      <point x="234" y="134"/>
      <point x="177" y="155"/>
      <point x="129" y="174" type="curve"/>
      <point x="63" y="93"/>
      <point x="129" y="175"/>
    </contour>
  </outline>
</glyph>
<glyph name="percent" format="1">
  <advance width="1164"/>
  <unicode hex="0025"/>
  <outline>
    <contour>
      <point x="422" y="-48" type="line"/>
      <point x="867" y="718" type="line"/>
      <point x="755" y="718" type="line"/>
      <point x="311" y="-48" type="line"/>
    </contour>
    <contour>
      <point x="149" y="503" type="curve"/>
      <point x="149" y="579"/>
      <point x="183" y="633"/>
      <point x="255" y="633" type="curve"/>
      <point x="329" y="634"/>
      <point x="364" y="580"/>
      <point x="364" y="501" type="curve"/>
      <point x="364" y="424"/>
      <point x="334" y="368"/>
      <point x="262" y="368" type="curve"/>
      <point x="186" y="368"/>
      <point x="149" y="423"/>
      <point x="149" y="503" type="curve"/>
      <point x="108" y="503"/>
      <point x="80" y="503"/>
      <point x="40" y="503" type="curve"/>
      <point x="40" y="366"/>
      <point x="121" y="281"/>
      <point x="256" y="281" type="curve"/>
      <point x="395" y="281"/>
      <point x="478" y="367"/>
      <point x="478" y="506" type="curve"/>
      <point x="478" y="640"/>
      <point x="395" y="721"/>
      <point x="261" y="721" type="curve"/>
      <point x="124" y="721"/>
      <point x="40" y="639"/>
      <point x="40" y="503" type="curve"/>
      <point x="80" y="503"/>
      <point x="108" y="503"/>
    </contour>
    <contour>
      <point x="796" y="170" type="curve"/>
      <point x="796" y="247"/>
      <point x="830" y="300"/>
      <point x="903" y="300" type="curve"/>
      <point x="977" y="301"/>
      <point x="1011" y="247"/>
      <point x="1011" y="169" type="curve"/>
      <point x="1011" y="92"/>
      <point x="981" y="35"/>
      <point x="909" y="35" type="curve"/>
      <point x="833" y="35"/>
      <point x="796" y="90"/>
      <point x="796" y="170" type="curve"/>
      <point x="756" y="170"/>
      <point x="728" y="170"/>
      <point x="687" y="170" type="curve"/>
      <point x="687" y="33"/>
      <point x="768" y="-52"/>
      <point x="904" y="-52" type="curve"/>
      <point x="1042" y="-52"/>
      <point x="1125" y="34"/>
      <point x="1125" y="173" type="curve"/>
      <point x="1125" y="307"/>
      <point x="1043" y="388"/>
      <point x="908" y="388" type="curve"/>
      <point x="771" y="388"/>
      <point x="687" y="306"/>
      <point x="687" y="170" type="curve"/>
      <point x="728" y="170"/>
      <point x="756" y="170"/>
    </contour>
  </outline>
</glyph>
<glyph name="ampersand" format="1">
  <advance width="746"/>
  <unicode hex="0026"/>
  <outline>
    <contour>
      <point x="722" y="53" type="line"/>
      <point x="616" y="150"/>
      <point x="494" y="270"/>
      <point x="385" y="372" type="curve"/>
      <point x="325" y="429"/>
      <point x="246" y="470"/>
      <point x="246" y="555" type="curve"/>
      <point x="246" y="602"/>
      <point x="274" y="636"/>
      <point x="321" y="636" type="curve"/>
      <point x="374" y="636"/>
      <point x="410" y="608"/>
      <point x="410" y="557" type="curve"/>
      <point x="410" y="479"/>
      <point x="345" y="449"/>
      <point x="272" y="413" type="curve"/>
      <point x="163" y="357"/>
      <point x="58" y="315"/>
      <point x="58" y="196" type="curve"/>
      <point x="58" y="61"/>
      <point x="170" y="-5"/>
      <point x="315" y="-5" type="curve"/>
      <point x="514" y="-5"/>
      <point x="634" y="122"/>
      <point x="703" y="313" type="curve"/>
      <point x="599" y="336"/>
      <point x="703" y="313"/>
      <point x="599" y="336" type="curve"/>
      <point x="546" y="192"/>
      <point x="468" y="87"/>
      <point x="320" y="87" type="curve"/>
      <point x="240" y="87"/>
      <point x="179" y="120"/>
      <point x="179" y="196" type="curve"/>
      <point x="179" y="277"/>
      <point x="249" y="302"/>
      <point x="323" y="340" type="curve"/>
      <point x="430" y="395"/>
      <point x="529" y="440"/>
      <point x="531" y="557" type="curve"/>
      <point x="531" y="669"/>
      <point x="443" y="727"/>
      <point x="326" y="727" type="curve"/>
      <point x="212" y="727"/>
      <point x="129" y="665"/>
      <point x="129" y="555" type="curve"/>
      <point x="129" y="446"/>
      <point x="221" y="390"/>
      <point x="301" y="317" type="curve"/>
      <point x="408" y="215"/>
      <point x="546" y="83"/>
      <point x="650" y="-14" type="curve"/>
    </contour>
  </outline>
</glyph>
<glyph name="parenleft" format="1">
  <advance width="401"/>
  <unicode hex="0028"/>
  <outline>
    <contour>
      <point x="395" y="-211" type="curve"/>
      <point x="235" y="-55"/>
      <point x="165" y="100"/>
      <point x="165" y="326" type="curve"/>
      <point x="165" y="553"/>
      <point x="235" y="707"/>
      <point x="394" y="866" type="curve"/>
      <point x="322" y="925"/>
      <point x="394" y="866"/>
      <point x="322" y="925" type="curve"/>
      <point x="140" y="749"/>
      <point x="46" y="583"/>
      <point x="46" y="326" type="curve"/>
      <point x="46" y="69"/>
      <point x="140" y="-97"/>
      <point x="323" y="-275" type="curve"/>
      <point x="395" y="-211"/>
      <point x="323" y="-275"/>
    </contour>
  </outline>
</glyph>
<glyph name="parenright" format="1">
  <advance width="408"/>
  <unicode hex="0029"/>
  <outline>
    <contour>
      <point x="71" y="-289" type="curve"/>
      <point x="257" y="-103"/>
      <point x="363" y="63"/>
      <point x="363" y="329" type="curve"/>
      <point x="363" y="588"/>
      <point x="264" y="752"/>
      <point x="75" y="927" type="curve"/>
      <point x="3" y="863"/>
      <point x="75" y="927"/>
      <point x="3" y="863" type="curve"/>
      <point x="168" y="705"/>
      <point x="243" y="553"/>
      <point x="243" y="324" type="curve"/>
      <point x="243" y="91"/>
      <point x="159" y="-62"/>
      <point x="-1" y="-230" type="curve"/>
      <point x="71" y="-289"/>
      <point x="-1" y="-230"/>
    </contour>
  </outline>
</glyph>
<glyph name="asterisk" format="1">
  <advance width="587"/>
  <unicode hex="002A"/>
  <outline>
    <contour>
      <point x="333" y="582" type="line"/>
      <point x="339" y="799" type="line"/>
      <point x="246" y="799" type="line"/>
      <point x="252" y="582" type="line"/>
    </contour>
    <contour>
      <point x="323" y="533" type="line"/>
      <point x="530" y="600" type="line"/>
      <point x="498" y="688" type="line"/>
      <point x="295" y="610" type="line"/>
    </contour>
    <contour>
      <point x="273" y="527" type="line"/>
      <point x="406" y="354" type="line"/>
      <point x="477" y="414" type="line"/>
      <point x="335" y="579" type="line"/>
    </contour>
    <contour>
      <point x="254" y="578" type="line"/>
      <point x="111" y="413" type="line"/>
      <point x="184" y="353" type="line"/>
      <point x="316" y="526" type="line"/>
    </contour>
    <contour>
      <point x="292" y="607" type="line"/>
      <point x="89" y="686" type="line"/>
      <point x="57" y="598" type="line"/>
      <point x="264" y="531" type="line"/>
    </contour>
  </outline>
</glyph>
<glyph name="plus" format="1">
  <advance width="671"/>
  <unicode hex="002B"/>
  <outline>
    <contour>
      <point x="46" y="263" type="curve"/>
      <point x="626" y="263" type="line"/>
      <point x="626" y="363"/>
      <point x="626" y="263"/>
      <point x="626" y="363" type="curve"/>
      <point x="46" y="363" type="line"/>
      <point x="46" y="263"/>
      <point x="46" y="363"/>
    </contour>
    <contour>
      <point x="394" y="32" type="curve"/>
      <point x="394" y="584" type="line"/>
      <point x="273" y="584"/>
      <point x="401" y="584"/>
      <point x="280" y="584" type="curve"/>
      <point x="280" y="32" type="line"/>
      <point x="401" y="32"/>
      <point x="273" y="32"/>
    </contour>
  </outline>
</glyph>
<glyph name="comma" format="1">
  <advance width="294"/>
  <unicode hex="002C"/>
  <outline>
    <contour>
      <point x="61" y="-119" type="line"/>
      <point x="152" y="-113"/>
      <point x="216" y="-50"/>
      <point x="216" y="44" type="curve"/>
      <point x="216" y="113"/>
      <point x="185" y="160"/>
      <point x="136" y="160" type="curve"/>
      <point x="96" y="160"/>
      <point x="68" y="139"/>
      <point x="68" y="100" type="curve"/>
      <point x="68" y="63"/>
      <point x="94" y="40"/>
      <point x="133" y="39" type="curve"/>
      <point x="132" y="4"/>
      <point x="121" y="-40"/>
      <point x="58" y="-54" type="curve"/>
    </contour>
  </outline>
</glyph>
<glyph name="hyphen" format="1">
  <advance width="453"/>
  <unicode hex="002D"/>
  <outline>
    <contour>
      <point x="75" y="231" type="curve"/>
      <point x="176" y="231"/>
      <point x="277" y="231"/>
      <point x="378" y="231" type="curve"/>
      <point x="378" y="331"/>
      <point x="378" y="231"/>
      <point x="378" y="331" type="curve"/>
      <point x="277" y="331"/>
      <point x="176" y="331"/>
      <point x="75" y="331" type="curve"/>
      <point x="75" y="231"/>
      <point x="75" y="331"/>
    </contour>
  </outline>
</glyph>
<glyph name="period" format="1">
  <advance width="275"/>
  <unicode hex="002E"/>
  <outline>
    <contour>
      <point x="206" y="51" type="curve"/>
      <point x="206" y="92"/>
      <point x="177" y="111"/>
      <point x="136" y="111" type="curve"/>
      <point x="96" y="111"/>
      <point x="69" y="90"/>
      <point x="69" y="51" type="curve"/>
      <point x="203" y="51"/>
      <point x="72" y="51"/>
      <point x="206" y="51" type="curve"/>
      <point x="206" y="10"/>
      <point x="177" y="-9"/>
      <point x="136" y="-9" type="curve"/>
      <point x="95" y="-9"/>
      <point x="69" y="12"/>
      <point x="69" y="51" type="curve"/>
      <point x="203" y="51"/>
      <point x="72" y="51"/>
    </contour>
  </outline>
</glyph>
<glyph name="slash" format="1">
  <advance width="624"/>
  <unicode hex="002F"/>
  <outline>
    <contour>
      <point x="151" y="-25" type="curve"/>
      <point x="298" y="248"/>
      <point x="447" y="522"/>
      <point x="595" y="795" type="curve"/>
      <point x="473" y="795"/>
      <point x="595" y="795"/>
      <point x="473" y="795" type="curve"/>
      <point x="325" y="522"/>
      <point x="178" y="248"/>
      <point x="29" y="-25" type="curve"/>
      <point x="151" y="-25"/>
      <point x="29" y="-25"/>
    </contour>
  </outline>
</glyph>
<glyph name="one" format="1">
  <advance width="491"/>
  <unicode hex="0031"/>
  <outline>
    <contour>
      <point x="291" y="0" type="curve"/>
      <point x="344" y="0"/>
      <point x="398" y="0"/>
      <point x="452" y="0" type="curve"/>
      <point x="452" y="92"/>
      <point x="452" y="0"/>
      <point x="452" y="92" type="curve"/>
      <point x="291" y="92"/>
      <point x="452" y="92"/>
      <point x="291" y="92" type="curve"/>
      <point x="291" y="0"/>
      <point x="291" y="92"/>
    </contour>
    <contour>
      <point x="291" y="92" type="curve"/>
      <point x="128" y="92"/>
      <point x="291" y="92"/>
      <point x="128" y="92" type="curve"/>
      <point x="128" y="0"/>
      <point x="128" y="92"/>
      <point x="128" y="0" type="curve"/>
      <point x="182" y="0"/>
      <point x="236" y="0"/>
      <point x="291" y="0" type="curve"/>
      <point x="291" y="92"/>
      <point x="291" y="0"/>
    </contour>
    <contour>
      <point x="86" y="485" type="curve"/>
      <point x="317" y="661"/>
      <point x="86" y="485"/>
      <point x="317" y="661" type="curve"/>
      <point x="228" y="722"/>
      <point x="317" y="661"/>
      <point x="228" y="722" type="curve"/>
      <point x="25" y="564"/>
      <point x="228" y="722"/>
      <point x="25" y="564" type="curve"/>
      <point x="86" y="485"/>
      <point x="25" y="564"/>
    </contour>
    <contour>
      <point x="349" y="0" type="curve"/>
      <point x="349" y="241"/>
      <point x="349" y="481"/>
      <point x="349" y="722" type="curve"/>
      <point x="228" y="722"/>
      <point x="349" y="722"/>
      <point x="228" y="722" type="curve"/>
      <point x="228" y="481"/>
      <point x="228" y="241"/>
      <point x="228" y="0" type="curve"/>
      <point x="349" y="0"/>
      <point x="228" y="0"/>
    </contour>
  </outline>
</glyph>
<glyph name="two" format="1">
  <advance width="658"/>
  <unicode hex="0032"/>
  <outline>
    <contour>
      <point x="593" y="91" type="curve"/>
      <point x="593" y="203"/>
      <point x="593" y="86"/>
      <point x="593" y="197" type="curve"/>
      <point x="499" y="197"/>
      <point x="593" y="197"/>
      <point x="499" y="197" type="curve"/>
      <point x="499" y="86"/>
      <point x="499" y="203"/>
      <point x="499" y="91" type="curve"/>
      <point x="593" y="91"/>
      <point x="499" y="91"/>
    </contour>
    <contour>
      <point x="51" y="0" type="curve"/>
      <point x="262" y="0"/>
      <point x="439" y="0"/>
      <point x="593" y="0" type="curve"/>
      <point x="593" y="91"/>
      <point x="593" y="0"/>
      <point x="593" y="91" type="curve"/>
      <point x="420" y="91"/>
      <point x="225" y="92"/>
      <point x="51" y="92" type="curve"/>
      <point x="51" y="0"/>
      <point x="51" y="91"/>
    </contour>
    <contour>
      <point x="140" y="523" type="curve"/>
      <point x="192" y="590"/>
      <point x="234" y="631"/>
      <point x="310" y="631" type="curve"/>
      <point x="391" y="631"/>
      <point x="440" y="590"/>
      <point x="440" y="507" type="curve"/>
      <point x="440" y="404"/>
      <point x="365" y="340"/>
      <point x="281" y="275" type="curve"/>
      <point x="204" y="213"/>
      <point x="129" y="154"/>
      <point x="51" y="92" type="curve"/>
      <point x="54" y="0"/>
      <point x="51" y="91"/>
      <point x="54" y="0" type="curve"/>
      <point x="194" y="64"/>
      <point x="274" y="137"/>
      <point x="357" y="205" type="curve"/>
      <point x="468" y="289"/>
      <point x="553" y="367"/>
      <point x="553" y="512" type="curve"/>
      <point x="553" y="655"/>
      <point x="461" y="727"/>
      <point x="315" y="727" type="curve"/>
      <point x="198" y="727"/>
      <point x="115" y="674"/>
      <point x="59" y="576" type="curve"/>
      <point x="140" y="523"/>
      <point x="59" y="576"/>
    </contour>
  </outline>
</glyph>
<glyph name="three" format="1">
  <advance width="595"/>
  <unicode hex="0033"/>
  <outline>
    <contour>
      <point x="48" y="56" type="curve"/>
      <point x="104" y="20"/>
      <point x="171" y="-5"/>
      <point x="256" y="-5" type="curve"/>
      <point x="421" y="-5"/>
      <point x="537" y="54"/>
      <point x="537" y="213" type="curve"/>
      <point x="537" y="352"/>
      <point x="384" y="409"/>
      <point x="171" y="409" type="curve"/>
      <point x="171" y="333"/>
      <point x="171" y="407"/>
      <point x="171" y="331" type="curve"/>
      <point x="300" y="331"/>
      <point x="421" y="297"/>
      <point x="421" y="209" type="curve"/>
      <point x="421" y="117"/>
      <point x="344" y="91"/>
      <point x="260" y="91" type="curve"/>
      <point x="210" y="91"/>
      <point x="159" y="105"/>
      <point x="105" y="132" type="curve"/>
      <point x="48" y="56"/>
      <point x="105" y="132"/>
    </contour>
    <contour>
      <point x="116" y="573" type="curve"/>
      <point x="146" y="602"/>
      <point x="198" y="631"/>
      <point x="253" y="631" type="curve"/>
      <point x="332" y="631"/>
      <point x="387" y="606"/>
      <point x="387" y="530" type="curve"/>
      <point x="387" y="452"/>
      <point x="286" y="421"/>
      <point x="171" y="421" type="curve"/>
      <point x="171" y="345"/>
      <point x="171" y="420"/>
      <point x="171" y="344" type="curve"/>
      <point x="355" y="344"/>
      <point x="502" y="398"/>
      <point x="502" y="534" type="curve"/>
      <point x="502" y="669"/>
      <point x="403" y="727"/>
      <point x="262" y="727" type="curve"/>
      <point x="171" y="727"/>
      <point x="90" y="686"/>
      <point x="49" y="639" type="curve"/>
      <point x="116" y="573"/>
      <point x="49" y="639"/>
    </contour>
  </outline>
</glyph>
<glyph name="four" format="1">
  <advance width="657"/>
  <unicode hex="0034"/>
  <outline>
    <contour>
      <point x="410" y="91" type="line"/>
      <point x="269" y="91" type="line"/>
      <point x="269" y="0" type="line"/>
      <point x="410" y="0" type="line"/>
    </contour>
    <contour>
      <point x="410" y="0" type="line"/>
      <point x="551" y="0" type="line"/>
      <point x="551" y="91" type="line"/>
      <point x="410" y="91" type="line"/>
    </contour>
    <contour>
      <point x="80" y="248" type="line"/>
      <point x="447" y="677" type="line"/>
      <point x="351" y="702" type="line"/>
      <point x="34" y="335" type="line"/>
    </contour>
    <contour>
      <point x="616" y="335" type="line"/>
      <point x="34" y="335" type="line"/>
      <point x="34" y="234" type="line"/>
      <point x="616" y="234" type="line"/>
    </contour>
    <contour>
      <point x="471" y="37" type="line"/>
      <point x="471" y="702" type="line"/>
      <point x="352" y="702" type="line"/>
      <point x="352" y="37" type="line"/>
    </contour>
  </outline>
</glyph>
<glyph name="five" format="1">
  <advance width="589"/>
  <unicode hex="0035"/>
  <outline>
    <contour>
      <point x="82" y="722" type="curve"/>
      <point x="82" y="625"/>
      <point x="82" y="515"/>
      <point x="82" y="381" type="curve"/>
      <point x="198" y="350"/>
      <point x="82" y="381"/>
      <point x="198" y="350" type="curve"/>
      <point x="198" y="440"/>
      <point x="198" y="541"/>
      <point x="198" y="631" type="curve"/>
      <point x="82" y="722"/>
      <point x="198" y="631"/>
    </contour>
    <contour>
      <point x="198" y="350" type="curve"/>
      <point x="217" y="367"/>
      <point x="254" y="378"/>
      <point x="282" y="378" type="curve"/>
      <point x="369" y="378"/>
      <point x="416" y="326"/>
      <point x="416" y="239" type="curve"/>
      <point x="416" y="149"/>
      <point x="351" y="91"/>
      <point x="259" y="91" type="curve"/>
      <point x="204" y="91"/>
      <point x="161" y="101"/>
      <point x="106" y="126" type="curve"/>
      <point x="50" y="43"/>
      <point x="106" y="126"/>
      <point x="50" y="43" type="curve"/>
      <point x="117" y="11"/>
      <point x="178" y="-5"/>
      <point x="254" y="-5" type="curve"/>
      <point x="413" y="-5"/>
      <point x="537" y="86"/>
      <point x="537" y="238" type="curve"/>
      <point x="537" y="384"/>
      <point x="440" y="476"/>
      <point x="292" y="476" type="curve"/>
      <point x="222" y="476"/>
      <point x="141" y="453"/>
      <point x="82" y="382" type="curve"/>
      <point x="198" y="350"/>
      <point x="82" y="382"/>
    </contour>
    <contour>
      <point x="505" y="722" type="curve"/>
      <point x="361" y="722"/>
      <point x="216" y="722"/>
      <point x="82" y="722" type="curve"/>
      <point x="198" y="631"/>
      <point x="82" y="722"/>
      <point x="198" y="631" type="curve"/>
      <point x="293" y="631"/>
      <point x="399" y="631"/>
      <point x="505" y="631" type="curve"/>
      <point x="505" y="722"/>
      <point x="505" y="631"/>
    </contour>
  </outline>
</glyph>
<glyph name="six" format="1">
  <advance width="656"/>
  <unicode hex="0036"/>
  <outline>
    <contour>
      <point x="154" y="220" type="curve"/>
      <point x="190" y="301"/>
      <point x="252" y="346"/>
      <point x="342" y="346" type="curve"/>
      <point x="427" y="346"/>
      <point x="479" y="304"/>
      <point x="479" y="221" type="curve"/>
      <point x="479" y="140"/>
      <point x="425" y="98"/>
      <point x="343" y="98" type="curve"/>
      <point x="237" y="98"/>
      <point x="171" y="154"/>
      <point x="171" y="256" type="curve"/>
      <point x="171" y="482"/>
      <point x="345" y="577"/>
      <point x="577" y="640" type="curve"/>
      <point x="548" y="729"/>
      <point x="577" y="640"/>
      <point x="548" y="729" type="curve"/>
      <point x="278" y="662"/>
      <point x="55" y="535"/>
      <point x="55" y="251" type="curve"/>
      <point x="55" y="83"/>
      <point x="166" y="-10"/>
      <point x="339" y="-10" type="curve"/>
      <point x="496" y="-10"/>
      <point x="600" y="70"/>
      <point x="600" y="221" type="curve"/>
      <point x="600" y="368"/>
      <point x="501" y="442"/>
      <point x="355" y="442" type="curve"/>
      <point x="219" y="442"/>
      <point x="127" y="351"/>
      <point x="82" y="256" type="curve"/>
      <point x="154" y="220"/>
      <point x="82" y="256"/>
    </contour>
  </outline>
</glyph>
<glyph name="seven" format="1">
  <advance width="590"/>
  <unicode hex="0037"/>
  <outline>
    <contour>
      <point x="150" y="526" type="curve"/>
      <point x="150" y="633" type="curve"/>
      <point x="56" y="633" type="curve"/>
      <point x="56" y="526" type="curve"/>
    </contour>
    <contour>
      <point x="56" y="631" type="curve"/>
      <point x="569" y="631" type="curve"/>
      <point x="569" y="722" type="curve"/>
      <point x="56" y="722" type="curve"/>
    </contour>
    <contour>
      <point x="498" y="722" type="curve"/>
      <point x="76" y="0" type="curve"/>
      <point x="209" y="0" type="curve"/>
      <point x="569" y="631" type="curve"/>
    </contour>
  </outline>
</glyph>
<glyph name="eight" format="1">
  <advance width="644"/>
  <unicode hex="0038"/>
  <outline>
    <contour>
      <point x="81" y="542" type="curve"/>
      <point x="81" y="424"/>
      <point x="175" y="394"/>
      <point x="287" y="346" type="curve"/>
      <point x="381" y="305"/>
      <point x="461" y="282"/>
      <point x="461" y="189" type="curve"/>
      <point x="461" y="117"/>
      <point x="404" y="89"/>
      <point x="322" y="89" type="curve"/>
      <point x="239" y="89"/>
      <point x="182" y="116"/>
      <point x="182" y="189" type="curve"/>
      <point x="182" y="284"/>
      <point x="266" y="304"/>
      <point x="360" y="346" type="curve"/>
      <point x="469" y="396"/>
      <point x="563" y="424"/>
      <point x="563" y="540" type="curve"/>
      <point x="563" y="674"/>
      <point x="467" y="727"/>
      <point x="322" y="727" type="curve"/>
      <point x="180" y="727"/>
      <point x="81" y="673"/>
      <point x="81" y="542" type="curve"/>
      <point x="202" y="542"/>
      <point x="81" y="542"/>
      <point x="202" y="542" type="curve"/>
      <point x="202" y="604"/>
      <point x="248" y="633"/>
      <point x="317" y="633" type="curve"/>
      <point x="392" y="633"/>
      <point x="442" y="607"/>
      <point x="442" y="540" type="curve"/>
      <point x="442" y="459"/>
      <point x="367" y="445"/>
      <point x="285" y="410" type="curve"/>
      <point x="162" y="355"/>
      <point x="61" y="320"/>
      <point x="61" y="189" type="curve"/>
      <point x="61" y="50"/>
      <point x="165" y="-5"/>
      <point x="316" y="-5" type="curve"/>
      <point x="472" y="-5"/>
      <point x="583" y="47"/>
      <point x="583" y="189" type="curve"/>
      <point x="583" y="318"/>
      <point x="482" y="356"/>
      <point x="361" y="410" type="curve"/>
      <point x="278" y="447"/>
      <point x="202" y="461"/>
      <point x="202" y="542" type="curve"/>
      <point x="81" y="542"/>
      <point x="202" y="542"/>
    </contour>
  </outline>
</glyph>
<glyph name="nine" format="1">
  <advance width="657"/>
  <unicode hex="0039"/>
  <outline>
    <contour>
      <point x="506" y="488" type="curve"/>
      <point x="467" y="410"/>
      <point x="411" y="376"/>
      <point x="323" y="376" type="curve"/>
      <point x="234" y="376"/>
      <point x="175" y="419"/>
      <point x="175" y="506" type="curve"/>
      <point x="175" y="585"/>
      <point x="231" y="624"/>
      <point x="312" y="624" type="curve"/>
      <point x="419" y="624"/>
      <point x="485" y="570"/>
      <point x="485" y="466" type="curve"/>
      <point x="485" y="241"/>
      <point x="318" y="144"/>
      <point x="84" y="83" type="curve"/>
      <point x="119" y="-11"/>
      <point x="84" y="83"/>
      <point x="119" y="-11" type="curve"/>
      <point x="391" y="50"/>
      <point x="601" y="187"/>
      <point x="601" y="471" type="curve"/>
      <point x="601" y="639"/>
      <point x="490" y="732"/>
      <point x="317" y="732" type="curve"/>
      <point x="160" y="732"/>
      <point x="56" y="652"/>
      <point x="56" y="501" type="curve"/>
      <point x="56" y="354"/>
      <point x="159" y="280"/>
      <point x="312" y="280" type="curve"/>
      <point x="443" y="280"/>
      <point x="520" y="355"/>
      <point x="565" y="461" type="curve"/>
      <point x="506" y="488"/>
      <point x="565" y="461"/>
    </contour>
  </outline>
</glyph>
<glyph name="colon" format="1">
  <advance width="288"/>
  <unicode hex="003A"/>
  <outline>
    <contour>
      <point x="213" y="328" type="curve"/>
      <point x="213" y="368"/>
      <point x="183" y="388"/>
      <point x="143" y="388" type="curve"/>
      <point x="103" y="388"/>
      <point x="76" y="366"/>
      <point x="76" y="328" type="curve"/>
      <point x="210" y="328"/>
      <point x="79" y="328"/>
      <point x="213" y="328" type="curve"/>
      <point x="213" y="286"/>
      <point x="184" y="268"/>
      <point x="143" y="268" type="curve"/>
      <point x="102" y="268"/>
      <point x="76" y="288"/>
      <point x="76" y="328" type="curve"/>
      <point x="210" y="328"/>
      <point x="79" y="328"/>
    </contour>
    <contour>
      <point x="212" y="106" type="curve"/>
      <point x="212" y="147"/>
      <point x="183" y="167"/>
      <point x="143" y="167" type="curve"/>
      <point x="102" y="167"/>
      <point x="75" y="145"/>
      <point x="75" y="106" type="curve"/>
      <point x="209" y="106"/>
      <point x="78" y="106"/>
      <point x="212" y="106" type="curve"/>
      <point x="212" y="65"/>
      <point x="183" y="47"/>
      <point x="142" y="47" type="curve"/>
      <point x="102" y="47"/>
      <point x="75" y="67"/>
      <point x="75" y="106" type="curve"/>
      <point x="209" y="106"/>
      <point x="78" y="106"/>
    </contour>
  </outline>
</glyph>
<glyph name="semicolon" format="1">
  <advance width="311"/>
  <unicode hex="003B"/>
  <outline>
    <contour>
      <point x="73" y="-168" type="line"/>
      <point x="173" y="-168"/>
      <point x="236" y="-101"/>
      <point x="236" y="-8" type="curve"/>
      <point x="236" y="64"/>
      <point x="204" y="112"/>
      <point x="154" y="112" type="curve"/>
      <point x="112" y="112"/>
      <point x="83" y="92"/>
      <point x="83" y="52" type="curve"/>
      <point x="83" y="15"/>
      <point x="109" y="-7"/>
      <point x="150" y="-8" type="curve"/>
      <point x="150" y="-43"/>
      <point x="141" y="-94"/>
      <point x="73" y="-102" type="curve"/>
    </contour>
    <contour>
      <point x="221" y="388" type="curve"/>
      <point x="221" y="429"/>
      <point x="191" y="449"/>
      <point x="151" y="449" type="curve"/>
      <point x="110" y="449"/>
      <point x="83" y="427"/>
      <point x="83" y="388" type="curve"/>
      <point x="218" y="388"/>
      <point x="86" y="388"/>
      <point x="221" y="388" type="curve"/>
      <point x="221" y="347"/>
      <point x="191" y="329"/>
      <point x="150" y="329" type="curve"/>
      <point x="110" y="329"/>
      <point x="83" y="349"/>
      <point x="83" y="388" type="curve"/>
      <point x="218" y="388"/>
      <point x="86" y="388"/>
    </contour>
  </outline>
</glyph>
<glyph name="less" format="1">
  <advance width="749"/>
  <unicode hex="003C"/>
  <outline>
    <contour>
      <point x="674" y="620" type="curve"/>
      <point x="463" y="530"/>
      <point x="251" y="440"/>
      <point x="40" y="350" type="curve"/>
      <point x="40" y="250"/>
      <point x="40" y="350"/>
      <point x="40" y="250" type="curve"/>
      <point x="251" y="340"/>
      <point x="463" y="430"/>
      <point x="674" y="520" type="curve"/>
      <point x="674" y="620"/>
      <point x="674" y="520"/>
    </contour>
    <contour>
      <point x="685" y="86" type="curve"/>
      <point x="470" y="174"/>
      <point x="255" y="262"/>
      <point x="40" y="350" type="curve"/>
      <point x="40" y="250"/>
      <point x="40" y="350"/>
      <point x="40" y="250" type="curve"/>
      <point x="255" y="162"/>
      <point x="470" y="74"/>
      <point x="685" y="-14" type="curve"/>
      <point x="685" y="86"/>
      <point x="685" y="-14"/>
    </contour>
  </outline>
</glyph>
<glyph name="equal" format="1">
  <advance width="815"/>
  <unicode hex="003D"/>
  <outline>
    <contour>
      <point x="80" y="169" type="curve"/>
      <point x="298" y="169"/>
      <point x="517" y="169"/>
      <point x="735" y="169" type="curve"/>
      <point x="735" y="266"/>
      <point x="735" y="169"/>
      <point x="735" y="266" type="curve"/>
      <point x="517" y="266"/>
      <point x="298" y="266"/>
      <point x="80" y="266" type="curve"/>
      <point x="80" y="169"/>
      <point x="80" y="266"/>
    </contour>
    <contour>
      <point x="80" y="391" type="curve"/>
      <point x="298" y="391"/>
      <point x="517" y="391"/>
      <point x="735" y="391" type="curve"/>
      <point x="735" y="488"/>
      <point x="735" y="391"/>
      <point x="735" y="488" type="curve"/>
      <point x="517" y="488"/>
      <point x="298" y="488"/>
      <point x="80" y="488" type="curve"/>
      <point x="80" y="391"/>
      <point x="80" y="488"/>
    </contour>
  </outline>
</glyph>
<glyph name="greater" format="1">
  <advance width="750"/>
  <unicode hex="003E"/>
  <outline>
    <contour>
      <point x="75" y="-14" type="curve"/>
      <point x="287" y="76"/>
      <point x="499" y="166"/>
      <point x="710" y="256" type="curve"/>
      <point x="710" y="356"/>
      <point x="710" y="256"/>
      <point x="710" y="356" type="curve"/>
      <point x="499" y="266"/>
      <point x="287" y="176"/>
      <point x="75" y="86" type="curve"/>
      <point x="75" y="-14"/>
      <point x="75" y="86"/>
    </contour>
    <contour>
      <point x="65" y="520" type="curve"/>
      <point x="279" y="432"/>
      <point x="495" y="344"/>
      <point x="710" y="256" type="curve"/>
      <point x="710" y="356"/>
      <point x="710" y="256"/>
      <point x="710" y="356" type="curve"/>
      <point x="495" y="444"/>
      <point x="279" y="532"/>
      <point x="65" y="620" type="curve"/>
      <point x="65" y="520"/>
      <point x="65" y="620"/>
    </contour>
  </outline>
</glyph>
<glyph name="at" format="1">
  <advance width="912"/>
  <unicode hex="0040"/>
  <outline>
    <contour>
      <point x="618" y="-20" type="curve"/>
      <point x="565" y="-43"/>
      <point x="527" y="-51"/>
      <point x="472" y="-51" type="curve"/>
      <point x="288" y="-51"/>
      <point x="165" y="36"/>
      <point x="165" y="212" type="curve"/>
      <point x="165" y="383"/>
      <point x="286" y="465"/>
      <point x="464" y="465" type="curve"/>
      <point x="632" y="465"/>
      <point x="745" y="379"/>
      <point x="745" y="215" type="curve"/>
      <point x="745" y="159"/>
      <point x="739" y="113"/>
      <point x="701" y="113" type="curve"/>
      <point x="661" y="113"/>
      <point x="650" y="158"/>
      <point x="650" y="217" type="curve"/>
      <point x="650" y="336"/>
      <point x="576" y="406"/>
      <point x="455" y="406" type="curve"/>
      <point x="323" y="406"/>
      <point x="246" y="340"/>
      <point x="246" y="214" type="curve"/>
      <point x="246" y="87"/>
      <point x="316" y="14"/>
      <point x="443" y="14" type="curve"/>
      <point x="555" y="14"/>
      <point x="612" y="84"/>
      <point x="633" y="198" type="curve"/>
      <point x="556" y="217"/>
      <point x="633" y="198"/>
      <point x="556" y="217" type="curve"/>
      <point x="539" y="153"/>
      <point x="520" y="105"/>
      <point x="458" y="105" type="curve"/>
      <point x="393" y="105"/>
      <point x="358" y="148"/>
      <point x="358" y="218" type="curve"/>
      <point x="358" y="279"/>
      <point x="388" y="314"/>
      <point x="447" y="314" type="curve"/>
      <point x="511" y="314"/>
      <point x="540" y="276"/>
      <point x="540" y="212" type="curve"/>
      <point x="540" y="102"/>
      <point x="587" y="26"/>
      <point x="691" y="26" type="curve"/>
      <point x="802" y="26"/>
      <point x="854" y="103"/>
      <point x="854" y="219" type="curve"/>
      <point x="854" y="444"/>
      <point x="701" y="561"/>
      <point x="468" y="561" type="curve"/>
      <point x="218" y="561"/>
      <point x="53" y="446"/>
      <point x="53" y="207" type="curve"/>
      <point x="53" y="-28"/>
      <point x="219" y="-143"/>
      <point x="466" y="-143" type="curve"/>
      <point x="545" y="-143"/>
      <point x="601" y="-129"/>
      <point x="661" y="-98" type="curve"/>
      <point x="618" y="-20"/>
      <point x="661" y="-98"/>
    </contour>
  </outline>
</glyph>
<glyph name="B" format="1">
  <advance width="741"/>
  <unicode hex="0042"/>
  <outline>
    <contour>
      <point x="212" y="722" type="curve"/>
      <point x="162" y="722"/>
      <point x="114" y="722"/>
      <point x="64" y="722" type="curve"/>
      <point x="64" y="631"/>
      <point x="64" y="722"/>
      <point x="64" y="631" type="curve"/>
      <point x="214" y="631"/>
      <point x="62" y="631"/>
      <point x="212" y="631" type="curve"/>
      <point x="212" y="722"/>
      <point x="212" y="631"/>
    </contour>
    <contour>
      <point x="211" y="91" type="curve"/>
      <point x="61" y="91"/>
      <point x="213" y="91"/>
      <point x="63" y="91" type="curve"/>
      <point x="63" y="0"/>
      <point x="63" y="91"/>
      <point x="63" y="0" type="curve"/>
      <point x="113" y="0"/>
      <point x="161" y="0"/>
      <point x="211" y="0" type="curve"/>
      <point x="211" y="91"/>
      <point x="211" y="0"/>
    </contour>
    <contour>
      <point x="201" y="631" type="curve"/>
      <point x="274" y="631"/>
      <point x="338" y="631"/>
      <point x="411" y="631" type="curve"/>
      <point x="476" y="631"/>
      <point x="518" y="599"/>
      <point x="518" y="537" type="curve"/>
      <point x="518" y="476"/>
      <point x="463" y="451"/>
      <point x="397" y="451" type="curve"/>
      <point x="329" y="451"/>
      <point x="269" y="451"/>
      <point x="201" y="451" type="curve"/>
      <point x="201" y="385"/>
      <point x="201" y="425"/>
      <point x="201" y="359" type="curve"/>
      <point x="251" y="359"/>
      <point x="296" y="359"/>
      <point x="346" y="359" type="curve"/>
      <point x="471" y="359"/>
      <point x="639" y="397"/>
      <point x="639" y="535" type="curve"/>
      <point x="639" y="661"/>
      <point x="548" y="722"/>
      <point x="415" y="722" type="curve"/>
      <point x="341" y="722"/>
      <point x="275" y="722"/>
      <point x="201" y="722" type="curve"/>
      <point x="201" y="656"/>
      <point x="201" y="696"/>
    </contour>
    <contour>
      <point x="275" y="0" type="curve"/>
      <point x="275" y="241"/>
      <point x="275" y="481"/>
      <point x="275" y="722" type="curve"/>
      <point x="148" y="722"/>
      <point x="275" y="722"/>
      <point x="148" y="722" type="curve"/>
      <point x="148" y="481"/>
      <point x="149" y="241"/>
      <point x="148" y="0" type="curve"/>
      <point x="275" y="0"/>
      <point x="148" y="0"/>
    </contour>
    <contour>
      <point x="201" y="359" type="curve"/>
      <point x="269" y="359"/>
      <point x="329" y="359"/>
      <point x="397" y="359" type="curve"/>
      <point x="498" y="359"/>
      <point x="567" y="316"/>
      <point x="567" y="221" type="curve"/>
      <point x="567" y="133"/>
      <point x="506" y="91"/>
      <point x="412" y="91" type="curve"/>
      <point x="338" y="91"/>
      <point x="274" y="91"/>
      <point x="201" y="91" type="curve"/>
      <point x="201" y="26"/>
      <point x="201" y="66"/>
      <point x="201" y="0" type="curve"/>
      <point x="275" y="0"/>
      <point x="341" y="0"/>
      <point x="415" y="0" type="curve"/>
      <point x="578" y="0"/>
      <point x="688" y="69"/>
      <point x="688" y="220" type="curve"/>
      <point x="688" y="394"/>
      <point x="508" y="451"/>
      <point x="346" y="451" type="curve"/>
      <point x="296" y="451"/>
      <point x="251" y="451"/>
      <point x="201" y="451" type="curve"/>
      <point x="201" y="385"/>
      <point x="201" y="425"/>
    </contour>
  </outline>
</glyph>
<glyph name="C" format="1">
  <advance width="760"/>
  <unicode hex="0043"/>
  <outline>
    <contour>
      <point x="608" y="654" type="curve"/>
      <point x="608" y="534"/>
      <point x="608" y="634"/>
      <point x="608" y="514" type="curve"/>
      <point x="702" y="514"/>
      <point x="608" y="514"/>
      <point x="702" y="514" type="curve"/>
      <point x="702" y="634"/>
      <point x="702" y="534"/>
      <point x="702" y="654" type="curve"/>
      <point x="608" y="654"/>
      <point x="702" y="654"/>
    </contour>
    <contour>
      <point x="702" y="654" type="curve"/>
      <point x="624" y="696"/>
      <point x="538" y="727"/>
      <point x="440" y="727" type="curve"/>
      <point x="200" y="727"/>
      <point x="57" y="587"/>
      <point x="57" y="344" type="curve"/>
      <point x="57" y="121"/>
      <point x="192" y="-5"/>
      <point x="417" y="-5" type="curve"/>
      <point x="543" y="-5"/>
      <point x="624" y="26"/>
      <point x="711" y="93" type="curve"/>
      <point x="654" y="168"/>
      <point x="711" y="93"/>
      <point x="654" y="168" type="curve"/>
      <point x="575" y="115"/>
      <point x="514" y="92"/>
      <point x="422" y="92" type="curve"/>
      <point x="263" y="92"/>
      <point x="178" y="188"/>
      <point x="178" y="349" type="curve"/>
      <point x="178" y="523"/>
      <point x="267" y="632"/>
      <point x="435" y="632" type="curve"/>
      <point x="510" y="632"/>
      <point x="577" y="614"/>
      <point x="636" y="582" type="curve"/>
      <point x="702" y="654"/>
      <point x="636" y="582"/>
    </contour>
    <contour>
      <point x="431" y="791" type="move" name="top"/>
    </contour>
    <contour>
      <point x="447" y="5" type="move" name="bottom"/>
    </contour>
  </outline>
</glyph>
<glyph name="D" format="1">
  <advance width="855"/>
  <unicode hex="0044"/>
  <outline>
    <contour>
      <point x="213" y="91" type="curve"/>
      <point x="62" y="91"/>
      <point x="216" y="91"/>
      <point x="64" y="91" type="curve"/>
      <point x="64" y="0"/>
      <point x="64" y="91"/>
      <point x="64" y="0" type="curve"/>
      <point x="115" y="0"/>
      <point x="163" y="0"/>
      <point x="213" y="0" type="curve"/>
      <point x="213" y="91"/>
      <point x="213" y="0"/>
    </contour>
    <contour>
      <point x="213" y="722" type="curve"/>
      <point x="163" y="722"/>
      <point x="115" y="722"/>
      <point x="64" y="722" type="curve"/>
      <point x="64" y="631"/>
      <point x="64" y="722"/>
      <point x="64" y="631" type="curve"/>
      <point x="216" y="631"/>
      <point x="62" y="631"/>
      <point x="213" y="631" type="curve"/>
      <point x="213" y="722"/>
      <point x="213" y="631"/>
    </contour>
    <contour>
      <point x="151" y="722" type="curve"/>
      <point x="151" y="481"/>
      <point x="151" y="241"/>
      <point x="151" y="0" type="curve"/>
      <point x="272" y="0"/>
      <point x="151" y="0"/>
      <point x="272" y="0" type="curve"/>
      <point x="272" y="241"/>
      <point x="272" y="481"/>
      <point x="272" y="722" type="curve"/>
      <point x="151" y="722"/>
      <point x="272" y="722"/>
    </contour>
    <contour>
      <point x="213" y="0" type="curve"/>
      <point x="281" y="0"/>
      <point x="347" y="0"/>
      <point x="415" y="0" type="curve"/>
      <point x="659" y="0"/>
      <point x="798" y="116"/>
      <point x="798" y="354" type="curve"/>
      <point x="798" y="600"/>
      <point x="659" y="722"/>
      <point x="408" y="722" type="curve"/>
      <point x="343" y="722"/>
      <point x="279" y="722"/>
      <point x="213" y="722" type="curve"/>
      <point x="213" y="632"/>
      <point x="213" y="720"/>
      <point x="213" y="631" type="curve"/>
      <point x="277" y="631"/>
      <point x="339" y="631"/>
      <point x="402" y="631" type="curve"/>
      <point x="585" y="631"/>
      <point x="678" y="533"/>
      <point x="678" y="351" type="curve"/>
      <point x="678" y="182"/>
      <point x="593" y="91"/>
      <point x="425" y="91" type="curve"/>
      <point x="354" y="91"/>
      <point x="285" y="91"/>
      <point x="213" y="91" type="curve"/>
      <point x="213" y="2"/>
      <point x="213" y="90"/>
    </contour>
    <contour>
      <point x="392" y="791" type="move" name="top"/>
    </contour>
  </outline>
</glyph>
<glyph name="F" format="1">
  <advance width="661"/>
  <unicode hex="0046"/>
  <outline>
    <contour>
      <point x="212" y="0" type="curve"/>
      <point x="263" y="0"/>
      <point x="212" y="0"/>
      <point x="364" y="0" type="curve"/>
      <point x="364" y="91"/>
      <point x="364" y="0"/>
      <point x="364" y="91" type="curve"/>
      <point x="212" y="91"/>
      <point x="364" y="91"/>
      <point x="212" y="91" type="curve"/>
      <point x="212" y="0"/>
      <point x="212" y="91"/>
    </contour>
    <contour>
      <point x="212" y="722" type="curve"/>
      <point x="162" y="722"/>
      <point x="113" y="722"/>
      <point x="63" y="722" type="curve"/>
      <point x="63" y="631"/>
      <point x="63" y="722"/>
      <point x="63" y="631" type="curve"/>
      <point x="214" y="631"/>
      <point x="60" y="631"/>
      <point x="212" y="631" type="curve"/>
      <point x="212" y="722"/>
      <point x="212" y="631"/>
    </contour>
    <contour>
      <point x="212" y="91" type="curve"/>
      <point x="60" y="91"/>
      <point x="214" y="91"/>
      <point x="63" y="91" type="curve"/>
      <point x="63" y="0"/>
      <point x="63" y="91"/>
      <point x="63" y="0" type="curve"/>
      <point x="113" y="0"/>
      <point x="162" y="0"/>
      <point x="212" y="0" type="curve"/>
      <point x="212" y="91"/>
      <point x="212" y="0"/>
    </contour>
    <contour>
      <point x="534" y="677" type="curve"/>
      <point x="534" y="557"/>
      <point x="534" y="678"/>
      <point x="534" y="558" type="curve"/>
      <point x="628" y="558"/>
      <point x="534" y="558"/>
      <point x="628" y="558" type="curve"/>
      <point x="628" y="678"/>
      <point x="628" y="557"/>
      <point x="628" y="677" type="curve"/>
      <point x="534" y="677"/>
      <point x="628" y="677"/>
    </contour>
    <contour>
      <point x="216" y="327" type="curve"/>
      <point x="328" y="327"/>
      <point x="440" y="327"/>
      <point x="552" y="327" type="curve"/>
      <point x="552" y="419"/>
      <point x="552" y="327"/>
      <point x="552" y="419" type="curve"/>
      <point x="440" y="419"/>
      <point x="328" y="419"/>
      <point x="216" y="419" type="curve"/>
      <point x="216" y="327"/>
      <point x="216" y="419"/>
    </contour>
    <contour>
      <point x="273" y="0" type="curve"/>
      <point x="273" y="722" type="line"/>
      <point x="152" y="722"/>
      <point x="273" y="722"/>
      <point x="152" y="722" type="curve"/>
      <point x="152" y="481"/>
      <point x="152" y="241"/>
      <point x="152" y="0" type="curve"/>
      <point x="273" y="0"/>
      <point x="152" y="0"/>
    </contour>
    <contour>
      <point x="201" y="631" type="curve"/>
      <point x="343" y="631"/>
      <point x="485" y="631"/>
      <point x="628" y="631" type="curve"/>
      <point x="628" y="722"/>
      <point x="628" y="631"/>
      <point x="628" y="722" type="curve"/>
      <point x="485" y="722"/>
      <point x="343" y="722"/>
      <point x="201" y="722" type="curve"/>
      <point x="201" y="631"/>
      <point x="201" y="722"/>
    </contour>
  </outline>
</glyph>
<glyph name="G" format="1">
  <advance width="845"/>
  <unicode hex="0047"/>
  <outline>
    <contour>
      <point x="666" y="645" type="curve"/>
      <point x="666" y="518"/>
      <point x="666" y="630"/>
      <point x="666" y="503" type="curve"/>
      <point x="760" y="503"/>
      <point x="666" y="503"/>
      <point x="760" y="503" type="curve"/>
      <point x="760" y="630"/>
      <point x="760" y="518"/>
      <point x="760" y="645" type="curve"/>
      <point x="666" y="645"/>
      <point x="760" y="645"/>
    </contour>
    <contour>
      <point x="745" y="359" type="curve"/>
      <point x="668" y="359"/>
      <point x="592" y="359"/>
      <point x="515" y="359" type="curve"/>
      <point x="515" y="268"/>
      <point x="515" y="359"/>
      <point x="515" y="268" type="curve"/>
      <point x="592" y="268"/>
      <point x="668" y="268"/>
      <point x="745" y="268" type="curve"/>
      <point x="745" y="359"/>
      <point x="745" y="268"/>
    </contour>
    <contour>
      <point x="777" y="79" type="curve"/>
      <point x="777" y="172"/>
      <point x="777" y="265"/>
      <point x="777" y="359" type="curve"/>
      <point x="667" y="359"/>
      <point x="777" y="359"/>
      <point x="667" y="359" type="curve"/>
      <point x="667" y="265"/>
      <point x="667" y="172"/>
      <point x="667" y="79" type="curve"/>
      <point x="777" y="79"/>
      <point x="667" y="79"/>
    </contour>
    <contour>
      <point x="760" y="645" type="curve"/>
      <point x="657" y="702"/>
      <point x="565" y="727"/>
      <point x="448" y="727" type="curve"/>
      <point x="206" y="727"/>
      <point x="56" y="599"/>
      <point x="56" y="361" type="curve"/>
      <point x="56" y="119"/>
      <point x="213" y="-5"/>
      <point x="459" y="-5" type="curve"/>
      <point x="585" y="-5"/>
      <point x="665" y="23"/>
      <point x="777" y="79" type="curve"/>
      <point x="716" y="147"/>
      <point x="777" y="79"/>
      <point x="716" y="147" type="curve"/>
      <point x="629" y="105"/>
      <point x="559" y="91"/>
      <point x="459" y="91" type="curve"/>
      <point x="280" y="91"/>
      <point x="178" y="191"/>
      <point x="178" y="370" type="curve"/>
      <point x="178" y="538"/>
      <point x="278" y="632"/>
      <point x="448" y="632" type="curve"/>
      <point x="542" y="632"/>
      <point x="616" y="613"/>
      <point x="699" y="567" type="curve"/>
      <point x="760" y="645"/>
      <point x="699" y="567"/>
    </contour>
    <contour>
      <point x="446" y="791" type="move" name="top"/>
    </contour>
    <contour>
      <point x="495" y="-2" type="move" name="bottom"/>
    </contour>
  </outline>
</glyph>
<glyph name="H" format="1">
  <advance width="906"/>
  <unicode hex="0048"/>
  <outline>
    <contour>
      <point x="715" y="631" type="curve"/>
      <point x="879" y="631"/>
      <point x="701" y="631"/>
      <point x="864" y="631" type="curve"/>
      <point x="864" y="722"/>
      <point x="864" y="631"/>
      <point x="864" y="722" type="curve"/>
      <point x="810" y="722"/>
      <point x="770" y="722"/>
      <point x="715" y="722" type="curve"/>
      <point x="715" y="631"/>
      <point x="715" y="722"/>
    </contour>
    <contour>
      <point x="715" y="0" type="curve"/>
      <point x="770" y="0"/>
      <point x="810" y="0"/>
      <point x="864" y="0" type="curve"/>
      <point x="864" y="91"/>
      <point x="864" y="0"/>
      <point x="864" y="91" type="curve"/>
      <point x="701" y="91"/>
      <point x="879" y="91"/>
      <point x="715" y="91" type="curve"/>
      <point x="715" y="0"/>
      <point x="715" y="91"/>
    </contour>
    <contour>
      <point x="715" y="91" type="curve"/>
      <point x="552" y="91"/>
      <point x="730" y="91"/>
      <point x="566" y="91" type="curve"/>
      <point x="566" y="0"/>
      <point x="566" y="91"/>
      <point x="566" y="0" type="curve"/>
      <point x="621" y="0"/>
      <point x="661" y="0"/>
      <point x="715" y="0" type="curve"/>
      <point x="715" y="91"/>
      <point x="715" y="0"/>
    </contour>
    <contour>
      <point x="715" y="722" type="curve"/>
      <point x="661" y="722"/>
      <point x="621" y="722"/>
      <point x="566" y="722" type="curve"/>
      <point x="566" y="631"/>
      <point x="566" y="722"/>
      <point x="566" y="631" type="curve"/>
      <point x="730" y="631"/>
      <point x="552" y="631"/>
      <point x="715" y="631" type="curve"/>
      <point x="715" y="722"/>
      <point x="715" y="631"/>
    </contour>
    <contour>
      <point x="191" y="631" type="curve"/>
      <point x="355" y="631"/>
      <point x="177" y="631"/>
      <point x="341" y="631" type="curve"/>
      <point x="341" y="722"/>
      <point x="341" y="631"/>
      <point x="341" y="722" type="curve"/>
      <point x="286" y="722"/>
      <point x="246" y="722"/>
      <point x="191" y="722" type="curve"/>
      <point x="191" y="631"/>
      <point x="191" y="722"/>
    </contour>
    <contour>
      <point x="191" y="722" type="curve"/>
      <point x="137" y="722"/>
      <point x="97" y="722"/>
      <point x="42" y="722" type="curve"/>
      <point x="42" y="631"/>
      <point x="42" y="722"/>
      <point x="42" y="631" type="curve"/>
      <point x="206" y="631"/>
      <point x="28" y="631"/>
      <point x="191" y="631" type="curve"/>
      <point x="191" y="722"/>
      <point x="191" y="631"/>
    </contour>
    <contour>
      <point x="191" y="0" type="curve"/>
      <point x="246" y="0"/>
      <point x="177" y="0"/>
      <point x="341" y="0" type="curve"/>
      <point x="341" y="91"/>
      <point x="341" y="0"/>
      <point x="341" y="91" type="curve"/>
      <point x="177" y="91"/>
      <point x="355" y="91"/>
      <point x="191" y="91" type="curve"/>
      <point x="191" y="0"/>
      <point x="191" y="91"/>
    </contour>
    <contour>
      <point x="191" y="91" type="curve"/>
      <point x="28" y="91"/>
      <point x="206" y="91"/>
      <point x="42" y="91" type="curve"/>
      <point x="42" y="0"/>
      <point x="42" y="91"/>
      <point x="42" y="0" type="curve"/>
      <point x="97" y="0"/>
      <point x="137" y="0"/>
      <point x="191" y="0" type="curve"/>
      <point x="191" y="91"/>
      <point x="191" y="0"/>
    </contour>
    <contour>
      <point x="252" y="0" type="curve"/>
      <point x="252" y="722" type="line"/>
      <point x="131" y="722"/>
      <point x="252" y="722"/>
      <point x="131" y="722" type="curve"/>
      <point x="131" y="481"/>
      <point x="131" y="241"/>
      <point x="131" y="0" type="curve"/>
      <point x="252" y="0"/>
      <point x="131" y="0"/>
    </contour>
    <contour>
      <point x="712" y="408" type="curve"/>
      <point x="538" y="408"/>
      <point x="365" y="408"/>
      <point x="191" y="408" type="curve"/>
      <point x="191" y="317"/>
      <point x="191" y="408"/>
      <point x="191" y="317" type="curve"/>
      <point x="365" y="317"/>
      <point x="538" y="317"/>
      <point x="712" y="317" type="curve"/>
      <point x="712" y="408"/>
      <point x="712" y="317"/>
    </contour>
    <contour>
      <point x="775" y="37" type="curve"/>
      <point x="775" y="253"/>
      <point x="775" y="469"/>
      <point x="775" y="685" type="curve"/>
      <point x="654" y="685"/>
      <point x="775" y="685"/>
      <point x="654" y="685" type="curve"/>
      <point x="654" y="37" type="line"/>
      <point x="775" y="37"/>
      <point x="654" y="37"/>
    </contour>
  </outline>
</glyph>
<glyph name="I" format="1">
  <advance width="384"/>
  <unicode hex="0049"/>
  <outline>
    <contour>
      <point x="193" y="722" type="curve"/>
      <point x="138" y="722"/>
      <point x="98" y="722"/>
      <point x="44" y="722" type="curve"/>
      <point x="44" y="631"/>
      <point x="44" y="722"/>
      <point x="44" y="631" type="curve"/>
      <point x="207" y="631"/>
      <point x="29" y="631"/>
      <point x="193" y="631" type="curve"/>
      <point x="193" y="722"/>
      <point x="193" y="631"/>
    </contour>
    <contour>
      <point x="193" y="631" type="curve"/>
      <point x="357" y="631"/>
      <point x="179" y="631"/>
      <point x="342" y="631" type="curve"/>
      <point x="342" y="722"/>
      <point x="342" y="631"/>
      <point x="342" y="722" type="curve"/>
      <point x="287" y="722"/>
      <point x="247" y="722"/>
      <point x="193" y="722" type="curve"/>
      <point x="193" y="631"/>
      <point x="193" y="722"/>
    </contour>
    <contour>
      <point x="193" y="0" type="curve"/>
      <point x="247" y="0"/>
      <point x="287" y="0"/>
      <point x="342" y="0" type="curve"/>
      <point x="342" y="91"/>
      <point x="342" y="0"/>
      <point x="342" y="91" type="curve"/>
      <point x="179" y="91"/>
      <point x="357" y="91"/>
      <point x="193" y="91" type="curve"/>
      <point x="193" y="0"/>
      <point x="193" y="91"/>
    </contour>
    <contour>
      <point x="193" y="91" type="curve"/>
      <point x="29" y="91"/>
      <point x="207" y="91"/>
      <point x="44" y="91" type="curve"/>
      <point x="44" y="0"/>
      <point x="44" y="91"/>
      <point x="44" y="0" type="curve"/>
      <point x="98" y="0"/>
      <point x="138" y="0"/>
      <point x="193" y="0" type="curve"/>
      <point x="193" y="91"/>
      <point x="193" y="0"/>
    </contour>
    <contour>
      <point x="252" y="0" type="curve"/>
      <point x="252" y="241"/>
      <point x="252" y="481"/>
      <point x="252" y="722" type="curve"/>
      <point x="131" y="722"/>
      <point x="252" y="722"/>
      <point x="131" y="722" type="curve"/>
      <point x="131" y="481"/>
      <point x="131" y="241"/>
      <point x="131" y="0" type="curve"/>
      <point x="252" y="0"/>
      <point x="131" y="0"/>
    </contour>
    <contour>
      <point x="193" y="791" type="move" name="top"/>
    </contour>
    <contour>
      <point x="248" y="2" type="move" name="bottom"/>
    </contour>
  </outline>
</glyph>
<glyph name="J" format="1">
  <advance width="501"/>
  <unicode hex="004A"/>
  <outline>
    <contour>
      <point x="330" y="722" type="curve"/>
      <point x="277" y="722"/>
      <point x="238" y="722"/>
      <point x="184" y="722" type="curve"/>
      <point x="184" y="631"/>
      <point x="184" y="722"/>
      <point x="184" y="631" type="curve"/>
      <point x="345" y="631"/>
      <point x="169" y="631"/>
      <point x="330" y="631" type="curve"/>
      <point x="330" y="722"/>
      <point x="330" y="631"/>
    </contour>
    <contour>
      <point x="330" y="631" type="curve"/>
      <point x="490" y="631"/>
      <point x="316" y="631"/>
      <point x="476" y="631" type="curve"/>
      <point x="476" y="722"/>
      <point x="476" y="631"/>
      <point x="476" y="722" type="curve"/>
      <point x="423" y="722"/>
      <point x="383" y="722"/>
      <point x="330" y="722" type="curve"/>
      <point x="330" y="631"/>
      <point x="330" y="722"/>
    </contour>
    <contour>
      <point x="4" y="44" type="curve"/>
      <point x="39" y="22"/>
      <point x="89" y="-4"/>
      <point x="150" y="-4" type="curve"/>
      <point x="304" y="-4"/>
      <point x="390" y="78"/>
      <point x="390" y="239" type="curve"/>
      <point x="390" y="402"/>
      <point x="390" y="559"/>
      <point x="390" y="722" type="curve"/>
      <point x="271" y="722"/>
      <point x="388" y="722"/>
      <point x="269" y="722" type="curve"/>
      <point x="269" y="559"/>
      <point x="269" y="402"/>
      <point x="269" y="239" type="curve"/>
      <point x="269" y="149"/>
      <point x="234" y="88"/>
      <point x="150" y="88" type="curve"/>
      <point x="113" y="88"/>
      <point x="89" y="101"/>
      <point x="60" y="117" type="curve"/>
      <point x="5" y="45"/>
      <point x="59" y="115"/>
    </contour>
  </outline>
</glyph>
<glyph name="K" format="1">
  <advance width="795"/>
  <unicode hex="004B"/>
  <outline>
    <contour>
      <point x="610" y="722" type="curve"/>
      <point x="554" y="722"/>
      <point x="461" y="722"/>
      <point x="405" y="722" type="curve"/>
      <point x="405" y="631"/>
      <point x="405" y="722"/>
      <point x="405" y="631" type="curve"/>
      <point x="572" y="631"/>
      <point x="444" y="631"/>
      <point x="610" y="631" type="curve"/>
      <point x="610" y="722"/>
      <point x="610" y="631"/>
    </contour>
    <contour>
      <point x="619" y="0" type="curve"/>
      <point x="680" y="0"/>
      <point x="693" y="0"/>
      <point x="754" y="0" type="curve"/>
      <point x="754" y="91"/>
      <point x="754" y="0"/>
      <point x="754" y="91" type="curve"/>
      <point x="571" y="91"/>
      <point x="802" y="91"/>
      <point x="619" y="91" type="curve"/>
      <point x="619" y="0"/>
      <point x="619" y="91"/>
    </contour>
    <contour>
      <point x="599" y="631" type="curve"/>
      <point x="758" y="631"/>
      <point x="560" y="631"/>
      <point x="719" y="631" type="curve"/>
      <point x="719" y="722"/>
      <point x="719" y="631"/>
      <point x="719" y="722" type="curve"/>
      <point x="666" y="722"/>
      <point x="652" y="722"/>
      <point x="599" y="722" type="curve"/>
      <point x="599" y="631"/>
      <point x="599" y="722"/>
    </contour>
    <contour>
      <point x="190" y="722" type="curve"/>
      <point x="136" y="722"/>
      <point x="97" y="722"/>
      <point x="42" y="722" type="curve"/>
      <point x="42" y="631"/>
      <point x="42" y="722"/>
      <point x="42" y="631" type="curve"/>
      <point x="204" y="631"/>
      <point x="28" y="631"/>
      <point x="190" y="631" type="curve"/>
      <point x="190" y="722"/>
      <point x="190" y="631"/>
    </contour>
    <contour>
      <point x="190" y="631" type="curve"/>
      <point x="344" y="631"/>
      <point x="167" y="631"/>
      <point x="321" y="631" type="curve"/>
      <point x="321" y="722"/>
      <point x="321" y="631"/>
      <point x="321" y="722" type="curve"/>
      <point x="270" y="722"/>
      <point x="241" y="722"/>
      <point x="190" y="722" type="curve"/>
      <point x="190" y="631"/>
      <point x="190" y="722"/>
    </contour>
    <contour>
      <point x="190" y="0" type="curve"/>
      <point x="246" y="0"/>
      <point x="162" y="0"/>
      <point x="330" y="0" type="curve"/>
      <point x="330" y="91"/>
      <point x="330" y="0"/>
      <point x="330" y="91" type="curve"/>
      <point x="162" y="91"/>
      <point x="358" y="91"/>
      <point x="190" y="91" type="curve"/>
      <point x="190" y="0"/>
      <point x="190" y="91"/>
    </contour>
    <contour>
      <point x="190" y="91" type="curve"/>
      <point x="28" y="91"/>
      <point x="204" y="91"/>
      <point x="42" y="91" type="curve"/>
      <point x="42" y="0"/>
      <point x="42" y="91"/>
      <point x="42" y="0" type="curve"/>
      <point x="97" y="0"/>
      <point x="136" y="0"/>
      <point x="190" y="0" type="curve"/>
      <point x="190" y="91"/>
      <point x="190" y="0"/>
    </contour>
    <contour>
      <point x="570" y="722" type="curve"/>
      <point x="220" y="380" type="line"/>
      <point x="365" y="380"/>
      <point x="218" y="380"/>
      <point x="363" y="380" type="curve"/>
      <point x="674" y="680" type="line"/>
      <point x="534" y="680"/>
      <point x="711" y="722"/>
    </contour>
    <contour>
      <point x="251" y="0" type="curve"/>
      <point x="251" y="722" type="line"/>
      <point x="130" y="722"/>
      <point x="251" y="722"/>
      <point x="130" y="722" type="curve"/>
      <point x="130" y="481"/>
      <point x="130" y="241"/>
      <point x="130" y="0" type="curve"/>
      <point x="251" y="0"/>
      <point x="130" y="0"/>
    </contour>
    <contour>
      <point x="707" y="40" type="curve"/>
      <point x="363" y="380" type="line"/>
      <point x="218" y="380"/>
      <point x="365" y="380"/>
      <point x="220" y="380" type="curve"/>
      <point x="593" y="0" type="line"/>
      <point x="743" y="0"/>
      <point x="557" y="40"/>
    </contour>
    <contour>
      <point x="434" y="-7" type="move" name="bottom"/>
    </contour>
  </outline>
</glyph>
<glyph name="L" format="1">
  <advance width="655"/>
  <unicode hex="004C"/>
  <outline>
    <contour>
      <point x="631" y="45" type="curve"/>
      <point x="631" y="165"/>
      <point x="631" y="44"/>
      <point x="631" y="164" type="curve"/>
      <point x="537" y="164"/>
      <point x="631" y="164"/>
      <point x="537" y="164" type="curve"/>
      <point x="537" y="44"/>
      <point x="537" y="165"/>
      <point x="537" y="45" type="curve"/>
      <point x="631" y="45"/>
      <point x="537" y="45"/>
    </contour>
    <contour>
      <point x="191" y="91" type="curve"/>
      <point x="28" y="91"/>
      <point x="206" y="91"/>
      <point x="42" y="91" type="curve"/>
      <point x="42" y="0"/>
      <point x="42" y="91"/>
      <point x="42" y="0" type="curve"/>
      <point x="96" y="0"/>
      <point x="137" y="0"/>
      <point x="191" y="0" type="curve"/>
      <point x="191" y="91"/>
      <point x="191" y="0"/>
    </contour>
    <contour>
      <point x="191" y="722" type="curve"/>
      <point x="137" y="722"/>
      <point x="96" y="722"/>
      <point x="42" y="722" type="curve"/>
      <point x="42" y="631"/>
      <point x="42" y="722"/>
      <point x="42" y="631" type="curve"/>
      <point x="206" y="631"/>
      <point x="28" y="631"/>
      <point x="191" y="631" type="curve"/>
      <point x="191" y="722"/>
      <point x="191" y="631"/>
    </contour>
    <contour>
      <point x="191" y="631" type="curve"/>
      <point x="355" y="631"/>
      <point x="177" y="631"/>
      <point x="340" y="631" type="curve"/>
      <point x="340" y="722"/>
      <point x="340" y="631"/>
      <point x="340" y="722" type="curve"/>
      <point x="286" y="722"/>
      <point x="245" y="722"/>
      <point x="191" y="722" type="curve"/>
      <point x="191" y="631"/>
      <point x="191" y="722"/>
    </contour>
    <contour>
      <point x="253" y="0" type="curve"/>
      <point x="253" y="241"/>
      <point x="253" y="481"/>
      <point x="253" y="722" type="curve"/>
      <point x="132" y="722"/>
      <point x="253" y="722"/>
      <point x="132" y="722" type="curve"/>
      <point x="132" y="481"/>
      <point x="132" y="241"/>
      <point x="132" y="0" type="curve"/>
      <point x="253" y="0"/>
      <point x="132" y="0"/>
    </contour>
    <contour>
      <point x="191" y="0" type="curve"/>
      <point x="338" y="0"/>
      <point x="484" y="0"/>
      <point x="631" y="0" type="curve"/>
      <point x="631" y="91"/>
      <point x="631" y="0"/>
      <point x="631" y="91" type="curve"/>
      <point x="484" y="91"/>
      <point x="338" y="91"/>
      <point x="191" y="91" type="curve"/>
      <point x="191" y="0"/>
      <point x="191" y="91"/>
    </contour>
    <contour>
      <point x="192" y="791" type="move" name="top"/>
    </contour>
    <contour>
      <point x="382" y="-4" type="move" name="bottom"/>
    </contour>
  </outline>
</glyph>
<glyph name="M" format="1">
  <advance width="1044"/>
  <unicode hex="004D"/>
  <outline>
    <contour>
      <point x="877" y="0" type="curve"/>
      <point x="931" y="0"/>
      <point x="970" y="0"/>
      <point x="1023" y="0" type="curve"/>
      <point x="1023" y="91"/>
      <point x="1023" y="0"/>
      <point x="1023" y="91" type="curve"/>
      <point x="863" y="91"/>
      <point x="1037" y="91"/>
      <point x="877" y="91" type="curve"/>
      <point x="877" y="0"/>
      <point x="877" y="91"/>
    </contour>
    <contour>
      <point x="877" y="91" type="curve"/>
      <point x="721" y="91"/>
      <point x="892" y="91"/>
      <point x="735" y="91" type="curve"/>
      <point x="735" y="0"/>
      <point x="735" y="91"/>
      <point x="735" y="0" type="curve"/>
      <point x="787" y="0"/>
      <point x="825" y="0"/>
      <point x="877" y="0" type="curve"/>
      <point x="877" y="91"/>
      <point x="877" y="0"/>
    </contour>
    <contour>
      <point x="168" y="91" type="curve"/>
      <point x="8" y="91"/>
      <point x="182" y="91"/>
      <point x="22" y="91" type="curve"/>
      <point x="22" y="0"/>
      <point x="22" y="91"/>
      <point x="22" y="0" type="curve"/>
      <point x="76" y="0"/>
      <point x="115" y="0"/>
      <point x="168" y="0" type="curve"/>
      <point x="168" y="91"/>
      <point x="168" y="0"/>
    </contour>
    <contour>
      <point x="225" y="722" type="curve"/>
      <point x="172" y="722"/>
      <point x="133" y="722"/>
      <point x="80" y="722" type="curve"/>
      <point x="79" y="631"/>
      <point x="80" y="722"/>
      <point x="79" y="631" type="curve"/>
      <point x="240" y="631"/>
      <point x="65" y="631"/>
      <point x="225" y="631" type="curve"/>
      <point x="225" y="722"/>
      <point x="225" y="631"/>
    </contour>
    <contour>
      <point x="818" y="631" type="curve"/>
      <point x="978" y="631"/>
      <point x="804" y="631"/>
      <point x="964" y="631" type="curve"/>
      <point x="964" y="722"/>
      <point x="964" y="631"/>
      <point x="964" y="722" type="curve"/>
      <point x="910" y="722"/>
      <point x="871" y="722"/>
      <point x="818" y="722" type="curve"/>
      <point x="818" y="631"/>
      <point x="818" y="722"/>
    </contour>
    <contour>
      <point x="168" y="0" type="curve"/>
      <point x="220" y="0"/>
      <point x="154" y="0"/>
      <point x="310" y="0" type="curve"/>
      <point x="310" y="91"/>
      <point x="310" y="0"/>
      <point x="310" y="91" type="curve"/>
      <point x="154" y="91"/>
      <point x="324" y="91"/>
      <point x="168" y="91" type="curve"/>
      <point x="168" y="0"/>
      <point x="168" y="91"/>
    </contour>
    <contour>
      <point x="945" y="0" type="curve"/>
      <point x="923" y="241"/>
      <point x="897" y="481"/>
      <point x="875" y="722" type="curve"/>
      <point x="765" y="722"/>
      <point x="875" y="722"/>
      <point x="765" y="722" type="curve"/>
      <point x="786" y="481"/>
      <point x="803" y="241"/>
      <point x="823" y="0" type="curve"/>
      <point x="945" y="0"/>
      <point x="823" y="0"/>
    </contour>
    <contour>
      <point x="220" y="0" type="curve"/>
      <point x="239" y="241"/>
      <point x="259" y="481"/>
      <point x="279" y="722" type="curve"/>
      <point x="167" y="722"/>
      <point x="279" y="722"/>
      <point x="167" y="722" type="curve"/>
      <point x="147" y="481"/>
      <point x="126" y="241"/>
      <point x="106" y="0" type="curve"/>
      <point x="220" y="0"/>
      <point x="106" y="0"/>
    </contour>
    <contour>
      <point x="575" y="0" type="curve"/>
      <point x="477" y="241"/>
      <point x="379" y="481"/>
      <point x="281" y="722" type="curve"/>
      <point x="170" y="722"/>
      <point x="281" y="722"/>
      <point x="169" y="722" type="curve"/>
      <point x="267" y="481"/>
      <point x="364" y="241"/>
      <point x="461" y="0" type="curve"/>
      <point x="574" y="0"/>
      <point x="462" y="0"/>
    </contour>
    <contour>
      <point x="584" y="0" type="curve"/>
      <point x="680" y="241"/>
      <point x="775" y="481"/>
      <point x="871" y="722" type="curve"/>
      <point x="759" y="722"/>
      <point x="871" y="722"/>
      <point x="759" y="722" type="curve"/>
      <point x="662" y="481"/>
      <point x="566" y="241"/>
      <point x="469" y="0" type="curve"/>
      <point x="584" y="0"/>
      <point x="470" y="0"/>
    </contour>
  </outline>
</glyph>
<glyph name="P" format="1">
  <advance width="691"/>
  <unicode hex="0050"/>
  <outline>
    <contour>
      <point x="213" y="722" type="curve"/>
      <point x="163" y="722"/>
      <point x="114" y="722"/>
      <point x="64" y="722" type="curve"/>
      <point x="64" y="631"/>
      <point x="64" y="722"/>
      <point x="64" y="631" type="curve"/>
      <point x="215" y="631"/>
      <point x="61" y="631"/>
      <point x="213" y="631" type="curve"/>
      <point x="213" y="722"/>
      <point x="213" y="631"/>
    </contour>
    <contour>
      <point x="213" y="91" type="curve"/>
      <point x="61" y="91"/>
      <point x="215" y="91"/>
      <point x="64" y="91" type="curve"/>
      <point x="64" y="0"/>
      <point x="64" y="91"/>
      <point x="64" y="0" type="curve"/>
      <point x="114" y="0"/>
      <point x="163" y="0"/>
      <point x="213" y="0" type="curve"/>
      <point x="213" y="91"/>
      <point x="213" y="0"/>
    </contour>
    <contour>
      <point x="213" y="0" type="curve"/>
      <point x="263" y="0"/>
      <point x="210" y="0"/>
      <point x="362" y="0" type="curve"/>
      <point x="362" y="91"/>
      <point x="362" y="0"/>
      <point x="362" y="91" type="curve"/>
      <point x="210" y="91"/>
      <point x="364" y="91"/>
      <point x="213" y="91" type="curve"/>
      <point x="213" y="0"/>
      <point x="213" y="91"/>
    </contour>
    <contour>
      <point x="196" y="300" type="curve"/>
      <point x="256" y="273"/>
      <point x="325" y="255"/>
      <point x="394" y="255" type="curve"/>
      <point x="548" y="257"/>
      <point x="651" y="330"/>
      <point x="651" y="482" type="curve"/>
      <point x="651" y="640"/>
      <point x="525" y="722"/>
      <point x="356" y="722" type="curve"/>
      <point x="309" y="722"/>
      <point x="263" y="722"/>
      <point x="216" y="722" type="curve"/>
      <point x="216" y="631"/>
      <point x="216" y="722"/>
      <point x="216" y="631" type="curve"/>
      <point x="257" y="631"/>
      <point x="299" y="631"/>
      <point x="340" y="631" type="curve"/>
      <point x="449" y="631"/>
      <point x="530" y="584"/>
      <point x="530" y="485" type="curve"/>
      <point x="530" y="394"/>
      <point x="469" y="344"/>
      <point x="381" y="344" type="curve"/>
      <point x="324" y="344"/>
      <point x="285" y="357"/>
      <point x="234" y="380" type="curve"/>
      <point x="196" y="301"/>
      <point x="234" y="380"/>
    </contour>
    <contour>
      <point x="272" y="0" type="curve"/>
      <point x="272" y="241"/>
      <point x="272" y="481"/>
      <point x="272" y="722" type="curve"/>
      <point x="151" y="722"/>
      <point x="272" y="722"/>
      <point x="151" y="722" type="curve"/>
      <point x="151" y="481"/>
      <point x="151" y="241"/>
      <point x="151" y="0" type="curve"/>
      <point x="272" y="0"/>
      <point x="151" y="0"/>
    </contour>
  </outline>
</glyph>
<glyph name="Q" format="1">
  <advance width="840"/>
  <unicode hex="0051"/>
  <outline>
    <contour>
      <point x="372" y="22" type="curve"/>
      <point x="491" y="-162"/>
      <point x="625" y="-217"/>
      <point x="833" y="-217" type="curve"/>
      <point x="833" y="-122"/>
      <point x="833" y="-217"/>
      <point x="833" y="-122" type="curve"/>
      <point x="673" y="-122"/>
      <point x="571" y="-76"/>
      <point x="476" y="68" type="curve"/>
      <point x="372" y="22"/>
      <point x="476" y="68"/>
    </contour>
    <contour>
      <point x="177" y="360" type="curve"/>
      <point x="177" y="519"/>
      <point x="260" y="627"/>
      <point x="413" y="627" type="curve"/>
      <point x="569" y="627"/>
      <point x="653" y="522"/>
      <point x="653" y="361" type="curve"/>
      <point x="653" y="200"/>
      <point x="573" y="91"/>
      <point x="420" y="91" type="curve"/>
      <point x="263" y="91"/>
      <point x="177" y="198"/>
      <point x="177" y="360" type="curve"/>
      <point x="57" y="360"/>
      <point x="177" y="360"/>
      <point x="57" y="360" type="curve"/>
      <point x="57" y="136"/>
      <point x="193" y="-5"/>
      <point x="414" y="-5" type="curve"/>
      <point x="638" y="-5"/>
      <point x="774" y="139"/>
      <point x="774" y="366" type="curve"/>
      <point x="774" y="589"/>
      <point x="641" y="731"/>
      <point x="421" y="731" type="curve"/>
      <point x="196" y="731"/>
      <point x="57" y="587"/>
      <point x="57" y="360" type="curve"/>
      <point x="177" y="360"/>
      <point x="57" y="360"/>
    </contour>
  </outline>
</glyph>
<glyph name="T" format="1">
  <advance width="706"/>
  <unicode hex="0054"/>
  <outline>
    <contour>
      <point x="30" y="676" type="curve"/>
      <point x="30" y="556"/>
      <point x="30" y="677"/>
      <point x="30" y="557" type="curve"/>
      <point x="124" y="557"/>
      <point x="30" y="557"/>
      <point x="124" y="557" type="curve"/>
      <point x="124" y="677"/>
      <point x="124" y="556"/>
      <point x="124" y="676" type="curve"/>
      <point x="30" y="676"/>
      <point x="124" y="676"/>
    </contour>
    <contour>
      <point x="582" y="676" type="curve"/>
      <point x="582" y="556"/>
      <point x="582" y="677"/>
      <point x="582" y="557" type="curve"/>
      <point x="676" y="557"/>
      <point x="582" y="557"/>
      <point x="676" y="557" type="curve"/>
      <point x="676" y="677"/>
      <point x="676" y="556"/>
      <point x="676" y="676" type="curve"/>
      <point x="582" y="676"/>
      <point x="676" y="676"/>
    </contour>
    <contour>
      <point x="352" y="0" type="curve"/>
      <point x="402" y="0"/>
      <point x="451" y="0"/>
      <point x="501" y="0" type="curve"/>
      <point x="501" y="91"/>
      <point x="501" y="0"/>
      <point x="501" y="91" type="curve"/>
      <point x="351" y="91"/>
      <point x="502" y="91"/>
      <point x="352" y="91" type="curve"/>
      <point x="352" y="0"/>
      <point x="352" y="91"/>
    </contour>
    <contour>
      <point x="352" y="91" type="curve"/>
      <point x="202" y="91"/>
      <point x="353" y="91"/>
      <point x="203" y="91" type="curve"/>
      <point x="203" y="0"/>
      <point x="203" y="91"/>
      <point x="203" y="0" type="curve"/>
      <point x="253" y="0"/>
      <point x="302" y="0"/>
      <point x="352" y="0" type="curve"/>
      <point x="352" y="91"/>
      <point x="352" y="0"/>
    </contour>
    <contour>
      <point x="414" y="0" type="curve"/>
      <point x="414" y="237"/>
      <point x="414" y="473"/>
      <point x="414" y="710" type="curve"/>
      <point x="293" y="710"/>
      <point x="414" y="710"/>
      <point x="293" y="710" type="curve"/>
      <point x="292" y="473"/>
      <point x="293" y="237"/>
      <point x="293" y="0" type="curve"/>
      <point x="414" y="0"/>
      <point x="293" y="0"/>
    </contour>
    <contour>
      <point x="30" y="625" type="curve"/>
      <point x="245" y="625"/>
      <point x="461" y="625"/>
      <point x="676" y="625" type="curve"/>
      <point x="676" y="726"/>
      <point x="676" y="621"/>
      <point x="676" y="722" type="curve"/>
      <point x="461" y="722"/>
      <point x="245" y="722"/>
      <point x="30" y="722" type="curve"/>
      <point x="30" y="621"/>
      <point x="30" y="726"/>
    </contour>
    <contour>
      <point x="351" y="791" type="move" name="top"/>
    </contour>
    <contour>
      <point x="393" y="-6" type="move" name="bottom"/>
    </contour>
  </outline>
</glyph>
<glyph name="U" format="1">
  <advance width="898"/>
  <unicode hex="0055"/>
  <outline>
    <contour>
      <point x="711" y="631" type="curve"/>
      <point x="860" y="631"/>
      <point x="710" y="631"/>
      <point x="859" y="631" type="curve"/>
      <point x="859" y="722"/>
      <point x="859" y="631"/>
      <point x="859" y="722" type="curve"/>
      <point x="810" y="722"/>
      <point x="760" y="722"/>
      <point x="711" y="722" type="curve"/>
      <point x="711" y="631"/>
      <point x="711" y="722"/>
    </contour>
    <contour>
      <point x="711" y="722" type="curve"/>
      <point x="661" y="722"/>
      <point x="612" y="722"/>
      <point x="563" y="722" type="curve"/>
      <point x="563" y="631"/>
      <point x="563" y="722"/>
      <point x="563" y="631" type="curve"/>
      <point x="712" y="631"/>
      <point x="562" y="631"/>
      <point x="711" y="631" type="curve"/>
      <point x="711" y="722"/>
      <point x="711" y="631"/>
    </contour>
    <contour>
      <point x="189" y="722" type="curve"/>
      <point x="140" y="722"/>
      <point x="91" y="722"/>
      <point x="42" y="722" type="curve"/>
      <point x="41" y="631"/>
      <point x="42" y="722"/>
      <point x="41" y="631" type="curve"/>
      <point x="190" y="631"/>
      <point x="40" y="631"/>
      <point x="189" y="631" type="curve"/>
      <point x="189" y="722"/>
      <point x="189" y="631"/>
    </contour>
    <contour>
      <point x="189" y="631" type="curve"/>
      <point x="339" y="631"/>
      <point x="188" y="631"/>
      <point x="337" y="631" type="curve"/>
      <point x="337" y="722"/>
      <point x="337" y="631"/>
      <point x="337" y="722" type="curve"/>
      <point x="288" y="722"/>
      <point x="239" y="722"/>
      <point x="189" y="722" type="curve"/>
      <point x="189" y="631"/>
      <point x="189" y="722"/>
    </contour>
    <contour>
      <point x="132" y="685" type="curve"/>
      <point x="132" y="544"/>
      <point x="132" y="418"/>
      <point x="132" y="277" type="curve"/>
      <point x="132" y="81"/>
      <point x="243" y="-5"/>
      <point x="447" y="-5" type="curve"/>
      <point x="653" y="-5"/>
      <point x="766" y="85"/>
      <point x="766" y="284" type="curve"/>
      <point x="766" y="423"/>
      <point x="766" y="546"/>
      <point x="766" y="685" type="curve"/>
      <point x="657" y="685"/>
      <point x="764" y="685"/>
      <point x="656" y="685" type="curve"/>
      <point x="656" y="540"/>
      <point x="656" y="417"/>
      <point x="656" y="273" type="curve"/>
      <point x="656" y="152"/>
      <point x="583" y="96"/>
      <point x="457" y="96" type="curve"/>
      <point x="316" y="96"/>
      <point x="243" y="157"/>
      <point x="243" y="294" type="curve"/>
      <point x="243" y="429"/>
      <point x="243" y="550"/>
      <point x="243" y="685" type="curve"/>
      <point x="134" y="685"/>
      <point x="241" y="685"/>
    </contour>
    <contour>
      <point x="452" y="791" type="move" name="top"/>
    </contour>
    <contour>
      <point x="494" y="0" type="move" name="bottom"/>
    </contour>
  </outline>
</glyph>
<glyph name="V" format="1">
  <advance width="832"/>
  <unicode hex="0056"/>
  <outline>
    <contour>
      <point x="678" y="722" type="curve"/>
      <point x="625" y="722"/>
      <point x="572" y="722"/>
      <point x="519" y="722" type="curve"/>
      <point x="519" y="631"/>
      <point x="519" y="722"/>
      <point x="519" y="631" type="curve"/>
      <point x="679" y="631"/>
      <point x="518" y="631"/>
      <point x="678" y="631" type="curve"/>
      <point x="678" y="722"/>
      <point x="678" y="631"/>
    </contour>
    <contour>
      <point x="132" y="722" type="curve"/>
      <point x="87" y="722"/>
      <point x="43" y="722"/>
      <point x="-2" y="722" type="curve"/>
      <point x="-2" y="631"/>
      <point x="-2" y="722"/>
      <point x="-2" y="631" type="curve"/>
      <point x="133" y="631"/>
      <point x="-3" y="631"/>
      <point x="132" y="631" type="curve"/>
      <point x="132" y="722"/>
      <point x="132" y="631"/>
    </contour>
    <contour>
      <point x="689" y="631" type="curve"/>
      <point x="824" y="631"/>
      <point x="688" y="631"/>
      <point x="823" y="631" type="curve"/>
      <point x="823" y="722"/>
      <point x="823" y="631"/>
      <point x="823" y="722" type="curve"/>
      <point x="778" y="722"/>
      <point x="734" y="722"/>
      <point x="689" y="722" type="curve"/>
      <point x="689" y="631"/>
      <point x="689" y="722"/>
    </contour>
    <contour>
      <point x="144" y="631" type="curve"/>
      <point x="303" y="631"/>
      <point x="143" y="631"/>
      <point x="301" y="631" type="curve"/>
      <point x="301" y="722"/>
      <point x="301" y="631"/>
      <point x="301" y="722" type="curve"/>
      <point x="249" y="722"/>
      <point x="197" y="722"/>
      <point x="144" y="722" type="curve"/>
      <point x="144" y="631"/>
      <point x="144" y="722"/>
    </contour>
    <contour>
      <point x="644" y="722" type="curve"/>
      <point x="549" y="481"/>
      <point x="454" y="241"/>
      <point x="360" y="0" type="curve"/>
      <point x="484" y="0"/>
      <point x="354" y="0"/>
      <point x="478" y="0" type="curve"/>
      <point x="574" y="241"/>
      <point x="671" y="481"/>
      <point x="767" y="722" type="curve"/>
      <point x="644" y="722"/>
      <point x="767" y="722"/>
    </contour>
    <contour>
      <point x="54" y="722" type="curve"/>
      <point x="152" y="481"/>
      <point x="250" y="241"/>
      <point x="348" y="0" type="curve"/>
      <point x="472" y="0"/>
      <point x="343" y="0"/>
      <point x="467" y="0" type="curve"/>
      <point x="371" y="241"/>
      <point x="275" y="481"/>
      <point x="178" y="722" type="curve"/>
      <point x="54" y="722"/>
      <point x="178" y="722"/>
    </contour>
  </outline>
</glyph>
<glyph name="W" format="1">
  <advance width="1052"/>
  <unicode hex="0057"/>
  <outline>
    <contour>
      <point x="153" y="631" type="curve"/>
      <point x="289" y="631"/>
      <point x="152" y="631"/>
      <point x="288" y="631" type="curve"/>
      <point x="288" y="722"/>
      <point x="288" y="631"/>
      <point x="288" y="722" type="curve"/>
      <point x="242" y="722"/>
      <point x="198" y="722"/>
      <point x="153" y="722" type="curve"/>
      <point x="153" y="631"/>
      <point x="153" y="722"/>
    </contour>
    <contour>
      <point x="150" y="722" type="curve"/>
      <point x="102" y="722"/>
      <point x="55" y="722"/>
      <point x="8" y="722" type="curve"/>
      <point x="8" y="631"/>
      <point x="8" y="722"/>
      <point x="8" y="631" type="curve"/>
      <point x="151" y="631"/>
      <point x="7" y="631"/>
      <point x="150" y="631" type="curve"/>
      <point x="150" y="722"/>
      <point x="150" y="631"/>
    </contour>
    <contour>
      <point x="899" y="722" type="curve"/>
      <point x="853" y="722"/>
      <point x="809" y="722"/>
      <point x="765" y="722" type="curve"/>
      <point x="765" y="631"/>
      <point x="765" y="722"/>
      <point x="765" y="631" type="curve"/>
      <point x="900" y="631"/>
      <point x="764" y="631"/>
      <point x="899" y="631" type="curve"/>
      <point x="899" y="722"/>
      <point x="899" y="631"/>
    </contour>
    <contour>
      <point x="900" y="631" type="curve"/>
      <point x="1043" y="631"/>
      <point x="899" y="631"/>
      <point x="1042" y="631" type="curve"/>
      <point x="1042" y="722"/>
      <point x="1042" y="631"/>
      <point x="1042" y="722" type="curve"/>
      <point x="995" y="722"/>
      <point x="948" y="722"/>
      <point x="900" y="722" type="curve"/>
      <point x="900" y="631"/>
      <point x="900" y="722"/>
    </contour>
    <contour>
      <point x="375" y="0" type="curve"/>
      <point x="444" y="241"/>
      <point x="512" y="481"/>
      <point x="582" y="722" type="curve"/>
      <point x="469" y="722"/>
      <point x="584" y="722"/>
      <point x="471" y="722" type="curve"/>
      <point x="406" y="481"/>
      <point x="342" y="242"/>
      <point x="276" y="0" type="curve"/>
      <point x="383" y="0"/>
      <point x="267" y="0"/>
    </contour>
    <contour>
      <point x="483" y="722" type="curve"/>
      <point x="545" y="481"/>
      <point x="604" y="241"/>
      <point x="667" y="0" type="curve"/>
      <point x="775" y="0"/>
      <point x="657" y="0"/>
      <point x="765" y="0" type="curve"/>
      <point x="707" y="242"/>
      <point x="651" y="481"/>
      <point x="591" y="722" type="curve"/>
      <point x="479" y="722"/>
      <point x="595" y="722"/>
    </contour>
    <contour>
      <point x="71" y="722" type="curve"/>
      <point x="134" y="481"/>
      <point x="198" y="241"/>
      <point x="261" y="0" type="curve"/>
      <point x="369" y="0"/>
      <point x="258" y="0"/>
      <point x="366" y="0" type="curve"/>
      <point x="305" y="241"/>
      <point x="246" y="481"/>
      <point x="186" y="722" type="curve"/>
      <point x="71" y="722"/>
      <point x="186" y="722"/>
    </contour>
    <contour>
      <point x="864" y="722" type="curve"/>
      <point x="802" y="481"/>
      <point x="741" y="241"/>
      <point x="679" y="0" type="curve"/>
      <point x="787" y="0"/>
      <point x="673" y="0"/>
      <point x="781" y="0" type="curve"/>
      <point x="847" y="241"/>
      <point x="913" y="481"/>
      <point x="979" y="722" type="curve"/>
      <point x="864" y="722"/>
      <point x="979" y="722"/>
    </contour>
  </outline>
</glyph>
<glyph name="X" format="1">
  <advance width="777"/>
  <unicode hex="0058"/>
  <outline>
    <contour>
      <point x="166" y="0" type="curve"/>
      <point x="219" y="0"/>
      <point x="165" y="0"/>
      <point x="324" y="0" type="curve"/>
      <point x="324" y="91"/>
      <point x="324" y="0"/>
      <point x="324" y="91" type="curve"/>
      <point x="165" y="91"/>
      <point x="325" y="91"/>
      <point x="166" y="91" type="curve"/>
      <point x="166" y="0"/>
      <point x="166" y="91"/>
    </contour>
    <contour>
      <point x="159" y="91" type="curve"/>
      <point x="12" y="91"/>
      <point x="160" y="91"/>
      <point x="13" y="91" type="curve"/>
      <point x="13" y="0"/>
      <point x="13" y="91"/>
      <point x="13" y="0" type="curve"/>
      <point x="62" y="0"/>
      <point x="110" y="0"/>
      <point x="159" y="0" type="curve"/>
      <point x="159" y="91"/>
      <point x="159" y="0"/>
    </contour>
    <contour>
      <point x="614" y="0" type="curve"/>
      <point x="663" y="0"/>
      <point x="712" y="0"/>
      <point x="760" y="0" type="curve"/>
      <point x="760" y="91"/>
      <point x="760" y="0"/>
      <point x="760" y="91" type="curve"/>
      <point x="613" y="91"/>
      <point x="761" y="91"/>
      <point x="614" y="91" type="curve"/>
      <point x="614" y="0"/>
      <point x="614" y="91"/>
    </contour>
    <contour>
      <point x="607" y="91" type="curve"/>
      <point x="448" y="91"/>
      <point x="608" y="91"/>
      <point x="449" y="91" type="curve"/>
      <point x="449" y="0"/>
      <point x="449" y="91"/>
      <point x="449" y="0" type="curve"/>
      <point x="502" y="0"/>
      <point x="554" y="0"/>
      <point x="607" y="0" type="curve"/>
      <point x="607" y="91"/>
      <point x="607" y="0"/>
    </contour>
    <contour>
      <point x="588" y="631" type="curve"/>
      <point x="735" y="631"/>
      <point x="587" y="631"/>
      <point x="734" y="631" type="curve"/>
      <point x="734" y="722"/>
      <point x="734" y="631"/>
      <point x="734" y="722" type="curve"/>
      <point x="685" y="722"/>
      <point x="637" y="722"/>
      <point x="588" y="722" type="curve"/>
      <point x="588" y="631"/>
      <point x="588" y="722"/>
    </contour>
    <contour>
      <point x="593" y="722" type="curve"/>
      <point x="540" y="722"/>
      <point x="486" y="722"/>
      <point x="432" y="722" type="curve"/>
      <point x="432" y="631"/>
      <point x="432" y="722"/>
      <point x="432" y="631" type="curve"/>
      <point x="594" y="631"/>
      <point x="431" y="631"/>
      <point x="593" y="631" type="curve"/>
      <point x="593" y="722"/>
      <point x="593" y="631"/>
    </contour>
    <contour>
      <point x="192" y="722" type="curve"/>
      <point x="144" y="722"/>
      <point x="95" y="722"/>
      <point x="46" y="722" type="curve"/>
      <point x="46" y="631"/>
      <point x="46" y="722"/>
      <point x="46" y="631" type="curve"/>
      <point x="193" y="631"/>
      <point x="45" y="631"/>
      <point x="192" y="631" type="curve"/>
      <point x="192" y="722"/>
      <point x="192" y="631"/>
    </contour>
    <contour>
      <point x="187" y="631" type="curve"/>
      <point x="349" y="631"/>
      <point x="186" y="631"/>
      <point x="348" y="631" type="curve"/>
      <point x="348" y="722"/>
      <point x="348" y="631"/>
      <point x="348" y="722" type="curve"/>
      <point x="295" y="722"/>
      <point x="241" y="722"/>
      <point x="187" y="722" type="curve"/>
      <point x="187" y="631"/>
      <point x="187" y="722"/>
    </contour>
    <contour>
      <point x="573" y="722" type="curve"/>
      <point x="405" y="487"/>
      <point x="235" y="255"/>
      <point x="67" y="20" type="curve"/>
      <point x="187" y="20"/>
      <point x="67" y="0"/>
      <point x="187" y="0" type="curve"/>
      <point x="354" y="235"/>
      <point x="519" y="470"/>
      <point x="687" y="705" type="curve"/>
      <point x="573" y="705"/>
      <point x="687" y="722"/>
    </contour>
    <contour>
      <point x="96" y="704" type="curve"/>
      <point x="261" y="470"/>
      <point x="425" y="235"/>
      <point x="590" y="0" type="curve"/>
      <point x="710" y="0"/>
      <point x="590" y="14"/>
      <point x="710" y="14" type="curve"/>
      <point x="543" y="250"/>
      <point x="375" y="485"/>
      <point x="207" y="722" type="curve"/>
      <point x="96" y="722"/>
      <point x="207" y="704"/>
    </contour>
  </outline>
</glyph>
<glyph name="backslash" format="1">
  <advance width="597"/>
  <unicode hex="005C"/>
  <outline>
    <contour>
      <point x="566" y="-68" type="curve"/>
      <point x="430" y="236"/>
      <point x="294" y="540"/>
      <point x="157" y="844" type="curve"/>
      <point x="31" y="844"/>
      <point x="157" y="844"/>
      <point x="31" y="844" type="curve"/>
      <point x="167" y="540"/>
      <point x="303" y="236"/>
      <point x="440" y="-68" type="curve"/>
      <point x="566" y="-68"/>
      <point x="440" y="-68"/>
    </contour>
  </outline>
</glyph>
<glyph name="bracketright" format="1">
  <advance width="338"/>
  <unicode hex="005D"/>
  <outline>
    <contour>
      <point x="48" y="669" type="curve"/>
      <point x="101" y="669"/>
      <point x="154" y="669"/>
      <point x="207" y="669" type="curve"/>
      <point x="195" y="678"/>
      <point x="180" y="682"/>
      <point x="169" y="691" type="curve"/>
      <point x="157" y="701"/>
      <point x="150" y="715"/>
      <point x="139" y="725" type="curve"/>
      <point x="139" y="459"/>
      <point x="139" y="194"/>
      <point x="139" y="-72" type="curve"/>
      <point x="150" y="-62"/>
      <point x="160" y="-49"/>
      <point x="172" y="-39" type="curve"/>
      <point x="183" y="-30"/>
      <point x="197" y="-24"/>
      <point x="208" y="-14" type="curve"/>
      <point x="155" y="-14"/>
      <point x="101" y="-14"/>
      <point x="48" y="-14" type="curve"/>
      <point x="47" y="-115"/>
      <point x="48" y="-14"/>
      <point x="47" y="-115" type="curve"/>
      <point x="101" y="-115"/>
      <point x="155" y="-115"/>
      <point x="208" y="-115" type="curve"/>
      <point x="261" y="-115"/>
      <point x="208" y="-115"/>
      <point x="261" y="-115" type="curve"/>
      <point x="261" y="-72"/>
      <point x="261" y="-115"/>
      <point x="261" y="-72" type="curve"/>
      <point x="260" y="194"/>
      <point x="261" y="459"/>
      <point x="261" y="725" type="curve"/>
      <point x="261" y="769"/>
      <point x="261" y="725"/>
      <point x="261" y="769" type="curve"/>
      <point x="207" y="769"/>
      <point x="261" y="769"/>
      <point x="207" y="769" type="curve"/>
      <point x="154" y="769"/>
      <point x="101" y="769"/>
      <point x="48" y="769" type="curve"/>
      <point x="48" y="669"/>
      <point x="48" y="769"/>
    </contour>
  </outline>
</glyph>
<glyph name="asciicircum" format="1">
  <advance width="593"/>
  <unicode hex="005E"/>
  <outline>
    <contour>
      <point x="174" y="456" type="curve"/>
      <point x="235" y="559"/>
      <point x="296" y="662"/>
      <point x="356" y="766" type="curve"/>
      <point x="235" y="766"/>
      <point x="356" y="766"/>
      <point x="235" y="766" type="curve"/>
      <point x="174" y="662"/>
      <point x="114" y="559"/>
      <point x="54" y="456" type="curve"/>
      <point x="174" y="456"/>
      <point x="54" y="456"/>
    </contour>
    <contour>
      <point x="539" y="456" type="curve"/>
      <point x="480" y="558"/>
      <point x="416" y="663"/>
      <point x="356" y="766" type="curve"/>
      <point x="236" y="766"/>
      <point x="356" y="766"/>
      <point x="235" y="766" type="curve"/>
      <point x="295" y="663"/>
      <point x="358" y="558"/>
      <point x="418" y="456" type="curve"/>
      <point x="539" y="456"/>
      <point x="419" y="456"/>
    </contour>
  </outline>
</glyph>
<glyph name="b" format="1">
  <advance width="720"/>
  <unicode hex="0062"/>
  <outline>
    <contour>
      <point x="179" y="800" type="curve"/>
      <point x="125" y="800"/>
      <point x="83" y="800"/>
      <point x="30" y="800" type="curve"/>
      <point x="29" y="738"/>
      <point x="30" y="771"/>
      <point x="29" y="709" type="curve"/>
      <point x="139" y="708"/>
      <point x="69" y="709"/>
      <point x="179" y="708" type="curve"/>
      <point x="179" y="771"/>
      <point x="179" y="737"/>
    </contour>
    <contour>
      <point x="204" y="345" type="curve"/>
      <point x="247" y="396"/>
      <point x="307" y="443"/>
      <point x="393" y="443" type="curve"/>
      <point x="496" y="443"/>
      <point x="550" y="370"/>
      <point x="550" y="263" type="curve"/>
      <point x="552" y="159"/>
      <point x="494" y="89"/>
      <point x="394" y="90" type="curve"/>
      <point x="317" y="90"/>
      <point x="259" y="123"/>
      <point x="214" y="173" type="curve"/>
      <point x="170" y="143"/>
      <point x="190" y="156"/>
      <point x="146" y="126" type="curve"/>
      <point x="217" y="47"/>
      <point x="293" y="-5"/>
      <point x="412" y="-5" type="curve"/>
      <point x="572" y="-5"/>
      <point x="672" y="98"/>
      <point x="672" y="266" type="curve"/>
      <point x="672" y="433"/>
      <point x="573" y="538"/>
      <point x="411" y="538" type="curve"/>
      <point x="293" y="538"/>
      <point x="216" y="478"/>
      <point x="152" y="402" type="curve"/>
      <point x="188" y="368"/>
      <point x="168" y="378"/>
    </contour>
    <contour>
      <point x="237" y="0" type="curve"/>
      <point x="237" y="284"/>
      <point x="237" y="516"/>
      <point x="237" y="800" type="curve"/>
      <point x="156" y="800"/>
      <point x="197" y="800"/>
      <point x="116" y="800" type="curve"/>
      <point x="116" y="516"/>
      <point x="116" y="284"/>
      <point x="116" y="0" type="curve"/>
      <point x="197" y="0"/>
      <point x="156" y="0"/>
    </contour>
    <contour>
      <point x="179" y="91" type="curve"/>
      <point x="69" y="91"/>
      <point x="139" y="91"/>
      <point x="30" y="91" type="curve"/>
      <point x="30" y="29"/>
      <point x="30" y="62"/>
      <point x="30" y="0" type="curve"/>
      <point x="83" y="0"/>
      <point x="125" y="0"/>
      <point x="179" y="0" type="curve"/>
      <point x="179" y="62"/>
      <point x="179" y="28"/>
    </contour>
  </outline>
</glyph>
<glyph name="f" format="1">
  <advance width="513"/>
  <unicode hex="0066"/>
  <outline>
    <contour>
      <point x="398" y="768" type="curve"/>
      <point x="398" y="640"/>
      <point x="398" y="769"/>
      <point x="398" y="641" type="curve"/>
      <point x="492" y="641"/>
      <point x="398" y="641"/>
      <point x="492" y="641" type="curve"/>
      <point x="492" y="769"/>
      <point x="492" y="640"/>
      <point x="492" y="768" type="curve"/>
      <point x="398" y="768"/>
      <point x="492" y="768"/>
    </contour>
    <contour>
      <point x="214" y="-1" type="curve"/>
      <point x="268" y="-1"/>
      <point x="309" y="0"/>
      <point x="363" y="0" type="curve"/>
      <point x="363" y="92"/>
      <point x="363" y="0"/>
      <point x="363" y="92" type="curve"/>
      <point x="201" y="91"/>
      <point x="376" y="92"/>
      <point x="214" y="91" type="curve"/>
      <point x="214" y="-1"/>
      <point x="214" y="91"/>
    </contour>
    <contour>
      <point x="214" y="91" type="curve"/>
      <point x="52" y="92"/>
      <point x="227" y="91"/>
      <point x="65" y="92" type="curve"/>
      <point x="65" y="0"/>
      <point x="65" y="92"/>
      <point x="65" y="0" type="curve"/>
      <point x="119" y="0"/>
      <point x="161" y="-1"/>
      <point x="214" y="-1" type="curve"/>
      <point x="214" y="91"/>
      <point x="214" y="-1"/>
    </contour>
    <contour>
      <point x="29" y="442" type="curve"/>
      <point x="451" y="442" type="line"/>
      <point x="451" y="533"/>
      <point x="451" y="442"/>
      <point x="451" y="533" type="curve"/>
      <point x="29" y="533" type="line"/>
      <point x="29" y="442"/>
      <point x="29" y="533"/>
    </contour>
    <contour>
      <point x="275" y="0" type="curve"/>
      <point x="275" y="612" type="line"/>
      <point x="274" y="673"/>
      <point x="301" y="715"/>
      <point x="360" y="715" type="curve"/>
      <point x="389" y="715"/>
      <point x="417" y="707"/>
      <point x="443" y="695" type="curve"/>
      <point x="492" y="768"/>
      <point x="443" y="695"/>
      <point x="492" y="768" type="curve"/>
      <point x="451" y="788"/>
      <point x="406" y="803"/>
      <point x="360" y="803" type="curve"/>
      <point x="236" y="803"/>
      <point x="152" y="733"/>
      <point x="154" y="612" type="curve"/>
      <point x="154" y="0" type="line"/>
      <point x="275" y="0"/>
      <point x="154" y="0"/>
    </contour>
  </outline>
</glyph>
<glyph name="h" format="1">
  <advance width="697"/>
  <unicode hex="0068"/>
  <outline>
    <contour>
      <point x="544" y="-1" type="curve"/>
      <point x="598" y="-1"/>
      <point x="639" y="0"/>
      <point x="693" y="0" type="curve"/>
      <point x="693" y="91"/>
      <point x="693" y="0"/>
      <point x="693" y="91" type="curve"/>
      <point x="531" y="91"/>
      <point x="706" y="91"/>
      <point x="544" y="91" type="curve"/>
      <point x="544" y="-1"/>
      <point x="544" y="91"/>
    </contour>
    <contour>
      <point x="157" y="-1" type="curve"/>
      <point x="206" y="-1"/>
      <point x="144" y="-1"/>
      <point x="291" y="0" type="curve"/>
      <point x="291" y="91"/>
      <point x="291" y="0"/>
      <point x="291" y="91" type="curve"/>
      <point x="144" y="91"/>
      <point x="303" y="91"/>
      <point x="157" y="91" type="curve"/>
      <point x="157" y="-1"/>
      <point x="157" y="91"/>
    </contour>
    <contour>
      <point x="157" y="799" type="curve"/>
      <point x="103" y="799"/>
      <point x="62" y="800"/>
      <point x="8" y="800" type="curve"/>
      <point x="8" y="709"/>
      <point x="8" y="800"/>
      <point x="8" y="709" type="curve"/>
      <point x="170" y="708"/>
      <point x="-5" y="709"/>
      <point x="157" y="708" type="curve"/>
      <point x="157" y="799"/>
      <point x="157" y="708"/>
    </contour>
    <contour>
      <point x="157" y="91" type="curve"/>
      <point x="-5" y="91"/>
      <point x="170" y="91"/>
      <point x="8" y="91" type="curve"/>
      <point x="8" y="0"/>
      <point x="8" y="91"/>
      <point x="8" y="0" type="curve"/>
      <point x="62" y="0"/>
      <point x="103" y="-1"/>
      <point x="157" y="-1" type="curve"/>
      <point x="157" y="91"/>
      <point x="157" y="-1"/>
    </contour>
    <contour>
      <point x="190" y="300" type="curve"/>
      <point x="221" y="383"/>
      <point x="287" y="445"/>
      <point x="368" y="445" type="curve"/>
      <point x="448" y="445"/>
      <point x="484" y="390"/>
      <point x="484" y="309" type="curve"/>
      <point x="484" y="205"/>
      <point x="484" y="105"/>
      <point x="484" y="0" type="curve"/>
      <point x="605" y="0"/>
      <point x="484" y="0"/>
      <point x="605" y="0" type="curve"/>
      <point x="605" y="108"/>
      <point x="605" y="216"/>
      <point x="605" y="324" type="curve"/>
      <point x="605" y="462"/>
      <point x="534" y="536"/>
      <point x="393" y="536" type="curve"/>
      <point x="280" y="536"/>
      <point x="184" y="461"/>
      <point x="142" y="344" type="curve"/>
      <point x="192" y="298"/>
      <point x="141" y="346"/>
    </contour>
    <contour>
      <point x="218" y="0" type="curve"/>
      <point x="218" y="267"/>
      <point x="218" y="533"/>
      <point x="218" y="800" type="curve"/>
      <point x="96" y="800"/>
      <point x="218" y="800"/>
      <point x="96" y="800" type="curve"/>
      <point x="96" y="533"/>
      <point x="96" y="267"/>
      <point x="96" y="0" type="curve"/>
      <point x="218" y="0"/>
      <point x="96" y="0"/>
    </contour>
  </outline>
</glyph>
<glyph name="i" format="1">
  <advance width="342"/>
  <unicode hex="0069"/>
  <outline>
    <contour>
      <point x="180" y="91" type="curve"/>
      <point x="18" y="91"/>
      <point x="193" y="91"/>
      <point x="31" y="91" type="curve"/>
      <point x="30" y="0"/>
      <point x="31" y="91"/>
      <point x="30" y="0" type="curve"/>
      <point x="85" y="0"/>
      <point x="126" y="0"/>
      <point x="180" y="0" type="curve"/>
      <point x="180" y="91"/>
      <point x="180" y="0"/>
    </contour>
    <contour>
      <point x="180" y="0" type="curve"/>
      <point x="231" y="0"/>
      <point x="272" y="0"/>
      <point x="323" y="0" type="curve"/>
      <point x="323" y="91"/>
      <point x="323" y="0"/>
      <point x="323" y="91" type="curve"/>
      <point x="171" y="91"/>
      <point x="332" y="91"/>
      <point x="180" y="91" type="curve"/>
      <point x="180" y="0"/>
      <point x="180" y="91"/>
    </contour>
    <contour>
      <point x="180" y="533" type="curve"/>
      <point x="126" y="533"/>
      <point x="85" y="533"/>
      <point x="31" y="533" type="curve"/>
      <point x="30" y="442"/>
      <point x="31" y="533"/>
      <point x="30" y="442" type="curve"/>
      <point x="193" y="442"/>
      <point x="17" y="442"/>
      <point x="180" y="442" type="curve"/>
      <point x="180" y="533"/>
      <point x="180" y="442"/>
    </contour>
    <contour>
      <point x="244" y="0" type="curve"/>
      <point x="244" y="178"/>
      <point x="244" y="355"/>
      <point x="244" y="533" type="curve"/>
      <point x="117" y="533"/>
      <point x="244" y="533"/>
      <point x="117" y="533" type="curve"/>
      <point x="117" y="355"/>
      <point x="117" y="178"/>
      <point x="117" y="0" type="curve"/>
      <point x="244" y="0"/>
      <point x="117" y="0"/>
    </contour>
    <contour>
      <point x="247" y="683" type="curve"/>
      <point x="247" y="723"/>
      <point x="217" y="743"/>
      <point x="177" y="743" type="curve"/>
      <point x="137" y="743"/>
      <point x="109" y="721"/>
      <point x="109" y="683" type="curve"/>
      <point x="244" y="683"/>
      <point x="113" y="683"/>
      <point x="247" y="683" type="curve"/>
      <point x="247" y="641"/>
      <point x="217" y="623"/>
      <point x="177" y="623" type="curve"/>
      <point x="136" y="623"/>
      <point x="109" y="643"/>
      <point x="109" y="683" type="curve"/>
      <point x="244" y="683"/>
      <point x="113" y="683"/>
    </contour>
    <contour>
      <point x="177" y="625" type="move" name="top"/>
    </contour>
    <contour>
      <point x="235" y="7" type="move" name="bottom"/>
    </contour>
  </outline>
</glyph>
<glyph name="j" format="1">
  <advance width="325"/>
  <unicode hex="006A"/>
  <outline>
    <contour>
      <point x="177" y="533" type="curve"/>
      <point x="123" y="533"/>
      <point x="70" y="533"/>
      <point x="16" y="533" type="curve"/>
      <point x="16" y="442"/>
      <point x="16" y="533"/>
      <point x="16" y="442" type="curve"/>
      <point x="178" y="442"/>
      <point x="15" y="442"/>
      <point x="177" y="442" type="curve"/>
      <point x="177" y="533"/>
      <point x="177" y="442"/>
    </contour>
    <contour>
      <point x="-13" y="-302" type="curve"/>
      <point x="-3" y="-303"/>
      <point x="9" y="-305"/>
      <point x="23" y="-305" type="curve"/>
      <point x="145" y="-305"/>
      <point x="239" y="-241"/>
      <point x="239" y="-125" type="curve"/>
      <point x="239" y="95"/>
      <point x="239" y="314"/>
      <point x="239" y="534" type="curve"/>
      <point x="118" y="534"/>
      <point x="239" y="534"/>
      <point x="118" y="534" type="curve"/>
      <point x="118" y="314"/>
      <point x="118" y="95"/>
      <point x="118" y="-125" type="curve"/>
      <point x="118" y="-180"/>
      <point x="83" y="-217"/>
      <point x="28" y="-217" type="curve"/>
      <point x="20" y="-217"/>
      <point x="11" y="-216"/>
      <point x="4" y="-215" type="curve"/>
      <point x="-12" y="-302"/>
      <point x="4" y="-215"/>
    </contour>
    <contour>
      <point x="247" y="680" type="curve"/>
      <point x="247" y="721"/>
      <point x="218" y="740"/>
      <point x="177" y="740" type="curve"/>
      <point x="137" y="740"/>
      <point x="110" y="718"/>
      <point x="110" y="680" type="curve"/>
      <point x="244" y="680"/>
      <point x="113" y="680"/>
      <point x="247" y="680" type="curve"/>
      <point x="247" y="639"/>
      <point x="218" y="620"/>
      <point x="177" y="620" type="curve"/>
      <point x="136" y="620"/>
      <point x="110" y="641"/>
      <point x="110" y="680" type="curve"/>
      <point x="244" y="680"/>
      <point x="113" y="680"/>
    </contour>
  </outline>
</glyph>
<glyph name="k" format="1">
  <advance width="645"/>
  <unicode hex="006B"/>
  <outline>
    <contour>
      <point x="156" y="91" type="curve"/>
      <point x="-6" y="91"/>
      <point x="169" y="91"/>
      <point x="7" y="91" type="curve"/>
      <point x="7" y="0"/>
      <point x="7" y="91"/>
      <point x="7" y="0" type="curve"/>
      <point x="61" y="0"/>
      <point x="102" y="-1"/>
      <point x="156" y="-1" type="curve"/>
      <point x="156" y="91"/>
      <point x="156" y="-1"/>
    </contour>
    <contour>
      <point x="480" y="0" type="curve"/>
      <point x="536" y="0"/>
      <point x="572" y="0"/>
      <point x="627" y="0" type="curve"/>
      <point x="627" y="91"/>
      <point x="627" y="0"/>
      <point x="627" y="91" type="curve"/>
      <point x="460" y="91"/>
      <point x="648" y="91"/>
      <point x="481" y="91" type="curve"/>
      <point x="481" y="0"/>
      <point x="480" y="91"/>
    </contour>
    <contour>
      <point x="481" y="442" type="curve"/>
      <point x="620" y="442"/>
      <point x="460" y="442"/>
      <point x="599" y="442" type="curve"/>
      <point x="599" y="533"/>
      <point x="599" y="442"/>
      <point x="599" y="533" type="curve"/>
      <point x="552" y="533"/>
      <point x="527" y="533"/>
      <point x="481" y="533" type="curve"/>
      <point x="481" y="442"/>
      <point x="481" y="533"/>
    </contour>
    <contour>
      <point x="156" y="-1" type="curve"/>
      <point x="200" y="-1"/>
      <point x="155" y="-1"/>
      <point x="286" y="0" type="curve"/>
      <point x="286" y="91"/>
      <point x="286" y="0"/>
      <point x="286" y="91" type="curve"/>
      <point x="155" y="91"/>
      <point x="287" y="91"/>
      <point x="156" y="91" type="curve"/>
      <point x="156" y="-1"/>
      <point x="156" y="91"/>
    </contour>
    <contour>
      <point x="499" y="533" type="curve"/>
      <point x="429" y="533"/>
      <point x="364" y="533"/>
      <point x="294" y="533" type="curve"/>
      <point x="294" y="442"/>
      <point x="294" y="533"/>
      <point x="294" y="442" type="curve"/>
      <point x="504" y="442"/>
      <point x="289" y="442"/>
      <point x="499" y="442" type="curve"/>
      <point x="499" y="533"/>
      <point x="499" y="442"/>
    </contour>
    <contour>
      <point x="158" y="799" type="curve"/>
      <point x="104" y="799"/>
      <point x="63" y="800"/>
      <point x="9" y="800" type="curve"/>
      <point x="9" y="709"/>
      <point x="9" y="800"/>
      <point x="9" y="709" type="curve"/>
      <point x="171" y="708"/>
      <point x="-4" y="709"/>
      <point x="158" y="708" type="curve"/>
      <point x="158" y="799"/>
      <point x="158" y="708"/>
    </contour>
    <contour>
      <point x="217" y="0" type="curve"/>
      <point x="217" y="800" type="line"/>
      <point x="96" y="800"/>
      <point x="217" y="800"/>
      <point x="96" y="800" type="curve"/>
      <point x="96" y="533"/>
      <point x="96" y="267"/>
      <point x="96" y="0" type="curve"/>
      <point x="217" y="0"/>
      <point x="96" y="0"/>
    </contour>
    <contour>
      <point x="447" y="533" type="curve"/>
      <point x="188" y="275" type="line"/>
      <point x="325" y="275"/>
      <point x="187" y="275"/>
      <point x="324" y="275" type="curve"/>
      <point x="564" y="496" type="line"/>
      <point x="422" y="496"/>
      <point x="589" y="533"/>
    </contour>
    <contour>
      <point x="582" y="49" type="curve"/>
      <point x="324" y="275" type="line"/>
      <point x="187" y="275"/>
      <point x="325" y="275"/>
      <point x="188" y="275" type="curve"/>
      <point x="474" y="0" type="line"/>
      <point x="612" y="0"/>
      <point x="443" y="49"/>
    </contour>
    <contour>
      <point x="385" y="-10" type="move" name="bottom"/>
    </contour>
  </outline>
</glyph>
<glyph name="l" format="1">
  <advance width="360"/>
  <unicode hex="006C"/>
  <outline>
    <contour>
      <point x="181" y="91" type="curve"/>
      <point x="18" y="91"/>
      <point x="181" y="91"/>
      <point x="18" y="91" type="curve"/>
      <point x="18" y="0"/>
      <point x="18" y="91"/>
      <point x="18" y="0" type="curve"/>
      <point x="73" y="0"/>
      <point x="126" y="0"/>
      <point x="181" y="0" type="curve"/>
      <point x="181" y="91"/>
      <point x="181" y="-1"/>
    </contour>
    <contour>
      <point x="183" y="800" type="curve"/>
      <point x="129" y="800"/>
      <point x="74" y="800"/>
      <point x="21" y="800" type="curve"/>
      <point x="20" y="709"/>
      <point x="21" y="800"/>
      <point x="20" y="709" type="curve"/>
      <point x="183" y="708"/>
      <point x="20" y="709"/>
      <point x="183" y="708" type="curve"/>
      <point x="183" y="799"/>
      <point x="183" y="709"/>
    </contour>
    <contour>
      <point x="181" y="0" type="curve"/>
      <point x="235" y="0"/>
      <point x="289" y="0"/>
      <point x="343" y="0" type="curve"/>
      <point x="343" y="91"/>
      <point x="343" y="0"/>
      <point x="343" y="91" type="curve"/>
      <point x="181" y="91"/>
      <point x="343" y="91"/>
      <point x="181" y="91" type="curve"/>
      <point x="181" y="-1"/>
      <point x="181" y="91"/>
    </contour>
    <contour>
      <point x="240" y="0" type="curve"/>
      <point x="240" y="267"/>
      <point x="240" y="533"/>
      <point x="240" y="800" type="curve"/>
      <point x="119" y="800"/>
      <point x="240" y="800"/>
      <point x="119" y="800" type="curve"/>
      <point x="119" y="533"/>
      <point x="119" y="267"/>
      <point x="119" y="0" type="curve"/>
      <point x="240" y="0"/>
      <point x="119" y="0"/>
    </contour>
    <contour>
      <point x="181" y="885" type="move" name="top"/>
    </contour>
    <contour>
      <point x="226" y="-3" type="move" name="bottom"/>
    </contour>
  </outline>
</glyph>
<glyph name="m" format="1">
  <advance width="1063"/>
  <unicode hex="006D"/>
  <outline>
    <contour>
      <point x="546" y="0" type="curve"/>
      <point x="674" y="0"/>
      <point x="546" y="0"/>
      <point x="674" y="0" type="curve"/>
      <point x="674" y="91"/>
      <point x="674" y="0"/>
      <point x="674" y="91" type="curve"/>
      <point x="546" y="91"/>
      <point x="674" y="91"/>
      <point x="546" y="91" type="curve"/>
      <point x="546" y="0"/>
      <point x="546" y="91"/>
    </contour>
    <contour>
      <point x="893" y="0" type="curve"/>
      <point x="939" y="0"/>
      <point x="984" y="0"/>
      <point x="1030" y="0" type="curve"/>
      <point x="1030" y="91"/>
      <point x="1030" y="0"/>
      <point x="1030" y="91" type="curve"/>
      <point x="892" y="91"/>
      <point x="1031" y="91"/>
      <point x="893" y="91" type="curve"/>
      <point x="893" y="0"/>
      <point x="893" y="91"/>
    </contour>
    <contour>
      <point x="200" y="91" type="curve"/>
      <point x="50" y="91"/>
      <point x="201" y="91"/>
      <point x="51" y="91" type="curve"/>
      <point x="50" y="0"/>
      <point x="51" y="91"/>
      <point x="50" y="0" type="curve"/>
      <point x="100" y="0"/>
      <point x="150" y="0"/>
      <point x="200" y="0" type="curve"/>
      <point x="200" y="91"/>
      <point x="200" y="0"/>
    </contour>
    <contour>
      <point x="200" y="0" type="curve"/>
      <point x="243" y="0"/>
      <point x="198" y="0"/>
      <point x="327" y="0" type="curve"/>
      <point x="327" y="91"/>
      <point x="327" y="0"/>
      <point x="327" y="91" type="curve"/>
      <point x="198" y="91"/>
      <point x="329" y="91"/>
      <point x="200" y="91" type="curve"/>
      <point x="200" y="0"/>
      <point x="200" y="91"/>
    </contour>
    <contour>
      <point x="200" y="533" type="curve"/>
      <point x="150" y="533"/>
      <point x="100" y="533"/>
      <point x="51" y="533" type="curve"/>
      <point x="50" y="442"/>
      <point x="51" y="533"/>
      <point x="50" y="442" type="curve"/>
      <point x="201" y="442"/>
      <point x="49" y="442"/>
      <point x="200" y="442" type="curve"/>
      <point x="200" y="533"/>
      <point x="200" y="442"/>
    </contour>
    <contour>
      <point x="579" y="285" type="curve"/>
      <point x="614" y="372"/>
      <point x="656" y="443"/>
      <point x="733" y="443" type="curve"/>
      <point x="811" y="443"/>
      <point x="831" y="397"/>
      <point x="831" y="315" type="curve"/>
      <point x="831" y="210"/>
      <point x="831" y="105"/>
      <point x="831" y="0" type="curve"/>
      <point x="952" y="0"/>
      <point x="831" y="0"/>
      <point x="952" y="0" type="curve"/>
      <point x="952" y="108"/>
      <point x="952" y="216"/>
      <point x="952" y="324" type="curve"/>
      <point x="952" y="465"/>
      <point x="905" y="538"/>
      <point x="766" y="538" type="curve"/>
      <point x="652" y="538"/>
      <point x="580" y="457"/>
      <point x="530" y="335" type="curve"/>
      <point x="580" y="286"/>
      <point x="528" y="334"/>
    </contour>
    <contour>
      <point x="233" y="288" type="curve"/>
      <point x="267" y="374"/>
      <point x="309" y="443"/>
      <point x="387" y="443" type="curve"/>
      <point x="464" y="443"/>
      <point x="485" y="397"/>
      <point x="485" y="315" type="curve"/>
      <point x="485" y="210"/>
      <point x="485" y="105"/>
      <point x="485" y="0" type="curve"/>
      <point x="606" y="0"/>
      <point x="485" y="0"/>
      <point x="606" y="0" type="curve"/>
      <point x="606" y="108"/>
      <point x="606" y="216"/>
      <point x="606" y="324" type="curve"/>
      <point x="606" y="465"/>
      <point x="560" y="538"/>
      <point x="421" y="538" type="curve"/>
      <point x="305" y="538"/>
      <point x="242" y="462"/>
      <point x="184" y="337" type="curve"/>
      <point x="234" y="289"/>
      <point x="182" y="336"/>
    </contour>
    <contour>
      <point x="260" y="0" type="curve"/>
      <point x="260" y="178"/>
      <point x="260" y="355"/>
      <point x="260" y="533" type="curve"/>
      <point x="139" y="533"/>
      <point x="260" y="533"/>
      <point x="139" y="533" type="curve"/>
      <point x="139" y="355"/>
      <point x="139" y="178"/>
      <point x="139" y="0" type="curve"/>
      <point x="260" y="0"/>
      <point x="139" y="0"/>
    </contour>
  </outline>
</glyph>
<glyph name="q" format="1">
  <advance width="722"/>
  <unicode hex="0071"/>
  <outline>
    <contour>
      <point x="549" y="442" type="curve"/>
      <point x="654" y="442"/>
      <point x="582" y="442"/>
      <point x="688" y="442" type="curve"/>
      <point x="688" y="503"/>
      <point x="688" y="471"/>
      <point x="688" y="533" type="curve"/>
      <point x="634" y="533"/>
      <point x="602" y="533"/>
      <point x="549" y="533" type="curve"/>
      <point x="549" y="471"/>
      <point x="549" y="503"/>
    </contour>
    <contour>
      <point x="548" y="-208" type="curve"/>
      <point x="435" y="-208"/>
      <point x="513" y="-208"/>
      <point x="399" y="-208" type="curve"/>
      <point x="399" y="-270"/>
      <point x="399" y="-238"/>
      <point x="399" y="-300" type="curve"/>
      <point x="456" y="-300"/>
      <point x="491" y="-300"/>
      <point x="548" y="-300" type="curve"/>
      <point x="548" y="-238"/>
      <point x="548" y="-270"/>
    </contour>
    <contour>
      <point x="548" y="-300" type="curve"/>
      <point x="602" y="-300"/>
      <point x="634" y="-300"/>
      <point x="687" y="-300" type="curve"/>
      <point x="687" y="-238"/>
      <point x="687" y="-270"/>
      <point x="687" y="-208" type="curve"/>
      <point x="581" y="-208"/>
      <point x="655" y="-208"/>
      <point x="548" y="-208" type="curve"/>
      <point x="548" y="-270"/>
      <point x="548" y="-238"/>
    </contour>
    <contour>
      <point x="566" y="398" type="curve"/>
      <point x="497" y="484"/>
      <point x="415" y="538"/>
      <point x="306" y="538" type="curve"/>
      <point x="140" y="538"/>
      <point x="47" y="428"/>
      <point x="48" y="264" type="curve"/>
      <point x="48" y="100"/>
      <point x="145" y="-5"/>
      <point x="311" y="-5" type="curve"/>
      <point x="422" y="-5"/>
      <point x="504" y="54"/>
      <point x="576" y="138" type="curve"/>
      <point x="544" y="173"/>
      <point x="553" y="156"/>
      <point x="520" y="191" type="curve"/>
      <point x="472" y="124"/>
      <point x="408" y="86"/>
      <point x="328" y="86" type="curve"/>
      <point x="224" y="86"/>
      <point x="169" y="160"/>
      <point x="169" y="268" type="curve"/>
      <point x="169" y="373"/>
      <point x="224" y="445"/>
      <point x="326" y="445" type="curve"/>
      <point x="406" y="445"/>
      <point x="470" y="407"/>
      <point x="524" y="338" type="curve"/>
      <point x="549" y="377"/>
      <point x="540" y="360"/>
    </contour>
    <contour>
      <point x="611" y="-300" type="curve"/>
      <point x="611" y="-10"/>
      <point x="611" y="243"/>
      <point x="611" y="533" type="curve"/>
      <point x="527" y="533"/>
      <point x="568" y="533"/>
      <point x="484" y="533" type="curve"/>
      <point x="484" y="243"/>
      <point x="484" y="-10"/>
      <point x="484" y="-300" type="curve"/>
      <point x="568" y="-300"/>
      <point x="527" y="-300"/>
    </contour>
  </outline>
</glyph>
<glyph name="r" format="1">
  <advance width="481"/>
  <unicode hex="0072"/>
  <outline>
    <contour>
      <point x="199" y="0" type="curve"/>
      <point x="250" y="0"/>
      <point x="290" y="0"/>
      <point x="341" y="0" type="curve"/>
      <point x="341" y="62"/>
      <point x="341" y="29"/>
      <point x="341" y="91" type="curve"/>
      <point x="237" y="91"/>
      <point x="303" y="91"/>
      <point x="199" y="91" type="curve"/>
      <point x="199" y="29"/>
      <point x="199" y="62"/>
    </contour>
    <contour>
      <point x="199" y="91" type="curve"/>
      <point x="90" y="91"/>
      <point x="160" y="91"/>
      <point x="50" y="91" type="curve"/>
      <point x="50" y="29"/>
      <point x="50" y="62"/>
      <point x="50" y="0" type="curve"/>
      <point x="103" y="0"/>
      <point x="146" y="0"/>
      <point x="199" y="0" type="curve"/>
      <point x="199" y="62"/>
      <point x="199" y="29"/>
    </contour>
    <contour>
      <point x="198" y="533" type="curve"/>
      <point x="145" y="533"/>
      <point x="102" y="533"/>
      <point x="49" y="533" type="curve"/>
      <point x="49" y="471"/>
      <point x="49" y="504"/>
      <point x="49" y="442" type="curve"/>
      <point x="159" y="442"/>
      <point x="88" y="442"/>
      <point x="198" y="442" type="curve"/>
      <point x="198" y="504"/>
      <point x="198" y="471"/>
    </contour>
    <contour>
      <point x="259" y="0" type="curve"/>
      <point x="259" y="189"/>
      <point x="259" y="344"/>
      <point x="259" y="533" type="curve"/>
      <point x="178" y="533"/>
      <point x="220" y="533"/>
      <point x="138" y="533" type="curve"/>
      <point x="138" y="344"/>
      <point x="138" y="189"/>
      <point x="138" y="0" type="curve"/>
      <point x="220" y="0"/>
      <point x="178" y="0"/>
    </contour>
    <contour>
      <point x="230" y="292" type="curve"/>
      <point x="280" y="404"/>
      <point x="356" y="435"/>
      <point x="459" y="435" type="curve"/>
      <point x="459" y="504"/>
      <point x="459" y="470"/>
      <point x="459" y="538" type="curve"/>
      <point x="334" y="538"/>
      <point x="247" y="468"/>
      <point x="190" y="351" type="curve"/>
      <point x="219" y="313"/>
      <point x="202" y="329"/>
    </contour>
    <contour>
      <point x="237" y="625" type="move" name="top"/>
    </contour>
    <contour>
      <point x="229" y="6" type="move" name="bottom"/>
    </contour>
  </outline>
</glyph>
<glyph name="s" format="1">
  <advance width="556"/>
  <unicode hex="0073"/>
  <outline>
    <contour>
      <point x="58" y="47" type="curve"/>
      <point x="134" y="15"/>
      <point x="198" y="-5"/>
      <point x="278" y="-5" type="curve"/>
      <point x="411" y="-5"/>
      <point x="508" y="39"/>
      <point x="508" y="156" type="curve"/>
      <point x="508" y="267"/>
      <point x="410" y="287"/>
      <point x="293" y="319" type="curve"/>
      <point x="232" y="335"/>
      <point x="177" y="351"/>
      <point x="177" y="395" type="curve"/>
      <point x="177" y="427"/>
      <point x="215" y="445"/>
      <point x="267" y="445" type="curve"/>
      <point x="315" y="445"/>
      <point x="372" y="429"/>
      <point x="406" y="410" type="curve"/>
      <point x="460" y="491"/>
      <point x="406" y="412"/>
      <point x="461" y="492" type="curve"/>
      <point x="416" y="517"/>
      <point x="337" y="538"/>
      <point x="271" y="538" type="curve"/>
      <point x="152" y="538"/>
      <point x="67" y="498"/>
      <point x="67" y="394" type="curve"/>
      <point x="67" y="293"/>
      <point x="146" y="259"/>
      <point x="254" y="231" type="curve"/>
      <point x="323" y="212"/>
      <point x="392" y="201"/>
      <point x="392" y="152" type="curve"/>
      <point x="392" y="111"/>
      <point x="347" y="90"/>
      <point x="291" y="90" type="curve"/>
      <point x="226" y="90"/>
      <point x="179" y="105"/>
      <point x="119" y="130" type="curve"/>
      <point x="58" y="47"/>
      <point x="119" y="130"/>
    </contour>
    <contour>
      <point x="366" y="492" type="curve"/>
      <point x="366" y="368"/>
      <point x="366" y="486"/>
      <point x="366" y="362" type="curve"/>
      <point x="461" y="362"/>
      <point x="366" y="362"/>
      <point x="461" y="362" type="curve"/>
      <point x="461" y="486"/>
      <point x="461" y="368"/>
      <point x="461" y="492" type="curve"/>
      <point x="368" y="492"/>
      <point x="459" y="492"/>
    </contour>
    <contour>
      <point x="151" y="47" type="curve"/>
      <point x="151" y="173"/>
      <point x="151" y="57"/>
      <point x="151" y="183" type="curve"/>
      <point x="57" y="183"/>
      <point x="151" y="183"/>
      <point x="57" y="183" type="curve"/>
      <point x="57" y="57"/>
      <point x="57" y="173"/>
      <point x="57" y="47" type="curve"/>
      <point x="151" y="47"/>
      <point x="57" y="47"/>
    </contour>
    <contour>
      <point x="273" y="625" type="move" name="top"/>
    </contour>
    <contour>
      <point x="308" y="-3" type="move" name="bottom"/>
    </contour>
  </outline>
</glyph>
<glyph name="t" format="1">
  <advance width="434"/>
  <unicode hex="0074"/>
  <outline>
    <contour>
      <point x="15" y="441" type="curve"/>
      <point x="402" y="441" type="line"/>
      <point x="402" y="533"/>
      <point x="402" y="441"/>
      <point x="402" y="533" type="curve"/>
      <point x="15" y="533" type="line"/>
      <point x="15" y="441"/>
      <point x="15" y="533"/>
    </contour>
    <contour>
      <point x="378" y="108" type="curve"/>
      <point x="352" y="95"/>
      <point x="332" y="90"/>
      <point x="303" y="90" type="curve"/>
      <point x="255" y="90"/>
      <point x="236" y="118"/>
      <point x="236" y="169" type="curve"/>
      <point x="236" y="685" type="line"/>
      <point x="182" y="651"/>
      <point x="169" y="648"/>
      <point x="115" y="614" type="curve"/>
      <point x="115" y="164" type="line"/>
      <point x="115" y="51"/>
      <point x="179" y="-6"/>
      <point x="289" y="-6" type="curve"/>
      <point x="342" y="-6"/>
      <point x="378" y="9"/>
      <point x="417" y="28" type="curve"/>
      <point x="378" y="108"/>
      <point x="417" y="28"/>
    </contour>
    <contour>
      <point x="316" y="-2" type="move" name="bottom"/>
    </contour>
  </outline>
</glyph>
<glyph name="v" format="1">
  <advance width="697"/>
  <unicode hex="0076"/>
  <outline>
    <contour>
      <point x="143" y="533" type="curve"/>
      <point x="101" y="533"/>
      <point x="59" y="533"/>
      <point x="17" y="533" type="curve"/>
      <point x="17" y="442"/>
      <point x="17" y="533"/>
      <point x="17" y="442" type="curve"/>
      <point x="144" y="442"/>
      <point x="16" y="442"/>
      <point x="143" y="442" type="curve"/>
      <point x="143" y="533"/>
      <point x="143" y="442"/>
    </contour>
    <contour>
      <point x="143" y="442" type="curve"/>
      <point x="290" y="442"/>
      <point x="143" y="442"/>
      <point x="289" y="442" type="curve"/>
      <point x="289" y="533"/>
      <point x="289" y="442"/>
      <point x="289" y="533" type="curve"/>
      <point x="240" y="533"/>
      <point x="192" y="533"/>
      <point x="143" y="533" type="curve"/>
      <point x="143" y="442"/>
      <point x="143" y="533"/>
    </contour>
    <contour>
      <point x="561" y="533" type="curve"/>
      <point x="512" y="533"/>
      <point x="463" y="533"/>
      <point x="414" y="533" type="curve"/>
      <point x="414" y="442"/>
      <point x="414" y="533"/>
      <point x="414" y="442" type="curve"/>
      <point x="562" y="442"/>
      <point x="413" y="442"/>
      <point x="561" y="442" type="curve"/>
      <point x="561" y="533"/>
      <point x="561" y="442"/>
    </contour>
    <contour>
      <point x="561" y="442" type="curve"/>
      <point x="691" y="442"/>
      <point x="560" y="442"/>
      <point x="690" y="442" type="curve"/>
      <point x="690" y="533"/>
      <point x="690" y="442"/>
      <point x="690" y="533" type="curve"/>
      <point x="646" y="533"/>
      <point x="604" y="533"/>
      <point x="561" y="533" type="curve"/>
      <point x="561" y="442"/>
      <point x="561" y="533"/>
    </contour>
    <contour>
      <point x="63" y="533" type="curve"/>
      <point x="135" y="355"/>
      <point x="208" y="178"/>
      <point x="280" y="0" type="curve"/>
      <point x="398" y="0"/>
      <point x="280" y="0"/>
      <point x="398" y="0" type="curve"/>
      <point x="326" y="178"/>
      <point x="258" y="355"/>
      <point x="187" y="533" type="curve"/>
      <point x="63" y="533"/>
      <point x="187" y="533"/>
    </contour>
    <contour>
      <point x="519" y="533" type="curve"/>
      <point x="295" y="0" type="line"/>
      <point x="413" y="0"/>
      <point x="295" y="0"/>
      <point x="413" y="0" type="curve"/>
      <point x="489" y="178"/>
      <point x="565" y="355"/>
      <point x="641" y="533" type="curve"/>
      <point x="519" y="533"/>
      <point x="641" y="533"/>
    </contour>
  </outline>
</glyph>
<glyph name="w" format="1">
  <advance width="1037"/>
  <unicode hex="0077"/>
  <outline>
    <contour>
      <point x="887" y="442" type="curve"/>
      <point x="1026" y="442"/>
      <point x="886" y="442"/>
      <point x="1025" y="442" type="curve"/>
      <point x="1025" y="533"/>
      <point x="1025" y="442"/>
      <point x="1025" y="533" type="curve"/>
      <point x="979" y="533"/>
      <point x="933" y="533"/>
      <point x="887" y="533" type="curve"/>
      <point x="887" y="442"/>
      <point x="887" y="533"/>
    </contour>
    <contour>
      <point x="887" y="533" type="curve"/>
      <point x="840" y="533"/>
      <point x="796" y="533"/>
      <point x="749" y="533" type="curve"/>
      <point x="749" y="442"/>
      <point x="749" y="533"/>
      <point x="749" y="442" type="curve"/>
      <point x="890" y="442"/>
      <point x="746" y="442"/>
      <point x="887" y="442" type="curve"/>
      <point x="887" y="533"/>
      <point x="887" y="442"/>
    </contour>
    <contour>
      <point x="152" y="533" type="curve"/>
      <point x="106" y="533"/>
      <point x="60" y="533"/>
      <point x="14" y="533" type="curve"/>
      <point x="14" y="442"/>
      <point x="14" y="533"/>
      <point x="14" y="442" type="curve"/>
      <point x="153" y="442"/>
      <point x="13" y="442"/>
      <point x="152" y="442" type="curve"/>
      <point x="152" y="533"/>
      <point x="152" y="442"/>
    </contour>
    <contour>
      <point x="152" y="442" type="curve"/>
      <point x="291" y="442"/>
      <point x="150" y="442"/>
      <point x="289" y="442" type="curve"/>
      <point x="289" y="533"/>
      <point x="289" y="442"/>
      <point x="289" y="533" type="curve"/>
      <point x="243" y="533"/>
      <point x="198" y="533"/>
      <point x="152" y="533" type="curve"/>
      <point x="152" y="442"/>
      <point x="152" y="533"/>
    </contour>
    <contour>
      <point x="369" y="0" type="curve"/>
      <point x="440" y="178"/>
      <point x="511" y="355"/>
      <point x="581" y="533" type="curve"/>
      <point x="465" y="533"/>
      <point x="581" y="533"/>
      <point x="465" y="533" type="curve"/>
      <point x="396" y="355"/>
      <point x="327" y="178"/>
      <point x="257" y="0" type="curve"/>
      <point x="369" y="0"/>
      <point x="257" y="0"/>
    </contour>
    <contour>
      <point x="858" y="533" type="curve"/>
      <point x="793" y="355"/>
      <point x="728" y="178"/>
      <point x="664" y="0" type="curve"/>
      <point x="776" y="0"/>
      <point x="664" y="0"/>
      <point x="776" y="0" type="curve"/>
      <point x="842" y="178"/>
      <point x="908" y="355"/>
      <point x="974" y="533" type="curve"/>
      <point x="858" y="533"/>
      <point x="974" y="533"/>
    </contour>
    <contour>
      <point x="472" y="533" type="curve"/>
      <point x="535" y="355"/>
      <point x="599" y="178"/>
      <point x="662" y="0" type="curve"/>
      <point x="775" y="0"/>
      <point x="662" y="0"/>
      <point x="775" y="0" type="curve"/>
      <point x="712" y="178"/>
      <point x="649" y="355"/>
      <point x="586" y="533" type="curve"/>
      <point x="472" y="533"/>
      <point x="586" y="533"/>
    </contour>
    <contour>
      <point x="66" y="533" type="curve"/>
      <point x="129" y="355"/>
      <point x="193" y="178"/>
      <point x="256" y="0" type="curve"/>
      <point x="368" y="0"/>
      <point x="256" y="0"/>
      <point x="368" y="0" type="curve"/>
      <point x="306" y="178"/>
      <point x="243" y="355"/>
      <point x="181" y="533" type="curve"/>
      <point x="66" y="533"/>
      <point x="181" y="533"/>
    </contour>
  </outline>
</glyph>
<glyph name="x" format="1">
  <advance width="683"/>
  <unicode hex="0078"/>
  <outline>
    <contour>
      <point x="133" y="91" type="curve"/>
      <point x="4" y="91"/>
      <point x="146" y="91"/>
      <point x="17" y="91" type="curve"/>
      <point x="17" y="0"/>
      <point x="17" y="91"/>
      <point x="17" y="0" type="curve"/>
      <point x="60" y="0"/>
      <point x="90" y="0"/>
      <point x="133" y="0" type="curve"/>
      <point x="133" y="91"/>
      <point x="133" y="0"/>
    </contour>
    <contour>
      <point x="566" y="91" type="curve"/>
      <point x="385" y="91"/>
      <point x="570" y="91"/>
      <point x="389" y="91" type="curve"/>
      <point x="389" y="0"/>
      <point x="389" y="91"/>
      <point x="389" y="0" type="curve"/>
      <point x="449" y="0"/>
      <point x="505" y="0"/>
      <point x="566" y="0" type="curve"/>
      <point x="566" y="91"/>
      <point x="566" y="0"/>
    </contour>
    <contour>
      <point x="558" y="0" type="curve"/>
      <point x="601" y="0"/>
      <point x="633" y="0"/>
      <point x="675" y="0" type="curve"/>
      <point x="675" y="91"/>
      <point x="675" y="0"/>
      <point x="675" y="91" type="curve"/>
      <point x="549" y="91"/>
      <point x="684" y="91"/>
      <point x="558" y="91" type="curve"/>
      <point x="558" y="0"/>
      <point x="558" y="91"/>
    </contour>
    <contour>
      <point x="126" y="0" type="curve"/>
      <point x="187" y="0"/>
      <point x="121" y="0"/>
      <point x="303" y="0" type="curve"/>
      <point x="303" y="91"/>
      <point x="303" y="0"/>
      <point x="303" y="91" type="curve"/>
      <point x="121" y="91"/>
      <point x="308" y="91"/>
      <point x="126" y="91" type="curve"/>
      <point x="126" y="0"/>
      <point x="126" y="91"/>
    </contour>
    <contour>
      <point x="534" y="442" type="curve"/>
      <point x="666" y="442"/>
      <point x="526" y="442"/>
      <point x="658" y="442" type="curve"/>
      <point x="658" y="533"/>
      <point x="658" y="442"/>
      <point x="658" y="533" type="curve"/>
      <point x="614" y="533"/>
      <point x="578" y="533"/>
      <point x="534" y="533" type="curve"/>
      <point x="534" y="442"/>
      <point x="534" y="533"/>
    </contour>
    <contour>
      <point x="170" y="533" type="curve"/>
      <point x="124" y="533"/>
      <point x="90" y="533"/>
      <point x="45" y="533" type="curve"/>
      <point x="45" y="442"/>
      <point x="45" y="533"/>
      <point x="45" y="442" type="curve"/>
      <point x="182" y="442"/>
      <point x="33" y="442"/>
      <point x="170" y="442" type="curve"/>
      <point x="170" y="533"/>
      <point x="170" y="442"/>
    </contour>
    <contour>
      <point x="147" y="442" type="curve"/>
      <point x="320" y="442"/>
      <point x="134" y="442"/>
      <point x="307" y="442" type="curve"/>
      <point x="307" y="533"/>
      <point x="307" y="442"/>
      <point x="307" y="533" type="curve"/>
      <point x="249" y="533"/>
      <point x="205" y="533"/>
      <point x="147" y="533" type="curve"/>
      <point x="147" y="442"/>
      <point x="147" y="533"/>
    </contour>
    <contour>
      <point x="545" y="533" type="curve"/>
      <point x="489" y="533"/>
      <point x="447" y="533"/>
      <point x="393" y="533" type="curve"/>
      <point x="393" y="442"/>
      <point x="393" y="533"/>
      <point x="393" y="442" type="curve"/>
      <point x="558" y="442"/>
      <point x="380" y="442"/>
      <point x="545" y="442" type="curve"/>
      <point x="545" y="533"/>
      <point x="545" y="442"/>
    </contour>
    <contour>
      <point x="618" y="37" type="curve"/>
      <point x="582" y="80"/>
      <point x="211" y="490"/>
      <point x="175" y="533" type="curve"/>
      <point x="69" y="533"/>
      <point x="191" y="494"/>
      <point x="85" y="494" type="curve"/>
      <point x="120" y="450"/>
      <point x="483" y="43"/>
      <point x="519" y="0" type="curve"/>
      <point x="634" y="0"/>
      <point x="503" y="37"/>
    </contour>
    <contour>
      <point x="527" y="533" type="curve"/>
      <point x="491" y="490"/>
      <point x="107" y="82"/>
      <point x="71" y="39" type="curve"/>
      <point x="186" y="39"/>
      <point x="57" y="0"/>
      <point x="171" y="0" type="curve"/>
      <point x="207" y="43"/>
      <point x="577" y="449"/>
      <point x="613" y="492" type="curve"/>
      <point x="507" y="492"/>
      <point x="633" y="533"/>
    </contour>
  </outline>
</glyph>
<glyph name="y" format="1">
  <advance width="736"/>
  <unicode hex="0079"/>
  <outline>
    <contour>
      <point x="237" y="-208" type="curve"/>
      <point x="114" y="-209"/>
      <point x="238" y="-208"/>
      <point x="115" y="-209" type="curve"/>
      <point x="115" y="-300"/>
      <point x="115" y="-209"/>
      <point x="115" y="-300" type="curve"/>
      <point x="157" y="-300"/>
      <point x="196" y="-300"/>
      <point x="237" y="-300" type="curve"/>
      <point x="237" y="-208"/>
      <point x="237" y="-300"/>
    </contour>
    <contour>
      <point x="159" y="533" type="curve"/>
      <point x="111" y="533"/>
      <point x="65" y="533"/>
      <point x="17" y="533" type="curve"/>
      <point x="17" y="442"/>
      <point x="17" y="533"/>
      <point x="17" y="442" type="curve"/>
      <point x="160" y="442"/>
      <point x="16" y="442"/>
      <point x="159" y="442" type="curve"/>
      <point x="159" y="533"/>
      <point x="159" y="442"/>
    </contour>
    <contour>
      <point x="159" y="442" type="curve"/>
      <point x="312" y="442"/>
      <point x="158" y="442"/>
      <point x="311" y="442" type="curve"/>
      <point x="311" y="533"/>
      <point x="311" y="442"/>
      <point x="311" y="533" type="curve"/>
      <point x="260" y="533"/>
      <point x="211" y="533"/>
      <point x="159" y="533" type="curve"/>
      <point x="159" y="442"/>
      <point x="159" y="533"/>
    </contour>
    <contour>
      <point x="594" y="533" type="curve"/>
      <point x="540" y="533"/>
      <point x="488" y="533"/>
      <point x="434" y="533" type="curve"/>
      <point x="434" y="442"/>
      <point x="434" y="533"/>
      <point x="434" y="442" type="curve"/>
      <point x="595" y="442"/>
      <point x="433" y="442"/>
      <point x="594" y="442" type="curve"/>
      <point x="594" y="533"/>
      <point x="594" y="442"/>
    </contour>
    <contour>
      <point x="594" y="442" type="curve"/>
      <point x="728" y="442"/>
      <point x="593" y="442"/>
      <point x="727" y="442" type="curve"/>
      <point x="727" y="533"/>
      <point x="727" y="442"/>
      <point x="727" y="533" type="curve"/>
      <point x="682" y="533"/>
      <point x="638" y="533"/>
      <point x="594" y="533" type="curve"/>
      <point x="594" y="442"/>
      <point x="594" y="533"/>
    </contour>
    <contour>
      <point x="414" y="-10" type="curve"/>
      <point x="379" y="79"/>
      <point x="227" y="444"/>
      <point x="192" y="533" type="curve"/>
      <point x="68" y="533"/>
      <point x="192" y="533"/>
      <point x="68" y="533" type="curve"/>
      <point x="105" y="445"/>
      <point x="268" y="71"/>
      <point x="305" y="-17" type="curve"/>
      <point x="414" y="-17"/>
      <point x="305" y="-10"/>
    </contour>
    <contour>
      <point x="287" y="-300" type="curve"/>
      <point x="346" y="-165"/>
      <point x="620" y="398"/>
      <point x="680" y="533" type="curve"/>
      <point x="556" y="533"/>
      <point x="680" y="533"/>
      <point x="556" y="533" type="curve"/>
      <point x="496" y="398"/>
      <point x="222" y="-165"/>
      <point x="163" y="-300" type="curve"/>
      <point x="287" y="-300"/>
      <point x="163" y="-300"/>
    </contour>
    <contour>
      <point x="372" y="625" type="move" name="top"/>
    </contour>
  </outline>
</glyph>
<glyph name="z" format="1">
  <advance width="571"/>
  <unicode hex="007A"/>
  <outline>
    <contour>
      <point x="63" y="442" type="curve"/>
      <point x="201" y="442"/>
      <point x="335" y="442"/>
      <point x="473" y="442" type="curve"/>
      <point x="464" y="452"/>
      <point x="446" y="448"/>
      <point x="438" y="458" type="curve"/>
      <point x="430" y="467"/>
      <point x="429" y="479"/>
      <point x="422" y="488" type="curve"/>
      <point x="414" y="481"/>
      <point x="403" y="486"/>
      <point x="396" y="479" type="curve"/>
      <point x="45" y="92" type="line"/>
      <point x="45" y="45"/>
      <point x="45" y="92"/>
      <point x="45" y="45" type="curve"/>
      <point x="45" y="0"/>
      <point x="45" y="45"/>
      <point x="45" y="0" type="curve"/>
      <point x="88" y="0"/>
      <point x="45" y="0"/>
      <point x="88" y="0" type="curve"/>
      <point x="539" y="0"/>
      <point x="384" y="0"/>
      <point x="535" y="0" type="curve"/>
      <point x="535" y="91"/>
      <point x="535" y="0"/>
      <point x="535" y="91" type="curve"/>
      <point x="384" y="91"/>
      <point x="238" y="92"/>
      <point x="88" y="92" type="curve"/>
      <point x="97" y="85"/>
      <point x="110" y="84"/>
      <point x="119" y="78" type="curve"/>
      <point x="127" y="68"/>
      <point x="130" y="54"/>
      <point x="138" y="45" type="curve"/>
      <point x="145" y="52"/>
      <point x="153" y="47"/>
      <point x="160" y="54" type="curve"/>
      <point x="512" y="442" type="line"/>
      <point x="512" y="488"/>
      <point x="512" y="442"/>
      <point x="512" y="488" type="curve"/>
      <point x="512" y="533"/>
      <point x="512" y="488"/>
      <point x="512" y="533" type="curve"/>
      <point x="473" y="533"/>
      <point x="512" y="533"/>
      <point x="473" y="533" type="curve"/>
      <point x="335" y="533"/>
      <point x="201" y="533"/>
      <point x="63" y="533" type="curve"/>
      <point x="63" y="442"/>
      <point x="63" y="533"/>
    </contour>
    <contour>
      <point x="63" y="488" type="curve"/>
      <point x="63" y="368"/>
      <point x="63" y="489"/>
      <point x="63" y="369" type="curve"/>
      <point x="157" y="369"/>
      <point x="63" y="369"/>
      <point x="157" y="369" type="curve"/>
      <point x="157" y="489"/>
      <point x="157" y="368"/>
      <point x="157" y="488" type="curve"/>
      <point x="63" y="488"/>
      <point x="157" y="488"/>
    </contour>
    <contour>
      <point x="535" y="45" type="curve"/>
      <point x="535" y="165"/>
      <point x="535" y="44"/>
      <point x="535" y="164" type="curve"/>
      <point x="441" y="164"/>
      <point x="535" y="164"/>
      <point x="441" y="164" type="curve"/>
      <point x="441" y="44"/>
      <point x="441" y="165"/>
      <point x="441" y="45" type="curve"/>
      <point x="535" y="45"/>
      <point x="441" y="45"/>
    </contour>
    <contour>
      <point x="289" y="625" type="move" name="top"/>
    </contour>
  </outline>
</glyph>
<glyph name="braceleft" format="1">
  <advance width="330"/>
  <unicode hex="007B"/>
  <outline>
    <contour>
      <point x="279" y="-20" type="curve"/>
      <point x="233" y="-20"/>
      <point x="213" y="11"/>
      <point x="213" y="57" type="curve"/>
      <point x="213" y="110"/>
      <point x="213" y="163"/>
      <point x="213" y="215" type="curve"/>
      <point x="213" y="322"/>
      <point x="146" y="389"/>
      <point x="39" y="389" type="curve"/>
      <point x="39" y="293"/>
      <point x="39" y="389"/>
      <point x="39" y="293" type="curve"/>
      <point x="81" y="293"/>
      <point x="103" y="267"/>
      <point x="103" y="224" type="curve"/>
      <point x="103" y="170"/>
      <point x="103" y="116"/>
      <point x="103" y="62" type="curve"/>
      <point x="103" y="-46"/>
      <point x="170" y="-111"/>
      <point x="279" y="-111" type="curve"/>
      <point x="279" y="-20"/>
      <point x="279" y="-111"/>
    </contour>
    <contour>
      <point x="279" y="792" type="curve"/>
      <point x="170" y="792"/>
      <point x="103" y="729"/>
      <point x="103" y="622" type="curve"/>
      <point x="103" y="566"/>
      <point x="103" y="510"/>
      <point x="103" y="454" type="curve"/>
      <point x="103" y="412"/>
      <point x="80" y="389"/>
      <point x="39" y="389" type="curve"/>
      <point x="39" y="293"/>
      <point x="39" y="389"/>
      <point x="39" y="293" type="curve"/>
      <point x="146" y="293"/>
      <point x="213" y="359"/>
      <point x="213" y="467" type="curve"/>
      <point x="213" y="519"/>
      <point x="213" y="570"/>
      <point x="213" y="622" type="curve"/>
      <point x="213" y="669"/>
      <point x="232" y="700"/>
      <point x="279" y="700" type="curve"/>
      <point x="279" y="792"/>
      <point x="279" y="700"/>
    </contour>
  </outline>
</glyph>
<glyph name="braceright" format="1">
  <advance width="331"/>
  <unicode hex="007D"/>
  <outline>
    <contour>
      <point x="51" y="-112" type="curve"/>
      <point x="160" y="-112"/>
      <point x="227" y="-46"/>
      <point x="227" y="62" type="curve"/>
      <point x="227" y="116"/>
      <point x="227" y="170"/>
      <point x="227" y="224" type="curve"/>
      <point x="227" y="267"/>
      <point x="249" y="293"/>
      <point x="292" y="293" type="curve"/>
      <point x="292" y="389"/>
      <point x="292" y="293"/>
      <point x="292" y="389" type="curve"/>
      <point x="184" y="389"/>
      <point x="117" y="322"/>
      <point x="117" y="215" type="curve"/>
      <point x="117" y="163"/>
      <point x="117" y="110"/>
      <point x="117" y="57" type="curve"/>
      <point x="117" y="11"/>
      <point x="97" y="-20"/>
      <point x="51" y="-20" type="curve"/>
      <point x="51" y="-112"/>
      <point x="51" y="-20"/>
    </contour>
    <contour>
      <point x="51" y="700" type="curve"/>
      <point x="98" y="700"/>
      <point x="117" y="669"/>
      <point x="117" y="622" type="curve"/>
      <point x="117" y="570"/>
      <point x="117" y="519"/>
      <point x="117" y="467" type="curve"/>
      <point x="117" y="358"/>
      <point x="184" y="293"/>
      <point x="292" y="293" type="curve"/>
      <point x="292" y="389"/>
      <point x="292" y="293"/>
      <point x="292" y="389" type="curve"/>
      <point x="249" y="389"/>
      <point x="227" y="412"/>
      <point x="227" y="454" type="curve"/>
      <point x="227" y="510"/>
      <point x="227" y="566"/>
      <point x="227" y="622" type="curve"/>
      <point x="227" y="729"/>
      <point x="160" y="792"/>
      <point x="51" y="792" type="curve"/>
      <point x="51" y="700"/>
      <point x="51" y="792"/>
    </contour>
  </outline>
</glyph>
<glyph name="asciitilde" format="1">
  <advance width="730"/>
  <unicode hex="007E"/>
  <outline>
    <contour>
      <point x="568" y="372" type="curve"/>
      <point x="551" y="329"/>
      <point x="534" y="292"/>
      <point x="493" y="292" type="curve"/>
      <point x="454" y="292"/>
      <point x="430" y="301"/>
      <point x="398" y="323" type="curve"/>
      <point x="346" y="362"/>
      <point x="310" y="382"/>
      <point x="245" y="382" type="curve"/>
      <point x="147" y="382"/>
      <point x="98" y="334"/>
      <point x="68" y="242" type="curve"/>
      <point x="106" y="226"/>
      <point x="120" y="220"/>
      <point x="158" y="205" type="curve"/>
      <point x="173" y="253"/>
      <point x="195" y="288"/>
      <point x="240" y="288" type="curve"/>
      <point x="275" y="288"/>
      <point x="295" y="279"/>
      <point x="323" y="259" type="curve"/>
      <point x="379" y="219"/>
      <point x="417" y="199"/>
      <point x="487" y="198" type="curve"/>
      <point x="582" y="198"/>
      <point x="627" y="248"/>
      <point x="662" y="335" type="curve"/>
      <point x="622" y="351"/>
      <point x="608" y="357"/>
    </contour>
  </outline>
</glyph>
<glyph name="exclamdown" format="1">
  <advance width="273"/>
  <unicode hex="00A1"/>
  <outline>
    <contour>
      <point x="85" y="303" type="line"/>
      <point x="71" y="-190" type="line"/>
      <point x="202" y="-190" type="line"/>
      <point x="190" y="303" type="line"/>
    </contour>
    <contour>
      <point x="69" y="481" type="curve"/>
      <point x="69" y="441"/>
      <point x="98" y="421"/>
      <point x="138" y="421" type="curve"/>
      <point x="178" y="421"/>
      <point x="206" y="442"/>
      <point x="206" y="481" type="curve"/>
      <point x="72" y="481"/>
      <point x="203" y="481"/>
      <point x="69" y="481" type="curve"/>
      <point x="69" y="523"/>
      <point x="98" y="541"/>
      <point x="139" y="541" type="curve"/>
      <point x="180" y="541"/>
      <point x="206" y="520"/>
      <point x="206" y="481" type="curve"/>
      <point x="72" y="481"/>
      <point x="203" y="481"/>
    </contour>
  </outline>
</glyph>
<glyph name="cent" format="1">
  <advance width="708"/>
  <unicode hex="00A2"/>
  <outline>
    <contour>
      <point x="435" y="-53" type="curve"/>
      <point x="435" y="-13"/>
      <point x="435" y="27"/>
      <point x="435" y="67" type="curve"/>
      <point x="314" y="67"/>
      <point x="435" y="67"/>
      <point x="314" y="67" type="curve"/>
      <point x="314" y="27"/>
      <point x="314" y="-13"/>
      <point x="314" y="-53" type="curve"/>
      <point x="435" y="-53"/>
      <point x="314" y="-53"/>
    </contour>
    <contour>
      <point x="336" y="778" type="curve"/>
      <point x="336" y="742"/>
      <point x="336" y="706"/>
      <point x="336" y="670" type="curve"/>
      <point x="457" y="670"/>
      <point x="336" y="670"/>
      <point x="457" y="670" type="curve"/>
      <point x="457" y="706"/>
      <point x="457" y="742"/>
      <point x="457" y="778" type="curve"/>
      <point x="336" y="778"/>
      <point x="457" y="778"/>
    </contour>
    <contour>
      <point x="651" y="613" type="curve"/>
      <point x="569" y="666"/>
      <point x="501" y="685"/>
      <point x="405" y="685" type="curve"/>
      <point x="194" y="685"/>
      <point x="53" y="570"/>
      <point x="53" y="364" type="curve"/>
      <point x="53" y="168"/>
      <point x="172" y="47"/>
      <point x="368" y="47" type="curve"/>
      <point x="481" y="47"/>
      <point x="560" y="73"/>
      <point x="650" y="141" type="curve"/>
      <point x="583" y="217"/>
      <point x="650" y="141"/>
      <point x="583" y="217" type="curve"/>
      <point x="511" y="168"/>
      <point x="459" y="143"/>
      <point x="380" y="143" type="curve"/>
      <point x="248" y="143"/>
      <point x="174" y="232"/>
      <point x="174" y="369" type="curve"/>
      <point x="174" y="507"/>
      <point x="260" y="589"/>
      <point x="394" y="589" type="curve"/>
      <point x="469" y="589"/>
      <point x="521" y="573"/>
      <point x="591" y="533" type="curve"/>
      <point x="651" y="613"/>
      <point x="591" y="533"/>
    </contour>
    <contour>
      <point x="557" y="613" type="curve"/>
      <point x="557" y="490"/>
      <point x="557" y="593"/>
      <point x="557" y="470" type="curve"/>
      <point x="651" y="470"/>
      <point x="557" y="470"/>
      <point x="651" y="470" type="curve"/>
      <point x="651" y="593"/>
      <point x="651" y="490"/>
      <point x="651" y="613" type="curve"/>
      <point x="557" y="613"/>
      <point x="651" y="613"/>
    </contour>
  </outline>
</glyph>
<glyph name="sterling" format="1">
  <advance width="548"/>
  <unicode hex="00A3"/>
  <outline>
    <contour>
      <point x="474" y="92" type="curve"/>
      <point x="334" y="92"/>
      <point x="191" y="92"/>
      <point x="51" y="92" type="curve"/>
      <point x="51" y="0"/>
      <point x="51" y="92"/>
      <point x="51" y="0" type="curve"/>
      <point x="191" y="0"/>
      <point x="334" y="0"/>
      <point x="474" y="0" type="curve"/>
      <point x="474" y="92"/>
      <point x="474" y="0"/>
    </contour>
    <contour>
      <point x="422" y="421" type="curve"/>
      <point x="310" y="421"/>
      <point x="195" y="421"/>
      <point x="84" y="421" type="curve"/>
      <point x="84" y="330"/>
      <point x="84" y="421"/>
      <point x="84" y="330" type="curve"/>
      <point x="195" y="330"/>
      <point x="310" y="330"/>
      <point x="422" y="330" type="curve"/>
      <point x="422" y="421"/>
      <point x="422" y="330"/>
    </contour>
    <contour>
      <point x="504" y="664" type="curve"/>
      <point x="452" y="707"/>
      <point x="408" y="721"/>
      <point x="344" y="721" type="curve"/>
      <point x="170" y="721"/>
      <point x="98" y="560"/>
      <point x="143" y="366" type="curve"/>
      <point x="177" y="222"/>
      <point x="155" y="92"/>
      <point x="51" y="92" type="curve"/>
      <point x="51" y="0"/>
      <point x="51" y="92"/>
      <point x="51" y="0" type="curve"/>
      <point x="240" y="0"/>
      <point x="306" y="176"/>
      <point x="258" y="384" type="curve"/>
      <point x="228" y="516"/>
      <point x="249" y="634"/>
      <point x="338" y="634" type="curve"/>
      <point x="381" y="634"/>
      <point x="409" y="620"/>
      <point x="445" y="596" type="curve"/>
      <point x="504" y="664"/>
      <point x="445" y="596"/>
    </contour>
  </outline>
</glyph>
<glyph name="currency" format="1">
  <advance width="702"/>
  <unicode hex="00A4"/>
  <outline>
    <contour>
      <point x="256" y="315" type="curve"/>
      <point x="256" y="374"/>
      <point x="290" y="413"/>
      <point x="349" y="413" type="curve"/>
      <point x="411" y="413"/>
      <point x="445" y="376"/>
      <point x="445" y="315" type="curve"/>
      <point x="445" y="255"/>
      <point x="414" y="212"/>
      <point x="356" y="212" type="curve"/>
      <point x="291" y="212"/>
      <point x="256" y="252"/>
      <point x="256" y="315" type="curve"/>
      <point x="135" y="315"/>
      <point x="259" y="315"/>
      <point x="138" y="315" type="curve"/>
      <point x="138" y="190"/>
      <point x="224" y="121"/>
      <point x="353" y="121" type="curve"/>
      <point x="481" y="121"/>
      <point x="565" y="194"/>
      <point x="565" y="318" type="curve"/>
      <point x="565" y="437"/>
      <point x="482" y="504"/>
      <point x="360" y="504" type="curve"/>
      <point x="229" y="504"/>
      <point x="138" y="439"/>
      <point x="138" y="315" type="curve"/>
      <point x="259" y="315"/>
      <point x="135" y="315"/>
    </contour>
    <contour>
      <point x="482" y="337" type="line"/>
      <point x="642" y="485" type="line"/>
      <point x="550" y="577" type="line"/>
      <point x="402" y="417" type="line"/>
    </contour>
    <contour>
      <point x="404" y="214" type="line"/>
      <point x="553" y="54" type="line"/>
      <point x="644" y="146" type="line"/>
      <point x="485" y="294" type="line"/>
    </contour>
    <contour>
      <point x="217" y="295" type="line"/>
      <point x="57" y="147" type="line"/>
      <point x="149" y="55" type="line"/>
      <point x="298" y="215" type="line"/>
    </contour>
    <contour>
      <point x="301" y="419" type="line"/>
      <point x="153" y="579" type="line"/>
      <point x="61" y="487" type="line"/>
      <point x="221" y="338" type="line"/>
    </contour>
  </outline>
</glyph>
<glyph name="yen" format="1">
  <advance width="772"/>
  <unicode hex="00A5"/>
  <outline>
    <contour>
      <point x="615" y="422" type="curve"/>
      <point x="542" y="422"/>
      <point x="469" y="422"/>
      <point x="395" y="422" type="curve"/>
      <point x="395" y="321"/>
      <point x="395" y="422"/>
      <point x="395" y="321" type="curve"/>
      <point x="469" y="321"/>
      <point x="542" y="321"/>
      <point x="615" y="321" type="curve"/>
      <point x="615" y="422"/>
      <point x="615" y="321"/>
    </contour>
    <contour>
      <point x="365" y="422" type="curve"/>
      <point x="293" y="422"/>
      <point x="221" y="422"/>
      <point x="149" y="422" type="curve"/>
      <point x="149" y="321"/>
      <point x="149" y="422"/>
      <point x="149" y="321" type="curve"/>
      <point x="221" y="321"/>
      <point x="293" y="321"/>
      <point x="365" y="321" type="curve"/>
      <point x="365" y="422"/>
      <point x="365" y="321"/>
    </contour>
    <contour>
      <point x="615" y="273" type="curve"/>
      <point x="460" y="273"/>
      <point x="304" y="273"/>
      <point x="149" y="273" type="curve"/>
      <point x="149" y="173"/>
      <point x="149" y="273"/>
      <point x="149" y="173" type="curve"/>
      <point x="304" y="173"/>
      <point x="460" y="173"/>
      <point x="615" y="173" type="curve"/>
      <point x="615" y="273"/>
      <point x="615" y="173"/>
    </contour>
    <contour>
      <point x="378" y="91" type="curve"/>
      <point x="224" y="91"/>
      <point x="379" y="91"/>
      <point x="225" y="91" type="curve"/>
      <point x="225" y="0"/>
      <point x="225" y="91"/>
      <point x="225" y="0" type="curve"/>
      <point x="277" y="0"/>
      <point x="327" y="0"/>
      <point x="378" y="0" type="curve"/>
      <point x="378" y="91"/>
      <point x="378" y="0"/>
    </contour>
    <contour>
      <point x="378" y="0" type="curve"/>
      <point x="430" y="0"/>
      <point x="480" y="0"/>
      <point x="531" y="0" type="curve"/>
      <point x="531" y="91"/>
      <point x="531" y="0"/>
      <point x="531" y="91" type="curve"/>
      <point x="377" y="91"/>
      <point x="532" y="91"/>
      <point x="378" y="91" type="curve"/>
      <point x="378" y="0"/>
      <point x="378" y="91"/>
    </contour>
    <contour>
      <point x="592" y="722" type="curve"/>
      <point x="542" y="722"/>
      <point x="493" y="722"/>
      <point x="443" y="722" type="curve"/>
      <point x="443" y="631"/>
      <point x="443" y="722"/>
      <point x="443" y="631" type="curve"/>
      <point x="593" y="631"/>
      <point x="442" y="631"/>
      <point x="592" y="631" type="curve"/>
      <point x="592" y="722"/>
      <point x="592" y="631"/>
    </contour>
    <contour>
      <point x="170" y="722" type="curve"/>
      <point x="126" y="722"/>
      <point x="82" y="722"/>
      <point x="38" y="722" type="curve"/>
      <point x="38" y="631"/>
      <point x="38" y="722"/>
      <point x="38" y="631" type="curve"/>
      <point x="171" y="631"/>
      <point x="37" y="631"/>
      <point x="170" y="631" type="curve"/>
      <point x="170" y="722"/>
      <point x="170" y="631"/>
    </contour>
    <contour>
      <point x="177" y="631" type="curve"/>
      <point x="328" y="631"/>
      <point x="176" y="631"/>
      <point x="327" y="631" type="curve"/>
      <point x="327" y="722"/>
      <point x="327" y="631"/>
      <point x="327" y="722" type="curve"/>
      <point x="276" y="722"/>
      <point x="227" y="722"/>
      <point x="177" y="722" type="curve"/>
      <point x="177" y="631"/>
      <point x="177" y="722"/>
    </contour>
    <contour>
      <point x="599" y="631" type="curve"/>
      <point x="735" y="631"/>
      <point x="598" y="631"/>
      <point x="733" y="631" type="curve"/>
      <point x="733" y="722"/>
      <point x="733" y="631"/>
      <point x="733" y="722" type="curve"/>
      <point x="689" y="722"/>
      <point x="644" y="722"/>
      <point x="599" y="722" type="curve"/>
      <point x="599" y="631"/>
      <point x="599" y="722"/>
    </contour>
    <contour>
      <point x="85" y="705" type="curve"/>
      <point x="163" y="583"/>
      <point x="238" y="461"/>
      <point x="315" y="337" type="curve"/>
      <point x="438" y="337"/>
      <point x="307" y="337"/>
      <point x="430" y="337" type="curve"/>
      <point x="352" y="467"/>
      <point x="274" y="593"/>
      <point x="195" y="722" type="curve"/>
      <point x="85" y="722"/>
      <point x="195" y="705"/>
    </contour>
    <contour>
      <point x="575" y="722" type="curve"/>
      <point x="491" y="592"/>
      <point x="408" y="466"/>
      <point x="323" y="337" type="curve"/>
      <point x="446" y="337"/>
      <point x="319" y="337"/>
      <point x="441" y="337" type="curve"/>
      <point x="523" y="461"/>
      <point x="603" y="583"/>
      <point x="685" y="706" type="curve"/>
      <point x="575" y="706"/>
      <point x="685" y="722"/>
    </contour>
    <contour>
      <point x="444" y="0" type="curve"/>
      <point x="444" y="115"/>
      <point x="444" y="227"/>
      <point x="444" y="341" type="curve"/>
      <point x="312" y="341"/>
      <point x="444" y="341"/>
      <point x="312" y="341" type="curve"/>
      <point x="312" y="227"/>
      <point x="312" y="115"/>
      <point x="312" y="0" type="curve"/>
      <point x="444" y="0"/>
      <point x="312" y="0"/>
    </contour>
  </outline>
</glyph>
<glyph name="brokenbar" format="1">
  <advance width="300"/>
  <unicode hex="00A6"/>
  <outline>
    <contour>
      <point x="210" y="-300" type="curve"/>
      <point x="210" y="-176"/>
      <point x="210" y="-52"/>
      <point x="210" y="72" type="curve"/>
      <point x="90" y="72"/>
      <point x="210" y="72"/>
      <point x="90" y="72" type="curve"/>
      <point x="90" y="-52"/>
      <point x="90" y="-176"/>
      <point x="90" y="-300" type="curve"/>
      <point x="210" y="-300"/>
      <point x="90" y="-300"/>
    </contour>
    <contour>
      <point x="210" y="428" type="curve"/>
      <point x="210" y="552"/>
      <point x="210" y="676"/>
      <point x="210" y="800" type="curve"/>
      <point x="90" y="800"/>
      <point x="210" y="800"/>
      <point x="90" y="800" type="curve"/>
      <point x="90" y="676"/>
      <point x="90" y="552"/>
      <point x="90" y="428" type="curve"/>
      <point x="210" y="428"/>
      <point x="90" y="428"/>
    </contour>
  </outline>
</glyph>
<glyph name="section" format="1">
  <advance width="574"/>
  <unicode hex="00A7"/>
  <outline>
    <contour>
      <point x="462" y="703" type="curve"/>
      <point x="402" y="734"/>
      <point x="357" y="749"/>
      <point x="291" y="749" type="curve"/>
      <point x="176" y="749"/>
      <point x="93" y="702"/>
      <point x="93" y="601" type="curve"/>
      <point x="93" y="511"/>
      <point x="156" y="467"/>
      <point x="246" y="438" type="curve"/>
      <point x="317" y="417"/>
      <point x="399" y="414"/>
      <point x="399" y="357" type="curve"/>
      <point x="399" y="302"/>
      <point x="351" y="281"/>
      <point x="289" y="270" type="curve"/>
      <point x="360" y="197"/>
      <point x="289" y="270"/>
      <point x="360" y="197" type="curve"/>
      <point x="456" y="218"/>
      <point x="519" y="267"/>
      <point x="519" y="361" type="curve"/>
      <point x="518" y="470"/>
      <point x="418" y="494"/>
      <point x="306" y="525" type="curve"/>
      <point x="257" y="540"/>
      <point x="210" y="555"/>
      <point x="210" y="601" type="curve"/>
      <point x="210" y="639"/>
      <point x="241" y="658"/>
      <point x="285" y="658" type="curve"/>
      <point x="334" y="658"/>
      <point x="364" y="648"/>
      <point x="411" y="626" type="curve"/>
      <point x="462" y="703"/>
      <point x="411" y="626"/>
    </contour>
    <contour>
      <point x="212" y="525" type="curve"/>
      <point x="122" y="500"/>
      <point x="57" y="457"/>
      <point x="57" y="366" type="curve"/>
      <point x="57" y="263"/>
      <point x="143" y="229"/>
      <point x="248" y="200" type="curve"/>
      <point x="307" y="182"/>
      <point x="370" y="172"/>
      <point x="370" y="123" type="curve"/>
      <point x="370" y="83"/>
      <point x="335" y="64"/>
      <point x="289" y="64" type="curve"/>
      <point x="235" y="64"/>
      <point x="201" y="78"/>
      <point x="148" y="105" type="curve"/>
      <point x="89" y="35"/>
      <point x="148" y="105"/>
      <point x="89" y="35" type="curve"/>
      <point x="154" y="-9"/>
      <point x="208" y="-27"/>
      <point x="286" y="-27" type="curve"/>
      <point x="401" y="-27"/>
      <point x="489" y="18"/>
      <point x="489" y="126" type="curve"/>
      <point x="488" y="218"/>
      <point x="419" y="260"/>
      <point x="325" y="286" type="curve"/>
      <point x="255" y="307"/>
      <point x="178" y="312"/>
      <point x="178" y="371" type="curve"/>
      <point x="178" y="421"/>
      <point x="218" y="441"/>
      <point x="272" y="457" type="curve"/>
      <point x="212" y="525"/>
      <point x="272" y="457"/>
    </contour>
    <contour>
      <point x="183" y="35" type="curve"/>
      <point x="183" y="155"/>
      <point x="183" y="38"/>
      <point x="183" y="158" type="curve"/>
      <point x="89" y="158"/>
      <point x="183" y="158"/>
      <point x="89" y="158" type="curve"/>
      <point x="89" y="38"/>
      <point x="89" y="155"/>
      <point x="89" y="35" type="curve"/>
      <point x="183" y="35"/>
      <point x="89" y="35"/>
    </contour>
    <contour>
      <point x="462" y="580" type="curve"/>
      <point x="462" y="700"/>
      <point x="462" y="583"/>
      <point x="462" y="703" type="curve"/>
      <point x="368" y="703"/>
      <point x="462" y="703"/>
      <point x="368" y="703" type="curve"/>
      <point x="368" y="583"/>
      <point x="368" y="700"/>
      <point x="368" y="580" type="curve"/>
      <point x="462" y="580"/>
      <point x="368" y="580"/>
    </contour>
  </outline>
</glyph>
<glyph name="dieresis" format="1">
  <advance width="414"/>
  <unicode hex="00A8"/>
  <outline>
    <contour>
      <point x="170" y="629" type="curve"/>
      <point x="170" y="669"/>
      <point x="140" y="689"/>
      <point x="100" y="689" type="curve"/>
      <point x="60" y="689"/>
      <point x="32" y="667"/>
      <point x="32" y="629" type="curve"/>
      <point x="167" y="629"/>
      <point x="36" y="629"/>
      <point x="170" y="629" type="curve"/>
      <point x="170" y="588"/>
      <point x="140" y="569"/>
      <point x="100" y="569" type="curve"/>
      <point x="59" y="569"/>
      <point x="32" y="589"/>
      <point x="32" y="629" type="curve"/>
      <point x="167" y="629"/>
      <point x="36" y="629"/>
    </contour>
    <contour>
      <point x="368" y="629" type="curve"/>
      <point x="368" y="669"/>
      <point x="338" y="689"/>
      <point x="298" y="689" type="curve"/>
      <point x="258" y="689"/>
      <point x="231" y="667"/>
      <point x="231" y="629" type="curve"/>
      <point x="365" y="629"/>
      <point x="234" y="629"/>
      <point x="368" y="629" type="curve"/>
      <point x="368" y="588"/>
      <point x="339" y="569"/>
      <point x="298" y="569" type="curve"/>
      <point x="257" y="569"/>
      <point x="231" y="589"/>
      <point x="231" y="629" type="curve"/>
      <point x="365" y="629"/>
      <point x="234" y="629"/>
    </contour>
    <contour>
      <point x="200" y="573" type="move" name="_top"/>
    </contour>
  </outline>
</glyph>
<glyph name="copyright" format="1">
  <advance width="846"/>
  <unicode hex="00A9"/>
  <outline>
    <contour>
      <point x="156" y="323" type="curve"/>
      <point x="156" y="478"/>
      <point x="268" y="571"/>
      <point x="427" y="571" type="curve"/>
      <point x="582" y="571"/>
      <point x="691" y="475"/>
      <point x="691" y="321" type="curve"/>
      <point x="691" y="172"/>
      <point x="585" y="78"/>
      <point x="435" y="78" type="curve"/>
      <point x="276" y="78"/>
      <point x="156" y="168"/>
      <point x="156" y="323" type="curve"/>
      <point x="57" y="323"/>
      <point x="157" y="323"/>
      <point x="59" y="323" type="curve"/>
      <point x="59" y="121"/>
      <point x="218" y="4"/>
      <point x="431" y="4" type="curve"/>
      <point x="637" y="4"/>
      <point x="787" y="125"/>
      <point x="787" y="325" type="curve"/>
      <point x="787" y="525"/>
      <point x="634" y="645"/>
      <point x="427" y="645" type="curve"/>
      <point x="217" y="645"/>
      <point x="59" y="527"/>
      <point x="59" y="323" type="curve"/>
      <point x="157" y="323"/>
      <point x="57" y="323"/>
    </contour>
    <contour>
      <point x="492" y="423" type="curve"/>
      <point x="492" y="409"/>
      <point x="492" y="392"/>
      <point x="492" y="375" type="curve"/>
      <point x="581" y="375"/>
      <point x="493" y="375"/>
      <point x="582" y="375" type="curve"/>
      <point x="582" y="405"/>
      <point x="582" y="439"/>
      <point x="582" y="466" type="curve"/>
      <point x="493" y="426"/>
      <point x="581" y="463"/>
    </contour>
    <contour>
      <point x="582" y="466" type="curve"/>
      <point x="538" y="497"/>
      <point x="491" y="510"/>
      <point x="433" y="510" type="curve"/>
      <point x="308" y="510"/>
      <point x="227" y="442"/>
      <point x="227" y="322" type="curve"/>
      <point x="227" y="207"/>
      <point x="300" y="140"/>
      <point x="417" y="140" type="curve"/>
      <point x="483" y="140"/>
      <point x="531" y="150"/>
      <point x="585" y="195" type="curve"/>
      <point x="532" y="247"/>
      <point x="585" y="195"/>
      <point x="532" y="247" type="curve"/>
      <point x="489" y="223"/>
      <point x="462" y="214"/>
      <point x="421" y="214" type="curve"/>
      <point x="355" y="214"/>
      <point x="322" y="258"/>
      <point x="322" y="326" type="curve"/>
      <point x="322" y="394"/>
      <point x="360" y="435"/>
      <point x="429" y="435" type="curve"/>
      <point x="455" y="435"/>
      <point x="474" y="431"/>
      <point x="492" y="423" type="curve"/>
      <point x="581" y="463"/>
      <point x="493" y="426"/>
    </contour>
  </outline>
</glyph>
<glyph name="guillemotleft" format="1">
  <advance width="605"/>
  <unicode hex="00AB"/>
  <outline>
    <contour>
      <point x="280" y="464" type="curve"/>
      <point x="235" y="438"/>
      <point x="100" y="365"/>
      <point x="55" y="339" type="curve"/>
      <point x="55" y="238"/>
      <point x="55" y="331"/>
      <point x="55" y="231" type="curve"/>
      <point x="100" y="257"/>
      <point x="235" y="334"/>
      <point x="280" y="361" type="curve"/>
      <point x="280" y="461"/>
      <point x="280" y="364"/>
    </contour>
    <contour>
      <point x="280" y="211" type="curve"/>
      <point x="235" y="237"/>
      <point x="100" y="312"/>
      <point x="55" y="339" type="curve"/>
      <point x="55" y="238"/>
      <point x="55" y="331"/>
      <point x="55" y="231" type="curve"/>
      <point x="100" y="205"/>
      <point x="235" y="133"/>
      <point x="280" y="107" type="curve"/>
      <point x="280" y="207"/>
      <point x="280" y="111"/>
    </contour>
    <contour>
      <point x="525" y="464" type="curve"/>
      <point x="481" y="438"/>
      <point x="345" y="365"/>
      <point x="301" y="339" type="curve"/>
      <point x="301" y="238"/>
      <point x="301" y="331"/>
      <point x="301" y="231" type="curve"/>
      <point x="345" y="257"/>
      <point x="481" y="334"/>
      <point x="525" y="361" type="curve"/>
      <point x="525" y="461"/>
      <point x="525" y="364"/>
    </contour>
    <contour>
      <point x="525" y="211" type="curve"/>
      <point x="481" y="237"/>
      <point x="345" y="312"/>
      <point x="301" y="339" type="curve"/>
      <point x="301" y="238"/>
      <point x="301" y="331"/>
      <point x="301" y="231" type="curve"/>
      <point x="345" y="205"/>
      <point x="481" y="133"/>
      <point x="525" y="107" type="curve"/>
      <point x="525" y="207"/>
      <point x="525" y="111"/>
    </contour>
  </outline>
</glyph>
<glyph name="logicalnot" format="1">
  <advance width="686"/>
  <unicode hex="00AC"/>
  <outline>
    <contour>
      <point x="85" y="263" type="curve"/>
      <point x="610" y="263" type="line"/>
      <point x="610" y="363"/>
      <point x="610" y="263"/>
      <point x="610" y="363" type="curve"/>
      <point x="85" y="363" type="line"/>
      <point x="85" y="263"/>
      <point x="85" y="363"/>
    </contour>
    <contour>
      <point x="610" y="142" type="curve"/>
      <point x="610" y="363" type="line"/>
      <point x="489" y="363"/>
      <point x="614" y="363"/>
      <point x="493" y="363" type="curve"/>
      <point x="493" y="142" type="line"/>
      <point x="614" y="142"/>
      <point x="489" y="142"/>
    </contour>
  </outline>
</glyph>
<glyph name="registered" format="1">
  <advance width="854"/>
  <unicode hex="00AE"/>
  <outline>
    <contour>
      <point x="147" y="322" type="curve"/>
      <point x="147" y="487"/>
      <point x="261" y="578"/>
      <point x="431" y="578" type="curve"/>
      <point x="598" y="578"/>
      <point x="708" y="484"/>
      <point x="708" y="320" type="curve"/>
      <point x="708" y="161"/>
      <point x="601" y="69"/>
      <point x="439" y="69" type="curve"/>
      <point x="266" y="69"/>
      <point x="147" y="157"/>
      <point x="147" y="322" type="curve"/>
      <point x="111" y="322"/>
      <point x="95" y="322"/>
      <point x="59" y="322" type="curve"/>
      <point x="59" y="113"/>
      <point x="214" y="3"/>
      <point x="435" y="3" type="curve"/>
      <point x="649" y="3"/>
      <point x="795" y="117"/>
      <point x="795" y="324" type="curve"/>
      <point x="795" y="532"/>
      <point x="647" y="644"/>
      <point x="431" y="644" type="curve"/>
      <point x="212" y="644"/>
      <point x="59" y="533"/>
      <point x="59" y="322" type="curve"/>
      <point x="95" y="322"/>
      <point x="111" y="322"/>
    </contour>
    <contour>
      <point x="514" y="143" type="curve"/>
      <point x="551" y="143"/>
      <point x="571" y="143"/>
      <point x="608" y="143" type="curve"/>
      <point x="608" y="216"/>
      <point x="608" y="143"/>
      <point x="608" y="216" type="curve"/>
      <point x="594" y="216"/>
      <point x="590" y="216"/>
      <point x="577" y="216" type="curve"/>
      <point x="519" y="183"/>
      <point x="556" y="225"/>
    </contour>
    <contour>
      <point x="400" y="505" type="curve"/>
      <point x="353" y="505"/>
      <point x="312" y="505"/>
      <point x="265" y="505" type="curve"/>
      <point x="265" y="431"/>
      <point x="265" y="505"/>
      <point x="265" y="431" type="curve"/>
      <point x="279" y="431"/>
      <point x="288" y="431"/>
      <point x="302" y="431" type="curve"/>
      <point x="400" y="505"/>
      <point x="302" y="431"/>
    </contour>
    <contour>
      <point x="400" y="217" type="curve"/>
      <point x="353" y="217"/>
      <point x="312" y="217"/>
      <point x="265" y="217" type="curve"/>
      <point x="265" y="143"/>
      <point x="265" y="217"/>
      <point x="265" y="143" type="curve"/>
      <point x="279" y="143"/>
      <point x="288" y="143"/>
      <point x="302" y="143" type="curve"/>
      <point x="400" y="217"/>
      <point x="302" y="143"/>
    </contour>
    <contour>
      <point x="302" y="143" type="curve"/>
      <point x="346" y="143"/>
      <point x="383" y="143"/>
      <point x="427" y="143" type="curve"/>
      <point x="427" y="216"/>
      <point x="427" y="143"/>
      <point x="427" y="216" type="curve"/>
      <point x="416" y="216"/>
      <point x="411" y="216"/>
      <point x="400" y="216" type="curve"/>
      <point x="302" y="143"/>
      <point x="400" y="216"/>
    </contour>
    <contour>
      <point x="403" y="316" type="curve"/>
      <point x="430" y="280"/>
      <point x="487" y="179"/>
      <point x="514" y="143" type="curve"/>
      <point x="579" y="196"/>
      <point x="533" y="154"/>
      <point x="577" y="216" type="curve"/>
      <point x="510" y="313" type="line"/>
      <point x="390" y="313"/>
      <point x="523" y="316"/>
    </contour>
    <contour>
      <point x="396" y="217" type="curve"/>
      <point x="396" y="313"/>
      <point x="396" y="409"/>
      <point x="396" y="505" type="curve"/>
      <point x="298" y="431"/>
      <point x="400" y="505"/>
      <point x="302" y="431" type="curve"/>
      <point x="302" y="335"/>
      <point x="302" y="238"/>
      <point x="302" y="143" type="curve"/>
      <point x="400" y="217"/>
      <point x="298" y="143"/>
    </contour>
    <contour>
      <point x="354" y="275" type="curve"/>
      <point x="373" y="275"/>
      <point x="394" y="275"/>
      <point x="414" y="275" type="curve"/>
      <point x="507" y="275"/>
      <point x="575" y="303"/>
      <point x="575" y="392" type="curve"/>
      <point x="575" y="469"/>
      <point x="515" y="505"/>
      <point x="434" y="505" type="curve"/>
      <point x="423" y="505"/>
      <point x="411" y="505"/>
      <point x="400" y="505" type="curve"/>
      <point x="302" y="431"/>
      <point x="400" y="505"/>
      <point x="302" y="431" type="curve"/>
      <point x="340" y="431"/>
      <point x="379" y="431"/>
      <point x="416" y="431" type="curve"/>
      <point x="453" y="431"/>
      <point x="483" y="422"/>
      <point x="483" y="388" type="curve"/>
      <point x="483" y="357"/>
      <point x="459" y="348"/>
      <point x="427" y="348" type="curve"/>
      <point x="403" y="348"/>
      <point x="378" y="348"/>
      <point x="354" y="348" type="curve"/>
      <point x="354" y="275"/>
      <point x="354" y="348"/>
    </contour>
  </outline>
</glyph>
<glyph name="macron" format="1">
  <advance width="327"/>
  <unicode hex="00AF"/>
  <outline>
    <contour>
      <point x="268" y="672" type="curve"/>
      <point x="189" y="672"/>
      <point x="111" y="672"/>
      <point x="33" y="672" type="curve"/>
      <point x="33" y="581"/>
      <point x="33" y="672"/>
      <point x="33" y="581" type="curve"/>
      <point x="111" y="581"/>
      <point x="189" y="581"/>
      <point x="268" y="581" type="curve"/>
      <point x="268" y="672"/>
      <point x="268" y="581"/>
    </contour>
    <contour>
      <point x="152" y="581" type="move" name="_top"/>
    </contour>
  </outline>
</glyph>
<glyph name="plusminus" format="1">
  <advance width="708"/>
  <unicode hex="00B1"/>
  <outline>
    <contour>
      <point x="64" y="32" type="line"/>
      <point x="644" y="32" type="line"/>
      <point x="644" y="132" type="line"/>
      <point x="64" y="132" type="line"/>
    </contour>
    <contour>
      <point x="64" y="263" type="curve"/>
      <point x="644" y="263" type="line"/>
      <point x="644" y="363"/>
      <point x="644" y="263"/>
      <point x="644" y="363" type="curve"/>
      <point x="64" y="363" type="line"/>
      <point x="64" y="263"/>
      <point x="64" y="363"/>
    </contour>
    <contour>
      <point x="412" y="32" type="curve"/>
      <point x="412" y="584" type="line"/>
      <point x="292" y="584"/>
      <point x="420" y="584"/>
      <point x="299" y="584" type="curve"/>
      <point x="299" y="32" type="line"/>
      <point x="420" y="32"/>
      <point x="292" y="32"/>
    </contour>
  </outline>
</glyph>
<glyph name="twosuperior" format="1">
  <advance width="516"/>
  <unicode hex="00B2"/>
  <outline>
    <contour>
      <point x="457" y="312" type="curve"/>
      <point x="457" y="357"/>
      <point x="457" y="399"/>
      <point x="457" y="445" type="curve"/>
      <point x="368" y="445"/>
      <point x="464" y="445"/>
      <point x="376" y="445" type="curve"/>
      <point x="376" y="428"/>
      <point x="376" y="413"/>
      <point x="376" y="395" type="curve"/>
      <point x="469" y="318"/>
      <point x="363" y="389"/>
    </contour>
    <contour>
      <point x="69" y="312" type="curve"/>
      <point x="217" y="312"/>
      <point x="343" y="312"/>
      <point x="457" y="312" type="curve"/>
      <point x="363" y="389"/>
      <point x="469" y="318"/>
      <point x="376" y="395" type="curve"/>
      <point x="276" y="395"/>
      <point x="169" y="395"/>
      <point x="69" y="395" type="curve"/>
      <point x="69" y="312"/>
      <point x="69" y="395"/>
    </contour>
    <contour>
      <point x="160" y="610" type="curve"/>
      <point x="185" y="645"/>
      <point x="211" y="665"/>
      <point x="252" y="665" type="curve"/>
      <point x="295" y="665"/>
      <point x="324" y="646"/>
      <point x="324" y="608" type="curve"/>
      <point x="324" y="570"/>
      <point x="295" y="551"/>
      <point x="265" y="527" type="curve"/>
      <point x="200" y="483"/>
      <point x="134" y="439"/>
      <point x="69" y="395" type="curve"/>
      <point x="71" y="314"/>
      <point x="71" y="395"/>
      <point x="73" y="314" type="curve"/>
      <point x="168" y="370"/>
      <point x="256" y="414"/>
      <point x="326" y="462" type="curve"/>
      <point x="385" y="508"/>
      <point x="433" y="541"/>
      <point x="433" y="612" type="curve"/>
      <point x="433" y="705"/>
      <point x="361" y="749"/>
      <point x="262" y="749" type="curve"/>
      <point x="181" y="749"/>
      <point x="120" y="722"/>
      <point x="84" y="652" type="curve"/>
      <point x="160" y="610"/>
      <point x="84" y="652"/>
    </contour>
    <contour>
      <point x="260" y="749" type="move" name="_top"/>
    </contour>
    <contour>
      <point x="262" y="312" type="move" name="_bottom"/>
    </contour>
  </outline>
</glyph>
<glyph name="threesuperior" format="1">
  <advance width="464"/>
  <unicode hex="00B3"/>
  <outline>
    <contour>
      <point x="116" y="630" type="curve"/>
      <point x="144" y="653"/>
      <point x="175" y="665"/>
      <point x="203" y="665" type="curve"/>
      <point x="245" y="665"/>
      <point x="276" y="652"/>
      <point x="276" y="616" type="curve"/>
      <point x="276" y="574"/>
      <point x="217" y="567"/>
      <point x="160" y="565" type="curve"/>
      <point x="160" y="495"/>
      <point x="160" y="565"/>
      <point x="160" y="495" type="curve"/>
      <point x="281" y="497"/>
      <point x="387" y="518"/>
      <point x="387" y="622" type="curve"/>
      <point x="387" y="713"/>
      <point x="313" y="747"/>
      <point x="214" y="747" type="curve"/>
      <point x="156" y="747"/>
      <point x="102" y="724"/>
      <point x="62" y="687" type="curve"/>
      <point x="116" y="630"/>
      <point x="62" y="687"/>
    </contour>
    <contour>
      <point x="60" y="342" type="curve"/>
      <point x="103" y="319"/>
      <point x="145" y="305"/>
      <point x="194" y="305" type="curve"/>
      <point x="313" y="302"/>
      <point x="405" y="335"/>
      <point x="403" y="440" type="curve"/>
      <point x="403" y="550"/>
      <point x="286" y="553"/>
      <point x="160" y="556" type="curve"/>
      <point x="160" y="494"/>
      <point x="160" y="556"/>
      <point x="160" y="494" type="curve"/>
      <point x="229" y="491"/>
      <point x="292" y="484"/>
      <point x="292" y="438" type="curve"/>
      <point x="292" y="397"/>
      <point x="253" y="383"/>
      <point x="205" y="384" type="curve"/>
      <point x="173" y="384"/>
      <point x="143" y="391"/>
      <point x="107" y="406" type="curve"/>
      <point x="60" y="342"/>
      <point x="107" y="406"/>
    </contour>
    <contour>
      <point x="227" y="747" type="move" name="_top"/>
    </contour>
    <contour>
      <point x="218" y="305" type="move" name="_bottom"/>
    </contour>
  </outline>
</glyph>
<glyph name="acute" format="1">
  <advance width="470"/>
  <unicode hex="00B4"/>
  <outline>
    <contour>
      <point x="164" y="589" type="line"/>
      <point x="320" y="755" type="line"/>
      <point x="165" y="755" type="line"/>
      <point x="46" y="589" type="line"/>
    </contour>
    <contour>
      <point x="112" y="590" type="move" name="_top"/>
    </contour>
  </outline>
</glyph>
<glyph name="paragraph" format="1">
  <advance width="843"/>
  <unicode hex="00B6"/>
  <outline>
    <contour>
      <point x="478" y="631" type="curve"/>
      <point x="646" y="631"/>
      <point x="478" y="631"/>
      <point x="646" y="631" type="curve"/>
      <point x="646" y="722"/>
      <point x="646" y="631"/>
      <point x="646" y="722" type="curve"/>
      <point x="590" y="722"/>
      <point x="533" y="722"/>
      <point x="478" y="722" type="curve"/>
      <point x="478" y="631"/>
      <point x="478" y="722"/>
    </contour>
    <contour>
      <point x="478" y="0" type="curve"/>
      <point x="533" y="0"/>
      <point x="590" y="0"/>
      <point x="646" y="0" type="curve"/>
      <point x="646" y="91"/>
      <point x="646" y="0"/>
      <point x="646" y="91" type="curve"/>
      <point x="478" y="91"/>
      <point x="646" y="91"/>
      <point x="478" y="91" type="curve"/>
      <point x="478" y="0"/>
      <point x="478" y="91"/>
    </contour>
    <contour>
      <point x="478" y="91" type="curve"/>
      <point x="314" y="91"/>
      <point x="478" y="91"/>
      <point x="314" y="91" type="curve"/>
      <point x="314" y="0"/>
      <point x="314" y="91"/>
      <point x="314" y="0" type="curve"/>
      <point x="478" y="0"/>
      <point x="423" y="0"/>
      <point x="478" y="0" type="curve"/>
      <point x="478" y="91"/>
      <point x="478" y="0"/>
    </contour>
    <contour>
      <point x="457" y="380" type="curve"/>
      <point x="406" y="357"/>
      <point x="367" y="344"/>
      <point x="310" y="344" type="curve"/>
      <point x="222" y="344"/>
      <point x="161" y="391"/>
      <point x="161" y="478" type="curve"/>
      <point x="161" y="581"/>
      <point x="242" y="631"/>
      <point x="351" y="631" type="curve"/>
      <point x="392" y="631"/>
      <point x="434" y="631"/>
      <point x="475" y="631" type="curve"/>
      <point x="475" y="722"/>
      <point x="475" y="631"/>
      <point x="475" y="722" type="curve"/>
      <point x="428" y="722"/>
      <point x="382" y="722"/>
      <point x="335" y="722" type="curve"/>
      <point x="166" y="722"/>
      <point x="40" y="641"/>
      <point x="40" y="482" type="curve"/>
      <point x="40" y="330"/>
      <point x="160" y="257"/>
      <point x="321" y="255" type="curve"/>
      <point x="385" y="255"/>
      <point x="438" y="275"/>
      <point x="496" y="300" type="curve"/>
      <point x="457" y="380"/>
      <point x="495" y="301"/>
    </contour>
    <contour>
      <point x="540" y="0" type="curve"/>
      <point x="540" y="241"/>
      <point x="540" y="481"/>
      <point x="540" y="722" type="curve"/>
      <point x="419" y="722"/>
      <point x="540" y="722"/>
      <point x="419" y="722" type="curve"/>
      <point x="419" y="481"/>
      <point x="419" y="241"/>
      <point x="419" y="0" type="curve"/>
      <point x="540" y="0"/>
      <point x="419" y="0"/>
    </contour>
    <contour>
      <point x="758" y="0" type="curve"/>
      <point x="758" y="241"/>
      <point x="758" y="481"/>
      <point x="758" y="722" type="curve"/>
      <point x="637" y="722"/>
      <point x="758" y="722"/>
      <point x="637" y="722" type="curve"/>
      <point x="637" y="481"/>
      <point x="637" y="241"/>
      <point x="637" y="0" type="curve"/>
      <point x="758" y="0"/>
      <point x="637" y="0"/>
    </contour>
  </outline>
</glyph>
<glyph name="periodcentered" format="1">
  <advance width="267"/>
  <unicode hex="00B7"/>
  <outline>
    <contour>
      <point x="202" y="440" type="curve"/>
      <point x="202" y="481"/>
      <point x="172" y="500"/>
      <point x="132" y="500" type="curve"/>
      <point x="92" y="500"/>
      <point x="65" y="479"/>
      <point x="65" y="440" type="curve"/>
      <point x="199" y="440"/>
      <point x="68" y="440"/>
      <point x="202" y="440" type="curve"/>
      <point x="202" y="399"/>
      <point x="173" y="380"/>
      <point x="132" y="380" type="curve"/>
      <point x="91" y="380"/>
      <point x="65" y="401"/>
      <point x="65" y="440" type="curve"/>
      <point x="199" y="440"/>
      <point x="68" y="440"/>
    </contour>
  </outline>
</glyph>
<glyph name="cedilla" format="1">
  <advance width="399"/>
  <unicode hex="00B8"/>
  <outline>
    <contour>
      <point x="160" y="136" type="curve"/>
      <point x="146" y="114"/>
      <point x="94" y="31"/>
      <point x="80" y="8" type="curve"/>
      <point x="163" y="-65"/>
      <point x="80" y="8"/>
      <point x="163" y="-65" type="curve"/>
      <point x="179" y="-39"/>
      <point x="237" y="47"/>
      <point x="253" y="73" type="curve"/>
      <point x="160" y="136"/>
      <point x="253" y="73"/>
    </contour>
    <contour>
      <point x="163" y="-65" type="curve"/>
      <point x="170" y="-60"/>
      <point x="176" y="-57"/>
      <point x="185" y="-57" type="curve"/>
      <point x="199" y="-57"/>
      <point x="209" y="-65"/>
      <point x="209" y="-79" type="curve"/>
      <point x="209" y="-98"/>
      <point x="192" y="-105"/>
      <point x="171" y="-105" type="curve"/>
      <point x="147" y="-105"/>
      <point x="127" y="-99"/>
      <point x="100" y="-86" type="curve"/>
      <point x="61" y="-155"/>
      <point x="100" y="-86"/>
      <point x="61" y="-155" type="curve"/>
      <point x="96" y="-173"/>
      <point x="126" y="-181"/>
      <point x="165" y="-181" type="curve"/>
      <point x="245" y="-181"/>
      <point x="306" y="-152"/>
      <point x="306" y="-77" type="curve"/>
      <point x="306" y="-7"/>
      <point x="255" y="30"/>
      <point x="184" y="30" type="curve"/>
      <point x="145" y="30"/>
      <point x="117" y="23"/>
      <point x="80" y="8" type="curve"/>
      <point x="163" y="-65"/>
      <point x="80" y="8"/>
    </contour>
    <contour>
      <point x="238" y="73" type="move" name="_bottom"/>
    </contour>
  </outline>
</glyph>
<glyph name="onesuperior" format="1">
  <advance width="401"/>
  <unicode hex="00B9"/>
  <outline>
    <contour>
      <point x="172" y="312" type="curve"/>
      <point x="227" y="312"/>
      <point x="285" y="312"/>
      <point x="340" y="312" type="curve"/>
      <point x="340" y="396"/>
      <point x="340" y="308"/>
      <point x="340" y="392" type="curve"/>
      <point x="322" y="392"/>
      <point x="300" y="392"/>
      <point x="282" y="392" type="curve"/>
      <point x="172" y="308"/>
      <point x="282" y="396"/>
    </contour>
    <contour>
      <point x="282" y="392" type="curve"/>
      <point x="226" y="392"/>
      <point x="167" y="392"/>
      <point x="110" y="392" type="curve"/>
      <point x="110" y="308"/>
      <point x="110" y="396"/>
      <point x="110" y="312" type="curve"/>
      <point x="130" y="312"/>
      <point x="152" y="312"/>
      <point x="172" y="312" type="curve"/>
      <point x="282" y="396"/>
      <point x="172" y="308"/>
    </contour>
    <contour>
      <point x="103" y="577" type="line"/>
      <point x="282" y="737" type="line"/>
      <point x="172" y="740" type="line"/>
      <point x="49" y="638" type="line"/>
    </contour>
    <contour>
      <point x="282" y="392" type="curve"/>
      <point x="282" y="740" type="line"/>
      <point x="172" y="740" type="line"/>
      <point x="172" y="312" type="line"/>
      <point x="282" y="396"/>
      <point x="172" y="308"/>
    </contour>
    <contour>
      <point x="218" y="738" type="move" name="_top"/>
    </contour>
    <contour>
      <point x="229" y="313" type="move" name="_bottom"/>
    </contour>
  </outline>
</glyph>
<glyph name="ordmasculine" format="1">
  <advance width="476"/>
  <unicode hex="00BA"/>
  <outline>
    <contour>
      <point x="132" y="601" type="curve"/>
      <point x="132" y="668"/>
      <point x="167" y="714"/>
      <point x="235" y="714" type="curve"/>
      <point x="305" y="714"/>
      <point x="342" y="668"/>
      <point x="342" y="600" type="curve"/>
      <point x="342" y="529"/>
      <point x="306" y="484"/>
      <point x="241" y="484" type="curve"/>
      <point x="169" y="484"/>
      <point x="132" y="529"/>
      <point x="132" y="601" type="curve"/>
      <point x="84" y="601"/>
      <point x="100" y="601"/>
      <point x="52" y="601" type="curve"/>
      <point x="52" y="486"/>
      <point x="123" y="420"/>
      <point x="238" y="420" type="curve"/>
      <point x="352" y="420"/>
      <point x="424" y="485"/>
      <point x="424" y="600" type="curve"/>
      <point x="424" y="711"/>
      <point x="354" y="777"/>
      <point x="239" y="777" type="curve"/>
      <point x="122" y="777"/>
      <point x="52" y="711"/>
      <point x="52" y="601" type="curve"/>
      <point x="100" y="601"/>
      <point x="84" y="601"/>
    </contour>
  </outline>
</glyph>
